{
.appVersion = "1342";
DisplayStrings = (
"¾",
"/oneeighth",
"/Hbar/Tbar/hbar/tbar/dcroat",
"/dcaron",
"d/dcroat"
);
classes = (
{
automatic = 1;
code = "a b c d e f g h i j k l m n o p q r s t u v w x y z A B C D E F G H I J K L M N O P Q R S T U V W X Y Z agrave egrave ograve Agrave Egrave ugrave aacute eacute oacute uacute Aacute Eacute Igrave Iacute Ograve Oacute Ugrave Uacute acircumflex ecircumflex ocircumflex ucircumflex Acircumflex Ecircumflex Icircumflex Ocircumflex Ucircumflex adieresis edieresis odieresis udieresis Adieresis Edieresis Idieresis Odieresis Udieresis igrave iacute icircumflex idieresis atilde ntilde otilde Atilde Ntilde Otilde Abreve Amacron Aogonek Aring AE Cacute Ccaron Ccedilla Cdotaccent Eth Dcaron Dcroat Ecaron Edotaccent Emacron Eogonek Gbreve Gcommaaccent Gdotaccent Hbar Idotaccent Imacron Iogonek Kcommaaccent Lacute Lcaron Lcommaaccent Lslash Nacute Ncaron Ncommaaccent Eng Ohungarumlaut Omacron Oslash OE Thorn Racute Rcaron Rcommaaccent Sacute Scaron Scedilla Scommaaccent Germandbls Tbar Tcaron Tcedilla Tcommaaccent Uhungarumlaut Umacron Uogonek Uring Wacute Wcircumflex Wdieresis Wgrave Yacute Ycircumflex Ydieresis Ygrave Zacute Zcaron Zdotaccent abreve amacron aogonek aring ae cacute ccaron ccedilla cdotaccent eth dcaron dcroat ecaron edotaccent emacron eogonek gbreve gcommaaccent gdotaccent hbar idotless idotaccent imacron iogonek jdotless kcommaaccent lacute lcaron lcommaaccent lslash nacute ncaron ncommaaccent eng ohungarumlaut omacron oslash oe thorn racute rcaron rcommaaccent sacute scaron scedilla scommaaccent germandbls tbar tcaron tcedilla tcommaaccent uhungarumlaut umacron uogonek uring wacute wcircumflex wdieresis wgrave yacute ycircumflex ydieresis ygrave zacute zcaron zdotaccent fi fl ordfeminine ordmasculine Delta Omega mu pi";
name = AllLetters;
},
{
automatic = 1;

glyphs = (
{
glyphname = .notdef;
lastChange = "2020-02-19 16:24:59 +0000";
layers = (
{
layerId = "AD226DB4-BE97-401A-8A1F-FC26A063DFB1";
paths = (
{
closed = 1;
nodes = (
"10 5 LINE",
"1021 5 LINE",
"1021 1645 LINE",
"10 1645 LINE"
);
},
{
closed = 1;
nodes = (
"1031 1655 LINE",
"1031 -5 LINE",
"0 -5 LINE",
"0 1655 LINE"
);
},
{
closed = 1;
nodes = (
"700 531 OFFCURVE",
"380 1038 OFFCURVE",
"10 1645 CURVE",
"450 1067 OFFCURVE",
"719 541 OFFCURVE",
"1021 5 CURVE"
);
},
{
closed = 1;
nodes = (
"312 541 OFFCURVE",
"581 1067 OFFCURVE",
"1021 1645 CURVE",
"651 1038 OFFCURVE",
"331 531 OFFCURVE",
"10 5 CURVE"
);
}
);
width = 1031;
},
{
layerId = "2146CDF3-509B-498B-BCC4-8BA41979C9D7";
paths = (
{
closed = 1;
nodes = (
"10 5 LINE",
"1021 5 LINE",
"1021 1645 LINE",
"10 1645 LINE"
);
},
{
closed = 1;
nodes = (
"1031 1655 LINE",
"1031 -5 LINE",
"0 -5 LINE",
"0 1655 LINE"
);
},
{
closed = 1;
nodes = (
"700 331 OFFCURVE",
"380 1038 OFFCURVE",
"10 1645 CURVE",
"450 1067 OFFCURVE",
"719 341 OFFCURVE",
"1021 5 CURVE"
);
},
{
closed = 1;
nodes = (
"312 341 OFFCURVE",
"581 1067 OFFCURVE",
"1021 1645 CURVE",
"651 1038 OFFCURVE",
"331 331 OFFCURVE",
"10 5 CURVE"
);
}
);
width = 1031;
},
{
layerId = "3D647E92-BB94-42FD-9C12-A678B6C1687F";
paths = (
{
closed = 1;
nodes = (
"10 5 LINE",
"1021 5 LINE",
"1021 1645 LINE",
"10 1645 LINE"
);
},
{
closed = 1;
nodes = (
"1031 1655 LINE",
"1031 -5 LINE",
"0 -5 LINE",
"0 1655 LINE"
);
},
{
closed = 1;
nodes = (
"700 465 OFFCURVE",
"380 1038 OFFCURVE",
"10 1645 CURVE",
"450 1067 OFFCURVE",
"719 475 OFFCURVE",
"1021 5 CURVE"
);
},
{
closed = 1;
nodes = (
"312 475 OFFCURVE",
"581 1067 OFFCURVE",
"1021 1645 CURVE",
"651 1038 OFFCURVE",
"331 465 OFFCURVE",
"10 5 CURVE"
);
}
);
width = 1031;
}
);
},
{
glyphname = comma;
lastChange = "2020-02-19 16:24:59 +0000";
layers = (
{
layerId = "AD226DB4-BE97-401A-8A1F-FC26A063DFB1";
paths = (
{
closed = 1;
nodes = (
"193 -111 OFFCURVE",
"223 -35 OFFCURVE",
"226 16 CURVE SMOOTH",
"229 72 OFFCURVE",
"203 109 OFFCURVE",
"163 109 CURVE SMOOTH",
"129 109 OFFCURVE",
"107 84 OFFCURVE",
"102 53 CURVE SMOOTH",
"95 12 OFFCURVE",
"123 -13 OFFCURVE",
"168 -10 CURVE",
"151 -67 OFFCURVE",
"112 -107 OFFCURVE",
"51 -134 CURVE",
"99 -159 LINE"
);
}
);
width = 293;
},
{
layerId = "2146CDF3-509B-498B-BCC4-8BA41979C9D7";
paths = (
{
closed = 1;
nodes = (
"376 -253 OFFCURVE",
"498 -84 OFFCURVE",
"516 82 CURVE SMOOTH",
"532 229 OFFCURVE",
"463 366 OFFCURVE",
"316 366 CURVE SMOOTH",
"200 366 OFFCURVE",
"105 279 OFFCURVE",
"96 171 CURVE SMOOTH",
"88 76 OFFCURVE",
"152 14 OFFCURVE",
"228 -10 CURVE",
"197 -94 OFFCURVE",
"106 -159 OFFCURVE",
"12 -213 CURVE",
"217 -337 LINE"
);
}
);
width = 550;
},
{
layerId = "3D647E92-BB94-42FD-9C12-A678B6C1687F";
paths = (
{
closed = 1;
nodes = (
"253 -158 OFFCURVE",
"314 -51 OFFCURVE",
"322 38 CURVE SMOOTH",
"329 124 OFFCURVE",
"289 194 OFFCURVE",
"214 194 CURVE SMOOTH",
"152 194 OFFCURVE",
"106 148 OFFCURVE",
"100 92 CURVE SMOOTH",
"93 33 OFFCURVE",
"133 -4 OFFCURVE",
"188 -10 CURVE",
"166 -76 OFFCURVE",
"110 -124 OFFCURVE",
"38 -160 CURVE",
"138 -218 LINE"
);
}
);
width = 377.92174;
}
);
unicode = 002C;
},
{
glyphname = period;
lastChange = "2020-02-19 16:24:59 +0000";
layers = (
{
layerId = "AD226DB4-BE97-401A-8A1F-FC26A063DFB1";
paths = (
{
closed = 1;
nodes = (
"158 -18 OFFCURVE",
"184 17 OFFCURVE",
"188 48 CURVE SMOOTH",
"193 85 OFFCURVE",
"169 110 OFFCURVE",
"136 110 CURVE SMOOTH",
"100 110 OFFCURVE",
"74 82 OFFCURVE",
"70 48 CURVE SMOOTH",
"66 15 OFFCURVE",
"85 -18 OFFCURVE",
"121 -18 CURVE SMOOTH"
);
}
);
width = 253;
},
{
layerId = "2146CDF3-509B-498B-BCC4-8BA41979C9D7";
paths = (
{
closed = 1;
nodes = (
"339 -18 OFFCURVE",
"440 63 OFFCURVE",
"450 194 CURVE SMOOTH",
"459 318 OFFCURVE",
"380 406 OFFCURVE",
"267 406 CURVE SMOOTH",
"150 406 OFFCURVE",
"59 312 OFFCURVE",
"46 194 CURVE SMOOTH",
"32 69 OFFCURVE",
"111 -18 OFFCURVE",
"227 -18 CURVE SMOOTH"
);
}
);
width = 463;
},
{
layerId = "3D647E92-BB94-42FD-9C12-A678B6C1687F";
paths = (
{
closed = 1;
nodes = (
"218 -18 OFFCURVE",
"269 32 OFFCURVE",
"275 96 CURVE SMOOTH",
"281 162 OFFCURVE",
"239 208 OFFCURVE",
"179 208 CURVE SMOOTH",
"117 208 OFFCURVE",
"69 158 OFFCURVE",
"62 96 CURVE SMOOTH",
"55 33 OFFCURVE",
"94 -18 OFFCURVE",
"156 -18 CURVE SMOOTH"
);
}
);
width = 322.3913;
}
);
unicode = 002E;
},
{
glyphname = semicolon;
lastChange = "2020-02-19 16:24:59 +0000";
layers = (
{
layerId = "AD226DB4-BE97-401A-8A1F-FC26A063DFB1";
paths = (
{
closed = 1;
nodes = (
"229 -115 OFFCURVE",
"264 -38 OFFCURVE",
"269 16 CURVE SMOOTH",
"274 73 OFFCURVE",
"246 109 OFFCURVE",
"205 109 CURVE SMOOTH",
"171 109 OFFCURVE",
"147 83 OFFCURVE",
"144 53 CURVE SMOOTH",
"140 18 OFFCURVE",
"164 -14 OFFCURVE",
"210 -10 CURVE",
"192 -67 OFFCURVE",
"154 -107 OFFCURVE",
"93 -134 CURVE",
"140 -159 LINE"
);
},
{
closed = 1;
nodes = (
"298 710 OFFCURVE",
"324 743 OFFCURVE",
"328 772 CURVE SMOOTH",
"333 805 OFFCURVE",
"312 838 OFFCURVE",
"273 838 CURVE SMOOTH",
"231 838 OFFCURVE",
"211 798 OFFCURVE",
"210 772 CURVE SMOOTH",
"209 739 OFFCURVE",
"234 710 OFFCURVE",
"265 710 CURVE SMOOTH"
);
}
);
width = 383;
},
{
layerId = "2146CDF3-509B-498B-BCC4-8BA41979C9D7";
paths = (
{
closed = 1;
nodes = (
"434 -255 OFFCURVE",
"558 -90 OFFCURVE",
"576 82 CURVE SMOOTH",
"592 236 OFFCURVE",
"520 366 OFFCURVE",
"377 366 CURVE SMOOTH",
"261 366 OFFCURVE",
"166 279 OFFCURVE",
"157 171 CURVE SMOOTH",
"149 74 OFFCURVE",
"214 14 OFFCURVE",
"289 -10 CURVE",
"258 -94 OFFCURVE",
"167 -159 OFFCURVE",
"73 -213 CURVE",
"279 -337 LINE"
);
},
{
closed = 1;
nodes = (
"531 552 OFFCURVE",
"628 641 OFFCURVE",
"637 766 CURVE SMOOTH",
"646 887 OFFCURVE",
"567 977 OFFCURVE",
"453 977 CURVE SMOOTH",
"341 977 OFFCURVE",
"248 891 OFFCURVE",
"234 766 CURVE SMOOTH",
"220 640 OFFCURVE",
"296 552 OFFCURVE",
"413 552 CURVE SMOOTH"
);
}
);
width = 652;
},
{
layerId = "3D647E92-BB94-42FD-9C12-A678B6C1687F";
paths = (
{
closed = 1;
nodes = (
"297 -161 OFFCURVE",
"361 -55 OFFCURVE",
"370 38 CURVE SMOOTH",
"379 127 OFFCURVE",
"337 194 OFFCURVE",
"262 194 CURVE SMOOTH",
"201 194 OFFCURVE",
"153 148 OFFCURVE",
"148 92 CURVE SMOOTH",
"143 37 OFFCURVE",
"181 -5 OFFCURVE",
"236 -10 CURVE",
"214 -76 OFFCURVE",
"158 -124 OFFCURVE",
"86 -160 CURVE",
"186 -218 LINE"
);
},
{
closed = 1;
nodes = (
"375 658 OFFCURVE",
"424 709 OFFCURVE",
"430 770 CURVE SMOOTH",
"436 832 OFFCURVE",
"396 884 OFFCURVE",
"332 884 CURVE SMOOTH",
"267 884 OFFCURVE",
"223 829 OFFCURVE",
"218 770 CURVE SMOOTH",
"213 706 OFFCURVE",
"254 658 OFFCURVE",
"314 658 CURVE SMOOTH"
);
}
);
width = 471.88696;
}
);
unicode = 003B;
},
{
glyphname = colon;
lastChange = "2020-02-19 16:24:59 +0000";
layers = (
{
layerId = "AD226DB4-BE97-401A-8A1F-FC26A063DFB1";
paths = (
{
closed = 1;
nodes = (
"268 723 OFFCURVE",
"293 757 OFFCURVE",
"297 785 CURVE SMOOTH",
"302 819 OFFCURVE",
"281 851 OFFCURVE",
"243 851 CURVE SMOOTH",
"199 851 OFFCURVE",
"181 807 OFFCURVE",
"179 785 CURVE SMOOTH",
"176 748 OFFCURVE",
"205 723 OFFCURVE",
"234 723 CURVE SMOOTH"
);
},
{
closed = 1;
nodes = (
"211 79 OFFCURVE",
"237 111 OFFCURVE",
"241 141 CURVE SMOOTH",
"245 174 OFFCURVE",
"226 207 OFFCURVE",
"187 207 CURVE SMOOTH",
"143 207 OFFCURVE",
"125 163 OFFCURVE",
"123 141 CURVE SMOOTH",
"120 107 OFFCURVE",
"146 79 OFFCURVE",
"178 79 CURVE SMOOTH"
);
}
);
width = 340;
},
{
layerId = "2146CDF3-509B-498B-BCC4-8BA41979C9D7";
paths = (
{
closed = 1;
nodes = (
"452 526 OFFCURVE",
"551 611 OFFCURVE",
"560 739 CURVE SMOOTH",
"568 862 OFFCURVE",
"489 950 OFFCURVE",
"377 950 CURVE SMOOTH",
"270 950 OFFCURVE",
"171 871 OFFCURVE",
"159 739 CURVE SMOOTH",
"149 621 OFFCURVE",
"214 526 OFFCURVE",
"336 526 CURVE SMOOTH"
);
},
{
closed = 1;
nodes = (
"391 -20 OFFCURVE",
"489 68 OFFCURVE",
"498 193 CURVE SMOOTH",
"507 310 OFFCURVE",
"431 404 OFFCURVE",
"314 404 CURVE SMOOTH",
"207 404 OFFCURVE",
"108 324 OFFCURVE",
"96 193 CURVE SMOOTH",
"86 83 OFFCURVE",
"146 -20 OFFCURVE",
"273 -20 CURVE SMOOTH"
);
}
);
width = 570;
},
{
layerId = "3D647E92-BB94-42FD-9C12-A678B6C1687F";
paths = (
{
closed = 1;
nodes = (
"329 658 OFFCURVE",
"378 709 OFFCURVE",
"384 770 CURVE SMOOTH",
"390 833 OFFCURVE",
"350 884 OFFCURVE",
"287 884 CURVE SMOOTH",
"222 884 OFFCURVE",
"178 828 OFFCURVE",
"172 770 CURVE SMOOTH",
"167 706 OFFCURVE",
"208 658 OFFCURVE",
"268 658 CURVE SMOOTH"
);
},
{
closed = 1;
nodes = (
"270 46 OFFCURVE",
"320 97 OFFCURVE",
"326 158 CURVE SMOOTH",
"332 219 OFFCURVE",
"294 272 OFFCURVE",
"229 272 CURVE SMOOTH",
"164 272 OFFCURVE",
"119 216 OFFCURVE",
"114 158 CURVE SMOOTH",
"109 99 OFFCURVE",
"146 46 OFFCURVE",
"209 46 CURVE SMOOTH"
);
}
);
width = 416;
}
);
unicode = 003A;
},
{
glyphname = hyphen;
lastChange = "2020-02-19 16:24:59 +0000";
layers = (
{
layerId = "AD226DB4-BE97-401A-8A1F-FC26A063DFB1";
paths = (
{
closed = 1;
nodes = (
"573 529 LINE",
"581 589 LINE",
"108 589 LINE",
"101 529 LINE"
);
}
);
width = 580;
},
{
layerId = "2146CDF3-509B-498B-BCC4-8BA41979C9D7";
paths = (
{
closed = 1;
nodes = (
"672 483 LINE",
"699 773 LINE",
"174 773 LINE",
"147 483 LINE"
);
}
);
width = 725;
},
{
layerId = "3D647E92-BB94-42FD-9C12-A678B6C1687F";
paths = (
{
closed = 1;
nodes = (
"606 514 LINE",
"620 650 LINE",
"130 650 LINE",
"116 514 LINE"
);
}
);
width = 627.91304;
}
);
unicode = 002D;
},
{
glyphname = endash;
lastChange = "2020-02-19 16:24:59 +0000";
layers = (
{
layerId = "AD226DB4-BE97-401A-8A1F-FC26A063DFB1";
paths = (
{
closed = 1;
nodes = (
"704 529 LINE",
"712 589 LINE",
"153 589 LINE",
"150 529 LINE"
);
}
);
width = 756;
},
{
layerId = "2146CDF3-509B-498B-BCC4-8BA41979C9D7";
paths = (
{
closed = 1;
nodes = (
"1000 483 LINE",
"1027 773 LINE",
"173 773 LINE",
"144 483 LINE"
);
}
);
width = 1052;
},
{
layerId = "3D647E92-BB94-42FD-9C12-A678B6C1687F";
paths = (
{
closed = 1;
nodes = (
"802 514 LINE",
"816 650 LINE",
"160 650 LINE",
"148 514 LINE"
);
}
);
width = 853.8087;
}
);
unicode = 2013;
},
{
glyphname = emdash;
lastChange = "2020-02-19 16:24:59 +0000";
layers = (
{
layerId = "AD226DB4-BE97-401A-8A1F-FC26A063DFB1";
paths = (
{
closed = 1;
nodes = (
"1173 529 LINE",
"1177 589 LINE",
"153 589 LINE",
"150 529 LINE"
);
}
);
width = 1223;
},
{
layerId = "2146CDF3-509B-498B-BCC4-8BA41979C9D7";
paths = (
{
closed = 1;
nodes = (
"1423 483 LINE",
"1453 773 LINE",
"173 773 LINE",
"144 483 LINE"
);
}
);
width = 1473;
},
{
layerId = "3D647E92-BB94-42FD-9C12-A678B6C1687F";
paths = (
{
closed = 1;
nodes = (
"1256 514 LINE",
"1268 650 LINE",
"160 650 LINE",
"148 514 LINE"
);
}
);
width = 1305.6087;
}
);
unicode = 2014;
},
{
glyphname = exclam;
lastChange = "2020-02-19 16:24:59 +0000";
layers = (
{
layerId = "AD226DB4-BE97-401A-8A1F-FC26A063DFB1";
paths = (
{
closed = 1;
nodes = (
"281 259 LINE",
"372 1174 LINE",
"316 1174 LINE",
"237 259 LINE"
);
},
{
closed = 1;
nodes = (
"265 -18 OFFCURVE",
"292 9 OFFCURVE",
"296 44 CURVE SMOOTH",
"300 80 OFFCURVE",
"278 110 OFFCURVE",
"243 110 CURVE SMOOTH",
"206 110 OFFCURVE",
"178 76 OFFCURVE",
"176 44 CURVE SMOOTH",
"174 15 OFFCURVE",
"197 -18 OFFCURVE",
"233 -18 CURVE SMOOTH"
);
}
);
width = 470;
},
{
layerId = "2146CDF3-509B-498B-BCC4-8BA41979C9D7";
paths = (
{
closed = 1;
nodes = (
"472 541 LINE",
"589 1417 LINE",
"256 1417 LINE",
"210 541 LINE"
);
},
{
closed = 1;
nodes = (
"411 -18 OFFCURVE",
"502 80 OFFCURVE",
"513 195 CURVE SMOOTH",
"525 312 OFFCURVE",
"449 406 OFFCURVE",
"328 406 CURVE SMOOTH",
"210 406 OFFCURVE",
"121 316 OFFCURVE",
"110 195 CURVE SMOOTH",
"99 75 OFFCURVE",
"169 -18 OFFCURVE",
"288 -18 CURVE SMOOTH"
);
}
);
width = 562;
},
{
layerId = "3D647E92-BB94-42FD-9C12-A678B6C1687F";
paths = (
{
closed = 1;
nodes = (
"344 352 LINE",
"444 1254 LINE",
"296 1254 LINE",
"228 352 LINE"
);
},
{
closed = 1;
nodes = (
"313 -18 OFFCURVE",
"361 32 OFFCURVE",
"368 94 CURVE SMOOTH",
"374 157 OFFCURVE",
"335 208 OFFCURVE",
"271 208 CURVE SMOOTH",
"207 208 OFFCURVE",
"159 155 OFFCURVE",
"154 94 CURVE SMOOTH",
"149 35 OFFCURVE",
"188 -18 OFFCURVE",
"251 -18 CURVE SMOOTH"
);
}
);
width = 500.4;
}
);
unicode = 0021;
},
{
glyphname = a;
lastChange = "2020-10-22 18:07:27 +0000";
layers = (
{
anchors = (
{
name = bottom;
position = "{414, 0}";
},
{
name = ogonek;
position = "{775, 25}";
},
{
name = top;
position = "{546, 939}";
}
);
layerId = "AD226DB4-BE97-401A-8A1F-FC26A063DFB1";
paths = (
{
closed = 1;
nodes = (
"549 -15 OFFCURVE",
"686 48 OFFCURVE",
"749 190 CURVE",
"747 126 OFFCURVE",
"743 65 OFFCURVE",
"741 0 CURVE",
"795 0 LINE",
"853 614 LINE SMOOTH",
"877 867 OFFCURVE",
"760 960 OFFCURVE",
"584 960 CURVE SMOOTH",
"444 960 OFFCURVE",
"276 901 OFFCURVE",
"259 701 CURVE",
"336 701 LINE",
"346 849 OFFCURVE",
"463 901 OFFCURVE",
"583 901 CURVE SMOOTH",
"729 901 OFFCURVE",
"813 824 OFFCURVE",
"792 613 CURVE SMOOTH",
"777 463 LINE",
"700 508 OFFCURVE",
"601 530 OFFCURVE",
"519 530 CURVE SMOOTH",
"364 530 OFFCURVE",
"205 452 OFFCURVE",
"182 251 CURVE SMOOTH",
"169 124 OFFCURVE",
"249 -15 OFFCURVE",
"428 -15 CURVE SMOOTH"
);
},
{
closed = 1;
nodes = (
"281 44 OFFCURVE",
"239 137 OFFCURVE",
"250 251 CURVE SMOOTH",
"266 414 OFFCURVE",
"375 466 OFFCURVE",
"511 466 CURVE SMOOTH",
"592 466 OFFCURVE",
"680 448 OFFCURVE",
"772 418 CURVE",
"783 181 OFFCURVE",
"586 44 OFFCURVE",
"419 44 CURVE SMOOTH"
);
}
);
width = 960;
},
{
anchors = (
{
name = bottom;
position = "{483, 0}";
},
{
name = ogonek;
position = "{836, 5}";
},
{
name = top;
position = "{623, 991}";
}
);
layerId = "2146CDF3-509B-498B-BCC4-8BA41979C9D7";
paths = (
{
closed = 1;
nodes = (
"579 -35 OFFCURVE",
"632 14 OFFCURVE",
"703 99 CURVE",
"708 66 OFFCURVE",
"710 32 OFFCURVE",
"714 0 CURVE",
"973 0 LINE",
"1031 620 LINE SMOOTH",
"1055 880 OFFCURVE",
"927 1020 OFFCURVE",
"627 1020 CURVE SMOOTH",
"366 1020 OFFCURVE",
"182 914 OFFCURVE",
"160 674 CURVE",
"481 674 LINE",
"491 731 OFFCURVE",
"533 783 OFFCURVE",
"627 783 CURVE SMOOTH",
"726 783 OFFCURVE",
"742 726 OFFCURVE",
"732 633 CURVE SMOOTH",
"725 568 LINE",
"654 577 OFFCURVE",
"591 590 OFFCURVE",
"503 590 CURVE SMOOTH",
"247 590 OFFCURVE",
"103 480 OFFCURVE",
"91 303 CURVE",
"71 117 OFFCURVE",
"195 -35 OFFCURVE",
"440 -35 CURVE SMOOTH"
);
},
{
closed = 1;
nodes = (
"473 214 OFFCURVE",
"405 248 OFFCURVE",
"408 303 CURVE SMOOTH",
"411 354 OFFCURVE",
"474 381 OFFCURVE",
"549 381 CURVE SMOOTH",
"599 381 OFFCURVE",
"667 369 OFFCURVE",
"706 358 CURVE",
"677 286 OFFCURVE",
"641 214 OFFCURVE",
"541 214 CURVE SMOOTH"
);
}
);
width = 1105;
},
{
anchors = (
{
name = bottom;
position = "{437, 0}";
},
{
name = ogonek;
position = "{795, 18}";
},
{
name = top;
position = "{571, 956}";
}
);
layerId = "3D647E92-BB94-42FD-9C12-A678B6C1687F";
paths = (
{
closed = 1;
nodes = (
"559 -22 OFFCURVE",
"668 37 OFFCURVE",
"734 160 CURVE",
"734 106 OFFCURVE",
"732 54 OFFCURVE",
"732 0 CURVE",
"854 0 LINE",
"912 616 LINE SMOOTH",
"936 871 OFFCURVE",
"815 980 OFFCURVE",
"598 980 CURVE SMOOTH",
"418 980 OFFCURVE",
"245 905 OFFCURVE",
"226 692 CURVE",
"384 692 LINE",
"394 810 OFFCURVE",
"486 862 OFFCURVE",
"598 862 CURVE SMOOTH",
"728.009 862.009 OFFCURVE",
"790 792 OFFCURVE",
"772 620 CURVE SMOOTH",
"760 498 LINE",
"685 531 OFFCURVE",
"598 550 OFFCURVE",
"514 550 CURVE SMOOTH",
"325 550 OFFCURVE",
"171 461 OFFCURVE",
"152 268 CURVE SMOOTH",
"137 122 OFFCURVE",
"231 -22 OFFCURVE",
"432 -22 CURVE SMOOTH"
);
},
{
closed = 1;
nodes = (
"344 100 OFFCURVE",
"294 174 OFFCURVE",
"302 268 CURVE SMOOTH",
"314 394 OFFCURVE",
"408 438 OFFCURVE",
"524 438 CURVE SMOOTH",
"594 438 OFFCURVE",
"676 422 OFFCURVE",
"750 398 CURVE",
"748 216 OFFCURVE",
"604 100 OFFCURVE",
"459 100 CURVE SMOOTH"
);
}
);
width = 1007.91304;
}
);
unicode = 0061;
},
{
glyphname = b;
lastChange = "2020-02-19 16:24:59 +0000";
layers = (
{
anchors = (
{
name = bottom;
position = "{431, 0}";
},
{
name = top;
position = "{689, 1834}";
}
);
layerId = "AD226DB4-BE97-401A-8A1F-FC26A063DFB1";
paths = (
{
closed = 1;
nodes = (
"820 -15 OFFCURVE",
"954 313 OFFCURVE",
"954 549 CURVE SMOOTH",
"954 799 OFFCURVE",
"803 960 OFFCURVE",
"624 960 CURVE SMOOTH",
"505 960 OFFCURVE",
"396 888 OFFCURVE",
"331 771 CURVE",
"389 1351 LINE",
"325 1351 LINE",
"197 0 LINE",
"252 0 LINE",
"280 168 LINE",
"322 47 OFFCURVE",
"416 -15 OFFCURVE",
"538 -15 CURVE SMOOTH"
);
},
{
closed = 1;
nodes = (
"352 44 OFFCURVE",
"273 213 OFFCURVE",
"299 434 CURVE SMOOTH",
"305 499 LINE SMOOTH",
"330 754 OFFCURVE",
"463 899 OFFCURVE",
"620 899 CURVE SMOOTH",
"768 899 OFFCURVE",
"884 769 OFFCURVE",
"884 551 CURVE SMOOTH",
"884 351 OFFCURVE",
"787 44 OFFCURVE",
"537 44 CURVE SMOOTH"
);
}
);
width = 993;
},
{
anchors = (
{
name = bottom;
position = "{516, 0}";
},
{
name = top;
position = "{774, 1834}";
}
);
layerId = "2146CDF3-509B-498B-BCC4-8BA41979C9D7";
paths = (
{
closed = 1;
nodes = (
"971 -35 OFFCURVE",
"1124 321 OFFCURVE",
"1124 572 CURVE SMOOTH",
"1124 847 OFFCURVE",
"987 1020 OFFCURVE",
"780 1020 CURVE SMOOTH",
"677 1020 OFFCURVE",
"597 978 OFFCURVE",
"534 896 CURVE",
"580 1384 LINE",
"279 1384 LINE",
"151 0 LINE",
"337 0 LINE",
"425 168 LINE",
"464 32 OFFCURVE",
"552 -35 OFFCURVE",
"652 -35 CURVE SMOOTH"
);
},
{
closed = 1;
nodes = (
"573 268 OFFCURVE",
"485 330 OFFCURVE",
"490 428 CURVE SMOOTH",
"505 611 LINE SMOOTH",
"510 680 OFFCURVE",
"608 721 OFFCURVE",
"677 721 CURVE SMOOTH",
"768 721 OFFCURVE",
"824 643 OFFCURVE",
"824 532 CURVE SMOOTH",
"824 397 OFFCURVE",
"755 268 OFFCURVE",
"635 268 CURVE SMOOTH"
);
}
);
width = 1171;
},
{
anchors = (
{
name = bottom;
position = "{459, 0}";
},
{
name = top;
position = "{717, 1834}";
}
);
layerId = "3D647E92-BB94-42FD-9C12-A678B6C1687F";
paths = (
{
closed = 1;
nodes = (
"870 -22 OFFCURVE",
"1010 316 OFFCURVE",
"1010 557 CURVE SMOOTH",
"1010 815 OFFCURVE",
"864 980 OFFCURVE",
"676 980 CURVE SMOOTH",
"562 980 OFFCURVE",
"462 918 OFFCURVE",
"398 812 CURVE",
"452 1362 LINE",
"310 1362 LINE",
"182 0 LINE",
"280 0 LINE",
"328 168 LINE",
"369 42 OFFCURVE",
"461 -22 OFFCURVE",
"576 -22 CURVE SMOOTH"
);
},
{
closed = 1;
nodes = (
"425 118 OFFCURVE",
"343 252 OFFCURVE",
"362 432 CURVE SMOOTH",
"371 536 LINE SMOOTH",
"389 730 OFFCURVE",
"511 840 OFFCURVE",
"639 840 CURVE SMOOTH",
"768 840 OFFCURVE",
"864 727 OFFCURVE",
"864 545 CURVE SMOOTH",
"864 366 OFFCURVE",
"776 118 OFFCURVE",
"569 118 CURVE SMOOTH"
);
}
);
width = 1051.81739;
}
);
unicode = 0062;
},
{
glyphname = c;
lastChange = "2020-02-19 16:24:59 +0000";
layers = (
{
anchors = (
{
name = bottom;
position = "{528, 0}";
},
{
name = top;
position = "{574, 939}";
}
);
layerId = "AD226DB4-BE97-401A-8A1F-FC26A063DFB1";
paths = (
{
closed = 1;
nodes = (
"639 -15 OFFCURVE",
"801 104 OFFCURVE",
"815 296 CURVE",
"742 296 LINE",
"734 132 OFFCURVE",
"620 44 OFFCURVE",
"483 44 CURVE SMOOTH",
"284 44 OFFCURVE",
"189 230 OFFCURVE",
"211 473 CURVE SMOOTH",
"235 737 OFFCURVE",
"385 899 OFFCURVE",
"552 899 CURVE SMOOTH",
"665 899 OFFCURVE",
"757 825 OFFCURVE",
"785 688 CURVE",
"851 711 LINE",
"816 862 OFFCURVE",
"710 960 OFFCURVE",
"559 960 CURVE SMOOTH",
"354 960 OFFCURVE",
"168 778 OFFCURVE",
"139 473 CURVE SMOOTH",
"110 164 OFFCURVE",
"265 -15 OFFCURVE",
"471 -15 CURVE SMOOTH"
);
}
);
width = 896;
},
{
anchors = (
{
name = bottom;
position = "{562, 0}";
},
{
name = top;
position = "{624, 991}";
}
);
layerId = "2146CDF3-509B-498B-BCC4-8BA41979C9D7";
paths = (
{
closed = 1;
nodes = (
"784 -35 OFFCURVE",
"923 161 OFFCURVE",
"946 375 CURVE",
"651 375 LINE",
"640 315 OFFCURVE",
"618 268 OFFCURVE",
"532 268 CURVE SMOOTH",
"471 268 OFFCURVE",
"405 318 OFFCURVE",
"421 493 CURVE SMOOTH",
"438 671 OFFCURVE",
"517 721 OFFCURVE",
"581 721 CURVE SMOOTH",
"647 721 OFFCURVE",
"664 662 OFFCURVE",
"667 609 CURVE",
"969 606 LINE",
"986 791 OFFCURVE",
"878 1020 OFFCURVE",
"612 1020 CURVE SMOOTH",
"381 1020 OFFCURVE",
"155 838 OFFCURVE",
"125 493 CURVE SMOOTH",
"94 178 OFFCURVE",
"283 -35 OFFCURVE",
"510 -35 CURVE SMOOTH"
);
}
);
width = 988;
},
{
anchors = (
{
name = bottom;
position = "{539, 0}";
},
{
name = top;
position = "{591, 956}";
}
);
layerId = "3D647E92-BB94-42FD-9C12-A678B6C1687F";
paths = (
{
closed = 1;
nodes = (
"687 -22 OFFCURVE",
"841 123 OFFCURVE",
"858 322 CURVE",
"712 322 LINE",
"703 192 OFFCURVE",
"619 118 OFFCURVE",
"499 118 CURVE SMOOTH",
"346 118 OFFCURVE",
"260 259 OFFCURVE",
"280 480 CURVE SMOOTH",
"302 715 OFFCURVE",
"429 840 OFFCURVE",
"562 840 CURVE SMOOTH",
"659 840 OFFCURVE",
"726 771 OFFCURVE",
"746 662 CURVE",
"890 676 LINE",
"872 839 OFFCURVE",
"766 980 OFFCURVE",
"577 980 CURVE SMOOTH",
"363 980 OFFCURVE",
"164 798 OFFCURVE",
"134 480 CURVE SMOOTH",
"105 169 OFFCURVE",
"271 -22 OFFCURVE",
"484 -22 CURVE SMOOTH"
);
}
);
width = 926.4;
}
);
unicode = 0063;
},
{
glyphname = d;
lastChange = "2020-10-22 18:07:00 +0000";
layers = (
{
anchors = (
{
name = bottom;
position = "{450, 0}";
},
{
name = center;
position = "{516, 470}";
},
{
name = top;
position = "{598, 1165}";
},
{
name = topright;
position = "{1077, 939}";
}
);
layerId = "AD226DB4-BE97-401A-8A1F-FC26A063DFB1";
paths = (
{
closed = 1;
nodes = (
"608 -15 OFFCURVE",
"715 49 OFFCURVE",
"781 167 CURVE",
"777 0 LINE",
"830 0 LINE",
"955 1351 LINE",
"892 1351 LINE",
"837 777 LINE",
"790 894 OFFCURVE",
"703 960 OFFCURVE",
"576 960 CURVE SMOOTH",
"281 960 OFFCURVE",
"165 603 OFFCURVE",
"165 387 CURVE SMOOTH",
"165 147 OFFCURVE",
"307 -15 OFFCURVE",
"492 -15 CURVE SMOOTH"
);
},
{
closed = 1;
nodes = (
"353 44 OFFCURVE",
"240 178 OFFCURVE",
"240 394 CURVE SMOOTH",
"240 580 OFFCURVE",
"324 899 OFFCURVE",
"570 899 CURVE SMOOTH",
"692 899 OFFCURVE",
"826 821 OFFCURVE",
"826 652 CURVE SMOOTH",
"826 637 OFFCURVE",
"825 642 OFFCURVE",
"824 629 CURVE SMOOTH",
"800 351 LINE SMOOTH",
"782 149 OFFCURVE",
"627 44 OFFCURVE",
"498 44 CURVE SMOOTH"
);
}
);
width = 1031;
},
{
anchors = (
{
name = bottom;
position = "{505, 0}";
},
{
name = center;
position = "{575, 496}";
},
{
name = top;
position = "{643, 1151}";
},
{
name = topright;
position = "{1199, 991}";
}
);
layerId = "2146CDF3-509B-498B-BCC4-8BA41979C9D7";
paths = (
{
closed = 1;
nodes = (
"576 -35 OFFCURVE",
"669 22 OFFCURVE",
"735 147 CURVE",
"757 0 LINE",
"1000 0 LINE",
"1133 1384 LINE",
"832 1384 LINE",
"785 895 LINE",
"739 979 OFFCURVE",
"665 1020 OFFCURVE",
"562 1020 CURVE SMOOTH",
"320 1020 OFFCURVE",
"113 785 OFFCURVE",
"113 434 CURVE SMOOTH",
"113 151 OFFCURVE",
"268 -35 OFFCURVE",
"483 -35 CURVE SMOOTH"
);
},
{
closed = 1;
nodes = (
"465 268 OFFCURVE",
"410 349 OFFCURVE",
"410 469 CURVE SMOOTH",
"410 603 OFFCURVE",
"482 721 OFFCURVE",
"613 721 CURVE SMOOTH",
"698 721 OFFCURVE",
"748 647 OFFCURVE",
"747 532 CURVE SMOOTH",
"747 524 OFFCURVE",
"748 510 OFFCURVE",
"745 498 CURVE SMOOTH",
"740 469 LINE",
"729 352 OFFCURVE",
"637 268 OFFCURVE",
"562 268 CURVE SMOOTH"
);
}
);
width = 1149;
},
{
anchors = (
{
name = bottom;
position = "{468, 0}";
},
{
name = center;
position = "{535, 479}";
},
{
name = top;
position = "{613, 1160}";
},
{
name = topright;
position = "{1117, 956}";
}
);
layerId = "3D647E92-BB94-42FD-9C12-A678B6C1687F";
paths = (
{
closed = 1;
nodes = (
"597 -22 OFFCURVE",
"700 40 OFFCURVE",
"766 160 CURVE",
"770 0 LINE",
"886 0 LINE",
"1014 1362 LINE",
"872 1362 LINE",
"820 816 LINE",
"773 922 OFFCURVE",
"690 980 OFFCURVE",
"571 980 CURVE SMOOTH",
"294 980 OFFCURVE",
"148 663 OFFCURVE",
"148 403 CURVE SMOOTH",
"148 148 OFFCURVE",
"294 -22 OFFCURVE",
"489 -22 CURVE SMOOTH"
);
},
{
closed = 1;
nodes = (
"390 118 OFFCURVE",
"296 235 OFFCURVE",
"296 419 CURVE SMOOTH",
"296 588 OFFCURVE",
"376 840 OFFCURVE",
"584 840 CURVE SMOOTH",
"694 840 OFFCURVE",
"800 764 OFFCURVE",
"800 612 CURVE SMOOTH",
"800 600 OFFCURVE",
"800 598 OFFCURVE",
"798 586 CURVE SMOOTH",
"780 390 LINE SMOOTH",
"764 216 OFFCURVE",
"630 118 OFFCURVE",
"519 118 CURVE SMOOTH"
);
}
);
width = 1069.9913;
}
);
unicode = 0064;
},
{
glyphname = e;
lastChange = "2020-10-22 18:07:00 +0000";
layers = (
{
anchors = (
{
name = bottom;
position = "{502, 0}";
},
{
name = ogonek;
position = "{465, 11}";
},
{
name = top;
position = "{514, 939}";
}
);
layerId = "AD226DB4-BE97-401A-8A1F-FC26A063DFB1";
paths = (
{
closed = 1;
nodes = (
"622 -15 OFFCURVE",
"764 72 OFFCURVE",
"813 269 CURVE",
"741 269 LINE",
"710 124 OFFCURVE",
"609 45 OFFCURVE",
"470 45 CURVE SMOOTH",
"250 45 OFFCURVE",
"183 244 OFFCURVE",
"209 490 CURVE",
"160 462 LINE",
"821 462 LINE",
"833 518 OFFCURVE",
"839 583 OFFCURVE",
"839 630 CURVE SMOOTH",
"839 824 OFFCURVE",
"738 960 OFFCURVE",
"550 960 CURVE SMOOTH",
"329 960 OFFCURVE",
"168 773 OFFCURVE",
"138 465 CURVE SMOOTH",
"108 155 OFFCURVE",
"236 -15 OFFCURVE",
"461 -15 CURVE SMOOTH"
);
},
{
closed = 1;
nodes = (
"236 709 OFFCURVE",
"347 902 OFFCURVE",
"550 902 CURVE SMOOTH",
"749 902 OFFCURVE",
"794 717 OFFCURVE",
"766 509 CURVE",
"815 514 LINE",
"172 514 LINE",
"207 502 LINE"
);
}
);
width = 896;
},
{
anchors = (
{
name = bottom;
position = "{563, 0}";
},
{
name = ogonek;
position = "{526, 10}";
},
{
name = top;
position = "{564, 991}";
}
);
layerId = "2146CDF3-509B-498B-BCC4-8BA41979C9D7";
paths = (
{
closed = 1;
nodes = (
"730 -35 OFFCURVE",
"896 118 OFFCURVE",
"938 302 CURVE",
"642 302 LINE",
"622 251 OFFCURVE",
"579 229 OFFCURVE",
"535 229 CURVE SMOOTH",
"433 229 OFFCURVE",
"388 318 OFFCURVE",
"412 451 CURVE",
"363 409 LINE",
"946 409 LINE",
"951 433 OFFCURVE",
"957 450 OFFCURVE",
"964 478 CURVE",
"1000 745 OFFCURVE",
"902 1020 OFFCURVE",
"610 1020 CURVE SMOOTH",
"381 1020 OFFCURVE",
"155 825 OFFCURVE",
"125 498 CURVE SMOOTH",
"95 188 OFFCURVE",
"283 -35 OFFCURVE",
"511 -35 CURVE SMOOTH"
);
},
{
closed = 1;
nodes = (
"433 684 OFFCURVE",
"498 757 OFFCURVE",
"586 757 CURVE SMOOTH",
"696 757 OFFCURVE",
"708 653 OFFCURVE",
"694 564 CURVE",
"743 607 LINE",
"382 607 LINE",
"424 564 LINE"
);
}
);
width = 988;
},
{
anchors = (
{
name = bottom;
position = "{522, 0}";
},
{
name = ogonek;
position = "{485, 11}";
},
{
name = top;
position = "{531, 956}";
}
);
layerId = "3D647E92-BB94-42FD-9C12-A678B6C1687F";
paths = (
{
closed = 1;
nodes = (
"658 -22 OFFCURVE",
"808 87 OFFCURVE",
"854 280 CURVE",
"708 280 LINE",
"681 166 OFFCURVE",
"599 106 OFFCURVE",
"491 106 CURVE SMOOTH",
"310 106 OFFCURVE",
"251 268 OFFCURVE",
"276 477 CURVE",
"227 444 LINE",
"862 444 LINE",
"872 490 OFFCURVE",
"878 539 OFFCURVE",
"880 580 CURVE SMOOTH",
"892 798 OFFCURVE",
"792 980 OFFCURVE",
"570 980 CURVE SMOOTH",
"346 980 OFFCURVE",
"164 790 OFFCURVE",
"134 476 CURVE SMOOTH",
"104 166 OFFCURVE",
"252 -22 OFFCURVE",
"478 -22 CURVE SMOOTH"
);
},
{
closed = 1;
nodes = (
"301 701 OFFCURVE",
"397 854 OFFCURVE",
"562 854 CURVE SMOOTH",
"731 854 OFFCURVE",
"766 696 OFFCURVE",
"742 527 CURVE",
"791 545 LINE",
"241 545 LINE",
"279 522 LINE"
);
}
);
width = 926.4;
}
);
unicode = 0065;
},
{
glyphname = f;
lastChange = "2020-10-22 18:07:00 +0000";
layers = (
{
anchors = (
{
name = bottom;
position = "{222, 0}";
},
{
name = top;
position = "{480, 1834}";
}
);
layerId = "AD226DB4-BE97-401A-8A1F-FC26A063DFB1";
paths = (
{
closed = 1;
nodes = (
"341 885 LINE",
"260 0 LINE",
"320 0 LINE",
"407 885 LINE",
"602 885 LINE",
"605 939 LINE",
"410 939 LINE",
"428 1117 LINE SMOOTH",
"444 1276 OFFCURVE",
"521 1310 OFFCURVE",
"587 1310 CURVE SMOOTH",
"626 1310 OFFCURVE",
"669 1298 OFFCURVE",
"707 1278 CURVE",
"724 1339 LINE",
"682 1361 OFFCURVE",
"646 1367 OFFCURVE",
"610 1367 CURVE SMOOTH",
"482 1367 OFFCURVE",
"378 1291 OFFCURVE",
"362 1119 CURVE SMOOTH",
"346 939 LINE",
"193 939 LINE",
"190 885 LINE"
);
}
);
width = 575;
},
{
anchors = (
{
name = bottom;
position = "{283, 0}";
},
{
name = top;
position = "{541, 1834}";
}
);
layerId = "2146CDF3-509B-498B-BCC4-8BA41979C9D7";
paths = (
{
closed = 1;
nodes = (
"242 773 LINE",
"169 0 LINE",
"471 0 LINE",
"538 773 LINE",
"681 773 LINE",
"704 991 LINE",
"561 991 LINE",
"567 1065 LINE SMOOTH",
"574 1115 OFFCURVE",
"610 1140 OFFCURVE",
"651 1140 CURVE SMOOTH",
"677 1140 OFFCURVE",
"702 1134 OFFCURVE",
"727 1127 CURVE",
"809 1378 LINE",
"742 1388 OFFCURVE",
"661 1400 OFFCURVE",
"592 1400 CURVE SMOOTH",
"443 1400 OFFCURVE",
"293 1304 OFFCURVE",
"271 1067 CURVE",
"261 991 LINE",
"147 991 LINE",
"124 773 LINE"
);
}
);
width = 706;
},
{
anchors = (
{
name = bottom;
position = "{242, 0}";
},
{
name = top;
position = "{500, 1834}";
}
);
layerId = "3D647E92-BB94-42FD-9C12-A678B6C1687F";
paths = (
{
closed = 1;
nodes = (
"308 848 LINE",
"230 0 LINE",
"370 0 LINE",
"450 848 LINE",
"628 848 LINE",
"638 956 LINE",
"460 956 LINE",
"474 1100 LINE SMOOTH",
"487 1223 OFFCURVE",
"550 1254 OFFCURVE",
"608 1254 CURVE SMOOTH",
"643 1254 OFFCURVE",
"680 1244 OFFCURVE",
"714 1228 CURVE",
"752 1352 LINE",
"702 1370 OFFCURVE",
"651 1378 OFFCURVE",
"604 1378 CURVE SMOOTH",
"469 1378 OFFCURVE",
"350 1295 OFFCURVE",
"332 1102 CURVE SMOOTH",
"318 956 LINE",
"178 956 LINE",
"168 848 LINE"
);
}
);
width = 618.28696;
}
);
unicode = 0066;
},
{
glyphname = g;
lastChange = "2020-10-22 18:07:07 +0000";
layers = (
{
anchors = (
{
name = bottom;
position = "{354, -504}";
},
{
name = top;
position = "{637, 939}";
}
);
layerId = "AD226DB4-BE97-401A-8A1F-FC26A063DFB1";
paths = (
{
closed = 1;
nodes = (
"728 -481 OFFCURVE",
"940 -311 OFFCURVE",
"952 -138 CURVE SMOOTH",
"960 -25 OFFCURVE",
"881 61 OFFCURVE",
"747 61 CURVE SMOOTH",
"369 61 LINE SMOOTH",
"224 61 OFFCURVE",
"190 113 OFFCURVE",
"200 184 CURVE SMOOTH",
"211 264 OFFCURVE",
"267 314 OFFCURVE",
"328 322 CURVE",
"378 281 OFFCURVE",
"447 258 OFFCURVE",
"521 258 CURVE SMOOTH",
"711 258 OFFCURVE",
"861 408 OFFCURVE",
"881 615 CURVE SMOOTH",
"889 699 OFFCURVE",
"873 769 OFFCURVE",
"841 825 CURVE",
"860 953 OFFCURVE",
"924 1006 OFFCURVE",
"1028 1006 CURVE",
"1056 1086 LINE",
"912 1086 OFFCURVE",
"842 998 OFFCURVE",
"812 873 CURVE",
"762 930 OFFCURVE",
"685 960 OFFCURVE",
"596 960 CURVE SMOOTH",
"405 960 OFFCURVE",
"264 820 OFFCURVE",
"244 615 CURVE SMOOTH",
"234 511 OFFCURVE",
"258 422 OFFCURVE",
"305 360 CURVE",
"221 343 OFFCURVE",
"145 281 OFFCURVE",
"137 185 CURVE SMOOTH",
"131 117 OFFCURVE",
"161 55 OFFCURVE",
"231 23 CURVE",
"126 -16 OFFCURVE",
"62 -95 OFFCURVE",
"56 -199 CURVE SMOOTH",
"46 -359 OFFCURVE",
"180 -481 OFFCURVE",
"431 -481 CURVE SMOOTH"
);
},
{
closed = 1;
nodes = (
"206 -422 OFFCURVE",
"116 -318 OFFCURVE",
"122 -200 CURVE SMOOTH",
"128 -89 OFFCURVE",
"219 3 OFFCURVE",
"348 3 CURVE SMOOTH",
"743 3 LINE SMOOTH",
"847 3 OFFCURVE",
"890 -66 OFFCURVE",
"884 -142 CURVE SMOOTH",
"872 -292 OFFCURVE",
"672 -422 OFFCURVE",
"426 -422 CURVE SMOOTH"
);
},
{
closed = 1;
nodes = (
"382 316 OFFCURVE",
"290 445 OFFCURVE",
"307 615 CURVE SMOOTH",
"324 785 OFFCURVE",
"438 901 OFFCURVE",
"590 901 CURVE SMOOTH",
"744 901 OFFCURVE",
"837 782 OFFCURVE",
"821 615 CURVE SMOOTH",
"805 444 OFFCURVE",
"684 316 OFFCURVE",
"533 316 CURVE SMOOTH"
);
}
);
width = 981;
},
{
anchors = (
{
name = bottom;
position = "{403, -504}";
},
{
name = top;
position = "{613, 991}";
}
);
layerId = "2146CDF3-509B-498B-BCC4-8BA41979C9D7";
paths = (
{
closed = 1;
nodes = (
"796 -514 OFFCURVE",
"1010 -289 OFFCURVE",
"1031 -59 CURVE SMOOTH",
"1048 127 OFFCURVE",
"926 192 OFFCURVE",
"714 192 CURVE SMOOTH",
"468 192 LINE SMOOTH",
"394 192 OFFCURVE",
"360 218 OFFCURVE",
"364 263 CURVE SMOOTH",
"367 298 OFFCURVE",
"392 320 OFFCURVE",
"419 335 CURVE",
"463 327 OFFCURVE",
"509 324 OFFCURVE",
"543 324 CURVE SMOOTH",
"771 324 OFFCURVE",
"975 457 OFFCURVE",
"993 667 CURVE SMOOTH",
"1000 746 OFFCURVE",
"978 815 OFFCURVE",
"940 871 CURVE",
"945 920 OFFCURVE",
"1003 946 OFFCURVE",
"1100 946 CURVE",
"1135 1256 LINE",
"1003 1256 OFFCURVE",
"848 1149 OFFCURVE",
"818 978 CURVE",
"756 1002 OFFCURVE",
"688 1020 OFFCURVE",
"611 1020 CURVE SMOOTH",
"402 1020 OFFCURVE",
"193 886 OFFCURVE",
"172 667 CURVE SMOOTH",
"162 563 OFFCURVE",
"198 482 OFFCURVE",
"266 420 CURVE",
"174 389 OFFCURVE",
"117 317 OFFCURVE",
"110 231 CURVE SMOOTH",
"104 157 OFFCURVE",
"137 98 OFFCURVE",
"198 43 CURVE",
"89 39 OFFCURVE",
"-5 -42 OFFCURVE",
"-20 -160 CURVE SMOOTH",
"-45 -357 OFFCURVE",
"165 -514 OFFCURVE",
"452 -514 CURVE SMOOTH"
);
},
{
closed = 1;
nodes = (
"373 -252 OFFCURVE",
"273 -223 OFFCURVE",
"277 -140 CURVE SMOOTH",
"280 -80 OFFCURVE",
"338 -36 OFFCURVE",
"433 -36 CURVE SMOOTH",
"691 -36 LINE SMOOTH",
"716 -36 OFFCURVE",
"738 -40 OFFCURVE",
"735 -82 CURVE SMOOTH",
"730 -159 OFFCURVE",
"649 -252 OFFCURVE",
"472 -252 CURVE SMOOTH"
);
},
{
closed = 1;
nodes = (
"485 552 OFFCURVE",
"462 603 OFFCURVE",
"466 667 CURVE SMOOTH",
"470 740 OFFCURVE",
"508 796 OFFCURVE",
"596 796 CURVE SMOOTH",
"675 796 OFFCURVE",
"703 750 OFFCURVE",
"696 667 CURVE SMOOTH",
"691 606 OFFCURVE",
"669 552 OFFCURVE",
"576 552 CURVE SMOOTH"
);
}
);
width = 1086;
},
{
anchors = (
{
name = bottom;
position = "{370, -504}";
},
{
name = top;
position = "{629, 956}";
}
);
layerId = "3D647E92-BB94-42FD-9C12-A678B6C1687F";
paths = (
{
closed = 1;
nodes = (
"750 -492 OFFCURVE",
"963 -304 OFFCURVE",
"978 -112 CURVE SMOOTH",
"989 25 OFFCURVE",
"896 104 OFFCURVE",
"736 104 CURVE SMOOTH",
"402 104 LINE SMOOTH",
"280 104 OFFCURVE",
"246 148 OFFCURVE",
"254 210 CURVE SMOOTH",
"263 275 OFFCURVE",
"308 316 OFFCURVE",
"358 326 CURVE",
"406 296 OFFCURVE",
"467 280 OFFCURVE",
"528 280 CURVE SMOOTH",
"731 280 OFFCURVE",
"899 424 OFFCURVE",
"918 632 CURVE SMOOTH",
"926 715 OFFCURVE",
"908 784 OFFCURVE",
"874 840 CURVE",
"888 942 OFFCURVE",
"950 986 OFFCURVE",
"1052 986 CURVE",
"1082 1142 LINE",
"942 1142 OFFCURVE",
"844 1048 OFFCURVE",
"814 908 CURVE",
"760 954 OFFCURVE",
"686 980 OFFCURVE",
"601 980 CURVE SMOOTH",
"404 980 OFFCURVE",
"241 842 OFFCURVE",
"220 632 CURVE SMOOTH",
"210 528 OFFCURVE",
"238 442 OFFCURVE",
"292 380 CURVE",
"205 358 OFFCURVE",
"136 293 OFFCURVE",
"128 200 CURVE SMOOTH",
"122 130 OFFCURVE",
"153 69 OFFCURVE",
"220 30 CURVE",
"114 2 OFFCURVE",
"40 -77 OFFCURVE",
"31 -186 CURVE SMOOTH",
"16 -358 OFFCURVE",
"175 -492 OFFCURVE",
"438 -492 CURVE SMOOTH"
);
},
{
closed = 1;
nodes = (
"261 -366 OFFCURVE",
"168 -287 OFFCURVE",
"173 -180 CURVE SMOOTH",
"178 -86 OFFCURVE",
"258 -10 OFFCURVE",
"376 -10 CURVE SMOOTH",
"726 -10 LINE SMOOTH",
"804 -10 OFFCURVE",
"840 -57 OFFCURVE",
"835 -122 CURVE SMOOTH",
"825 -248 OFFCURVE",
"664 -366 OFFCURVE",
"441 -366 CURVE SMOOTH"
);
},
{
closed = 1;
nodes = (
"416 394 OFFCURVE",
"347 497 OFFCURVE",
"360 632 CURVE SMOOTH",
"372 770 OFFCURVE",
"461 866 OFFCURVE",
"592 866 CURVE SMOOTH",
"721 866 OFFCURVE",
"793 771 OFFCURVE",
"780 632 CURVE SMOOTH",
"767 498 OFFCURVE",
"679 394 OFFCURVE",
"547 394 CURVE SMOOTH"
);
}
);
width = 1016;
}
);
unicode = 0067;
},
{
glyphname = h;
lastChange = "2020-10-22 18:07:07 +0000";
layers = (
{
anchors = (
{
name = bottom;
position = "{460, 0}";
},
{
name = center;
position = "{589, 917}";
},
{
name = top;
position = "{718, 1834}";
}
);
layerId = "AD226DB4-BE97-401A-8A1F-FC26A063DFB1";
paths = (
{
closed = 1;
nodes = (
"263 0 LINE",
"301 419 LINE",
"316 702 OFFCURVE",
"432 899 OFFCURVE",
"640 899 CURVE SMOOTH",
"802 899 OFFCURVE",
"897 779 OFFCURVE",
"876 555 CURVE SMOOTH",
"824 0 LINE",
"884 0 LINE",
"938 555 LINE SMOOTH",
"963 817 OFFCURVE",
"841 960 OFFCURVE",
"651 960 CURVE SMOOTH",
"504 960 OFFCURVE",
"394 874 OFFCURVE",
"331 741 CURVE",
"389 1351 LINE",
"325 1351 LINE",
"197 0 LINE"
);
}
);
width = 1051;
},
{
anchors = (
{
name = bottom;
position = "{512, 0}";
},
{
name = center;
position = "{641, 917}";
},
{
name = top;
position = "{770, 1834}";
}
);
layerId = "2146CDF3-509B-498B-BCC4-8BA41979C9D7";
paths = (
{
closed = 1;
nodes = (
"447 0 LINE",
"498 518 LINE",
"537 677 OFFCURVE",
"623 721 OFFCURVE",
"692 721 CURVE SMOOTH",
"754 721 OFFCURVE",
"798 674 OFFCURVE",
"785 575 CURVE",
"733 0 LINE",
"1035 0 LINE",
"1087 575 LINE SMOOTH",
"1109 832 OFFCURVE",
"1030 1020 OFFCURVE",
"800 1020 CURVE SMOOTH",
"700 1020 OFFCURVE",
"605 974 OFFCURVE",
"528 859 CURVE",
"580 1384 LINE",
"279 1384 LINE",
"151 0 LINE"
);
}
);
width = 1163;
},
{
anchors = (
{
name = bottom;
position = "{477, 0}";
},
{
name = center;
position = "{606, 917}";
},
{
name = top;
position = "{735, 1834}";
}
);
layerId = "3D647E92-BB94-42FD-9C12-A678B6C1687F";
paths = (
{
closed = 1;
nodes = (
"324 0 LINE",
"366 452 LINE SMOOTH",
"389 694 OFFCURVE",
"495 840 OFFCURVE",
"657 840 CURVE SMOOTH",
"786 840 OFFCURVE",
"864 744 OFFCURVE",
"846 562 CURVE SMOOTH",
"794 0 LINE",
"934 0 LINE",
"987 562 LINE SMOOTH",
"1011 822 OFFCURVE",
"903 980 OFFCURVE",
"700 980 CURVE SMOOTH",
"569 980 OFFCURVE",
"464 907 OFFCURVE",
"396 780 CURVE",
"452 1362 LINE",
"310 1362 LINE",
"182 0 LINE"
);
}
);
width = 1088.0087;
}
);
unicode = 0068;
},
{
glyphname = i;
lastChange = "2020-02-19 16:24:59 +0000";
layers = (
{
anchors = (
{
name = bottom;
position = "{175, 0}";
}
);
components = (
{
name = idotless;
}
);
layerId = "AD226DB4-BE97-401A-8A1F-FC26A063DFB1";
paths = (
{
closed = 1;
nodes = (
"374 1219 OFFCURVE",
"399 1240 OFFCURVE",
"403 1273 CURVE SMOOTH",
"406 1304 OFFCURVE",
"389 1332 OFFCURVE",
"356 1332 CURVE SMOOTH",
"319 1332 OFFCURVE",
"302 1297 OFFCURVE",
"300 1273 CURVE SMOOTH",
"297 1244 OFFCURVE",
"313 1219 OFFCURVE",
"345 1219 CURVE SMOOTH"
);
}
);
width = 482;
},
{
anchors = (
{
name = bottom;
position = "{256, 0}";
}
);
components = (
{
name = idotless;
}
);
layerId = "2146CDF3-509B-498B-BCC4-8BA41979C9D7";
paths = (
{
closed = 1;
nodes = (
"540 1107 OFFCURVE",
"614 1175 OFFCURVE",
"625 1293 CURVE SMOOTH",
"632 1407 OFFCURVE",
"574 1477 OFFCURVE",
"463 1477 CURVE SMOOTH",
"355 1477 OFFCURVE",
"279 1409 OFFCURVE",
"268 1293 CURVE SMOOTH",
"261 1174 OFFCURVE",
"318 1107 OFFCURVE",
"431 1107 CURVE SMOOTH"
);
}
);
width = 652;
},
{
anchors = (
{
name = bottom;
position = "{202, 0}";
}
);
components = (
{
alignment = -1;
name = idotless;
}
);
layerId = "3D647E92-BB94-42FD-9C12-A678B6C1687F";
paths = (
{
closed = 1;
nodes = (
"429 1182 OFFCURVE",
"470 1219 OFFCURVE",
"476 1280 CURVE SMOOTH",
"481 1338 OFFCURVE",
"450 1380 OFFCURVE",
"391 1380 CURVE SMOOTH",
"331 1380 OFFCURVE",
"294 1334 OFFCURVE",
"289 1280 CURVE SMOOTH",
"285 1221 OFFCURVE",
"315 1182 OFFCURVE",
"373 1182 CURVE SMOOTH"
);
}
);
width = 538.17391;
}
);
unicode = 0069;
},
{
glyphname = j;
lastChange = "2020-02-19 16:24:59 +0000";
layers = (
{
components = (
{
name = jdotless;
}
);
layerId = "AD226DB4-BE97-401A-8A1F-FC26A063DFB1";
paths = (
{
closed = 1;
nodes = (
"420 1219 OFFCURVE",
"446 1246 OFFCURVE",
"450 1273 CURVE SMOOTH",
"455 1307 OFFCURVE",
"432 1332 OFFCURVE",
"401 1332 CURVE SMOOTH",
"370 1332 OFFCURVE",
"346 1308 OFFCURVE",
"342 1273 CURVE SMOOTH",
"338 1238 OFFCURVE",
"362 1219 OFFCURVE",
"388 1219 CURVE SMOOTH"
);
}
);
width = 527;
},
{
components = (
{
name = jdotless;
}
);
layerId = "2146CDF3-509B-498B-BCC4-8BA41979C9D7";
paths = (
{
closed = 1;
nodes = (
"537 1107 OFFCURVE",
"607 1174 OFFCURVE",
"614 1293 CURVE SMOOTH",
"624 1406 OFFCURVE",
"568 1477 OFFCURVE",
"457 1477 CURVE SMOOTH",
"346 1477 OFFCURVE",
"270 1406 OFFCURVE",
"263 1293 CURVE SMOOTH",
"252 1176 OFFCURVE",
"314 1107 OFFCURVE",
"422 1107 CURVE SMOOTH"
);
}
);
width = 645;
},
{
components = (
{
alignment = -1;
name = jdotless;
}
);
layerId = "3D647E92-BB94-42FD-9C12-A678B6C1687F";
paths = (
{
closed = 1;
nodes = (
"459 1182 OFFCURVE",
"499 1222 OFFCURVE",
"504 1280 CURVE SMOOTH",
"511 1340 OFFCURVE",
"477 1380 OFFCURVE",
"420 1380 CURVE SMOOTH",
"362 1380 OFFCURVE",
"321 1340 OFFCURVE",
"316 1280 CURVE SMOOTH",
"310 1218 OFFCURVE",
"346 1182 OFFCURVE",
"399 1182 CURVE SMOOTH"
);
}
);
width = 565.9913;
}
);
unicode = 006A;
},
{
glyphname = k;
lastChange = "2020-02-19 16:24:59 +0000";
layers = (
{
anchors = (
{
name = bottom;
position = "{432, 0}";
},
{
name = top;
position = "{690, 1834}";
}
);
layerId = "AD226DB4-BE97-401A-8A1F-FC26A063DFB1";
paths = (
{
closed = 1;
nodes = (
"875 0 LINE",
"505 583 LINE",
"943 939 LINE",
"843 939 LINE",
"311 507 LINE",
"389 1351 LINE",
"325 1351 LINE",
"197 0 LINE",
"263 0 LINE",
"303 419 LINE",
"449 541 LINE",
"789 0 LINE"
);
}
);
width = 996;
},
{
anchors = (
{
name = bottom;
position = "{458, 0}";
},
{
name = top;
position = "{716, 1834}";
}
);
layerId = "2146CDF3-509B-498B-BCC4-8BA41979C9D7";
paths = (
{
closed = 1;
nodes = (
"1125 0 LINE",
"787 629 LINE",
"1200 991 LINE",
"804 991 LINE",
"514 704 LINE",
"580 1384 LINE",
"279 1384 LINE",
"151 0 LINE",
"447 0 LINE",
"481 367 LINE",
"561 436 LINE",
"769 0 LINE"
);
}
);
width = 1056;
},
{
anchors = (
{
name = bottom;
position = "{441, 0}";
},
{
name = top;
position = "{699, 1834}";
}
);
layerId = "3D647E92-BB94-42FD-9C12-A678B6C1687F";
paths = (
{
closed = 1;
nodes = (
"958 0 LINE",
"598 598 LINE",
"1028 956 LINE",
"830 956 LINE",
"378 572 LINE",
"452 1362 LINE",
"310 1362 LINE",
"182 0 LINE",
"324 0 LINE",
"362 402 LINE",
"486 506 LINE",
"782 0 LINE"
);
}
);
width = 1015.82609;
}
);
unicode = 006B;
},
{
glyphname = l;
lastChange = "2020-02-19 16:24:59 +0000";
layers = (
{
anchors = (
{
name = bottom;
position = "{162, 0}";
},
{
name = center;
position = "{291, 917}";
},
{
name = top;
position = "{371, 1417}";
},
{
name = topright;
position = "{628, 1834}";
}
);
layerId = "AD226DB4-BE97-401A-8A1F-FC26A063DFB1";
paths = (
{
closed = 1;
nodes = (
"263 0 LINE",
"389 1351 LINE",
"325 1351 LINE",
"197 0 LINE"
);
}
);
width = 456;
},
{
anchors = (
{
name = bottom;
position = "{231, 0}";
},
{
name = center;
position = "{360, 917}";
},
{
name = top;
position = "{430, 1364}";
},
{
name = topright;
position = "{610, 2018}";
}
);
layerId = "2146CDF3-509B-498B-BCC4-8BA41979C9D7";
paths = (
{
closed = 1;
nodes = (
"447 0 LINE",
"580 1384 LINE",
"279 1384 LINE",
"151 0 LINE"
);
}
);
width = 601;
},
{
anchors = (
{
name = bottom;
position = "{185, 0}";
},
{
name = center;
position = "{314, 917}";
},
{
name = top;
position = "{390, 1399}";
},
{
name = topright;
position = "{622, 1895}";
}
);
layerId = "3D647E92-BB94-42FD-9C12-A678B6C1687F";
paths = (
{
closed = 1;
nodes = (
"324 0 LINE",
"452 1362 LINE",
"310 1362 LINE",
"182 0 LINE"
);
}
);
width = 503.91304;
}
);
unicode = 006C;
},
{
glyphname = m;
lastChange = "2020-10-22 18:07:07 +0000";
layers = (
{
anchors = (
{
name = bottom;
position = "{761, 0}";
},
{
name = top;
position = "{893, 939}";
}
);
layerId = "AD226DB4-BE97-401A-8A1F-FC26A063DFB1";
paths = (
{
closed = 1;
nodes = (
"259 0 LINE",
"303 472 LINE SMOOTH",
"326 721 OFFCURVE",
"439 899 OFFCURVE",
"635 899 CURVE SMOOTH",
"794 899 OFFCURVE",
"893 783 OFFCURVE",
"872 555 CURVE SMOOTH",
"820 0 LINE",
"880 0 LINE",
"924 490 LINE",
"958 728 OFFCURVE",
"1049 899 OFFCURVE",
"1245 899 CURVE SMOOTH",
"1413 899 OFFCURVE",
"1504 773 OFFCURVE",
"1483 555 CURVE SMOOTH",
"1429 0 LINE",
"1489 0 LINE",
"1541 555 LINE SMOOTH",
"1569 819 OFFCURVE",
"1445 960 OFFCURVE",
"1255 960 CURVE SMOOTH",
"1107 960 OFFCURVE",
"994 875 OFFCURVE",
"930 709 CURVE",
"902 871 OFFCURVE",
"799 960 OFFCURVE",
"647 960 CURVE SMOOTH",
"500 960 OFFCURVE",
"389 876 OFFCURVE",
"325 731 CURVE",
"327 799 OFFCURVE",
"333 870 OFFCURVE",
"336 939 CURVE",
"281 939 LINE",
"193 0 LINE"
);
}
);
width = 1654;
},
{
anchors = (
{
name = bottom;
position = "{800, 0}";
},
{
name = top;
position = "{940, 991}";
}
);
layerId = "2146CDF3-509B-498B-BCC4-8BA41979C9D7";
paths = (
{
closed = 1;
nodes = (
"450 0 LINE",
"487 412 LINE SMOOTH",
"509 637 OFFCURVE",
"603 721 OFFCURVE",
"695 721 CURVE SMOOTH",
"757 721 OFFCURVE",
"800 672 OFFCURVE",
"787 575 CURVE",
"735 0 LINE",
"1038 0 LINE",
"1075 411 LINE",
"1088 640 OFFCURVE",
"1176 721 OFFCURVE",
"1267 721 CURVE SMOOTH",
"1327 721 OFFCURVE",
"1368 675 OFFCURVE",
"1362 575 CURVE SMOOTH",
"1311 0 LINE",
"1614 0 LINE",
"1666 575 LINE SMOOTH",
"1687 832 OFFCURVE",
"1613 1020 OFFCURVE",
"1382 1020 CURVE SMOOTH",
"1262 1020 OFFCURVE",
"1149 973 OFFCURVE",
"1069 834 CURVE",
"1028 946 OFFCURVE",
"945 1020 OFFCURVE",
"802 1020 CURVE SMOOTH",
"696 1020 OFFCURVE",
"599 967 OFFCURVE",
"522 849 CURVE",
"518 898 OFFCURVE",
"511 942 OFFCURVE",
"506 991 CURVE",
"248 991 LINE",
"154 0 LINE"
);
}
);
width = 1739;
},
{
anchors = (
{
name = bottom;
position = "{774, 0}";
},
{
name = top;
position = "{909, 956}";
}
);
layerId = "3D647E92-BB94-42FD-9C12-A678B6C1687F";
paths = (
{
closed = 1;
nodes = (
"322 0 LINE",
"364 452 LINE SMOOTH",
"386 693 OFFCURVE",
"493 840 OFFCURVE",
"655 840 CURVE SMOOTH",
"782 840 OFFCURVE",
"862 746 OFFCURVE",
"844 562 CURVE SMOOTH",
"792 0 LINE",
"932 0 LINE",
"974 464 LINE SMOOTH",
"1001 699 OFFCURVE",
"1091 840 OFFCURVE",
"1252 840 CURVE SMOOTH",
"1385 840 OFFCURVE",
"1459 741 OFFCURVE",
"1443 562 CURVE SMOOTH",
"1390.009 0 LINE",
"1530 0 LINE",
"1582 562 LINE SMOOTH",
"1608 823 OFFCURVE",
"1501 980 OFFCURVE",
"1297 980 CURVE SMOOTH",
"1158 980 OFFCURVE",
"1045 907 OFFCURVE",
"976 750 CURVE",
"944 896 OFFCURVE",
"847 980 OFFCURVE",
"698 980 CURVE SMOOTH",
"565 980 OFFCURVE",
"458 906 OFFCURVE",
"390 770 CURVE",
"390 832 OFFCURVE",
"392 894 OFFCURVE",
"392 956 CURVE",
"270 956 LINE",
"180 0 LINE"
);
}
);
width = 1682.08696;
}
);
unicode = 006D;
},
{
glyphname = n;
lastChange = "2020-10-22 18:07:07 +0000";
layers = (
{
anchors = (
{
name = bottom;
position = "{458, 0}";
},
{
name = top;
position = "{590, 939}";
}
);
layerId = "AD226DB4-BE97-401A-8A1F-FC26A063DFB1";
paths = (
{
closed = 1;
nodes = (
"259 0 LINE",
"303 472 LINE SMOOTH",
"326 721 OFFCURVE",
"439 899 OFFCURVE",
"635 899 CURVE SMOOTH",
"794 899 OFFCURVE",
"893 783 OFFCURVE",
"872 555 CURVE SMOOTH",
"820 0 LINE",
"880 0 LINE",
"932 555 LINE SMOOTH",
"960 819 OFFCURVE",
"838 960 OFFCURVE",
"647 960 CURVE SMOOTH",
"500 960 OFFCURVE",
"389 876 OFFCURVE",
"325 731 CURVE",
"336 939 LINE",
"281 939 LINE",
"193 0 LINE"
);
}
);
width = 1047;
},
{
anchors = (
{
name = bottom;
position = "{513, 0}";
},
{
name = top;
position = "{653, 991}";
}
);
layerId = "2146CDF3-509B-498B-BCC4-8BA41979C9D7";
paths = (
{
closed = 1;
nodes = (
"450 0 LINE",
"487 412 LINE SMOOTH",
"509 637 OFFCURVE",
"603 721 OFFCURVE",
"695 721 CURVE SMOOTH",
"757 721 OFFCURVE",
"800 672 OFFCURVE",
"787 575 CURVE",
"735 0 LINE",
"1038 0 LINE",
"1090 575 LINE SMOOTH",
"1111 832 OFFCURVE",
"1032 1020 OFFCURVE",
"802 1020 CURVE SMOOTH",
"696 1020 OFFCURVE",
"599 967 OFFCURVE",
"522 849 CURVE",
"506 991 LINE",
"248 991 LINE",
"154 0 LINE"
);
}
);
width = 1165;
},
{
anchors = (
{
name = bottom;
position = "{476, 0}";
},
{
name = top;
position = "{611, 956}";
}
);
layerId = "3D647E92-BB94-42FD-9C12-A678B6C1687F";
paths = (
{
closed = 1;
nodes = (
"322 0 LINE",
"364 452 LINE SMOOTH",
"386 693 OFFCURVE",
"493 840 OFFCURVE",
"655 840 CURVE SMOOTH",
"782 840 OFFCURVE",
"862 746 OFFCURVE",
"844 562 CURVE SMOOTH",
"792 0 LINE",
"932 0 LINE",
"984 562 LINE SMOOTH",
"1010 823 OFFCURVE",
"902 980 OFFCURVE",
"698 980 CURVE SMOOTH",
"565 980 OFFCURVE",
"458 906 OFFCURVE",
"390 770 CURVE",
"392 956 LINE",
"270 956 LINE",
"180 0 LINE"
);
}
);
width = 1085.9913;
}
);
unicode = 006E;
},
{
glyphname = o;
lastChange = "2020-02-19 16:24:59 +0000";
layers = (
{
anchors = (
{
name = bottom;
position = "{406, 0}";
},
{
name = center;
position = "{472, 470}";
},
{
name = ogonek;
position = "{784, 10}";
},
{
name = top;
position = "{538, 939}";
},
{
name = topright;
position = "{989, 939}";
}
);
layerId = "AD226DB4-BE97-401A-8A1F-FC26A063DFB1";
paths = (
{
closed = 1;
nodes = (
"697 -15 OFFCURVE",
"863 163 OFFCURVE",
"892 471 CURVE SMOOTH",
"921 774 OFFCURVE",
"794 960 OFFCURVE",
"562 960 CURVE SMOOTH",
"334 960 OFFCURVE",
"169 781 OFFCURVE",
"138 471 CURVE SMOOTH",
"107 160 OFFCURVE",
"240 -15 OFFCURVE",
"468 -15 CURVE SMOOTH"
);
},
{
closed = 1;
nodes = (
"259 45 OFFCURVE",
"189 224 OFFCURVE",
"212 471 CURVE SMOOTH",
"236 729 OFFCURVE",
"345 898 OFFCURVE",
"553 898 CURVE SMOOTH",
"764 898 OFFCURVE",
"849 724 OFFCURVE",
"824 471 CURVE SMOOTH",
"799 219 OFFCURVE",
"680 45 OFFCURVE",
"471 45 CURVE SMOOTH"
);
}
);
width = 943;
},
{
anchors = (
{
name = bottom;
position = "{461, 0}";
},
{
name = center;
position = "{531, 496}";
},
{
name = ogonek;
position = "{577, 10}";
},
{
name = top;
position = "{671, 991}";
},
{
name = topright;
position = "{1111, 991}";
}
);
layerId = "2146CDF3-509B-498B-BCC4-8BA41979C9D7";
paths = (
{
closed = 1;
nodes = (
"772 -35 OFFCURVE",
"994 131 OFFCURVE",
"1031 491 CURVE SMOOTH",
"1065 863 OFFCURVE",
"868 1020 OFFCURVE",
"628 1020 CURVE SMOOTH",
"385 1020 OFFCURVE",
"158 861 OFFCURVE",
"125 491 CURVE SMOOTH",
"93 132 OFFCURVE",
"283 -35 OFFCURVE",
"532 -35 CURVE SMOOTH"
);
},
{
closed = 1;
nodes = (
"471 255 OFFCURVE",
"401 317 OFFCURVE",
"420 491 CURVE SMOOTH",
"438 669 OFFCURVE",
"533 734 OFFCURVE",
"614 734 CURVE SMOOTH",
"692 734 OFFCURVE",
"750 671 OFFCURVE",
"733 491 CURVE SMOOTH",
"715 318 OFFCURVE",
"627 255 OFFCURVE",
"548 255 CURVE SMOOTH"
);
}
);
width = 1061;
},
{
anchors = (
{
name = bottom;
position = "{424, 0}";
},
{
name = center;
position = "{491, 479}";
},
{
name = ogonek;
position = "{716, 10}";
},
{
name = top;
position = "{582, 956}";
},
{
name = topright;
position = "{1029, 956}";
}
);
layerId = "3D647E92-BB94-42FD-9C12-A678B6C1687F";
paths = (
{
closed = 1;
nodes = (
"722 -22 OFFCURVE",
"906 152 OFFCURVE",
"938 478 CURVE SMOOTH",
"969 803 OFFCURVE",
"818 980 OFFCURVE",
"584 980 CURVE SMOOTH",
"351 980 OFFCURVE",
"165 807 OFFCURVE",
"134 478 CURVE SMOOTH",
"102 151 OFFCURVE",
"254 -22 OFFCURVE",
"489 -22 CURVE SMOOTH"
);
},
{
closed = 1;
nodes = (
"329 114 OFFCURVE",
"259 255 OFFCURVE",
"281 478 CURVE SMOOTH",
"303 709 OFFCURVE",
"407 844 OFFCURVE",
"573 844 CURVE SMOOTH",
"740 844 OFFCURVE",
"816 706 OFFCURVE",
"794 478 CURVE SMOOTH",
"771 252 OFFCURVE",
"662 114 OFFCURVE",
"496 114 CURVE SMOOTH"
);
}
);
width = 981.9913;
}
);
unicode = 006F;
},
{
glyphname = p;
lastChange = "2020-02-19 16:24:59 +0000";
layers = (
{
anchors = (
{
name = bottom;
position = "{454, 0}";
},
{
name = top;
position = "{586, 939}";
}
);
layerId = "AD226DB4-BE97-401A-8A1F-FC26A063DFB1";
paths = (
{
closed = 1;
nodes = (
"217 -466 LINE",
"278 157 LINE",
"322 48 OFFCURVE",
"414 -15 OFFCURVE",
"530 -15 CURVE SMOOTH",
"729 -15 OFFCURVE",
"921 170 OFFCURVE",
"949 473 CURVE SMOOTH",
"977 777 OFFCURVE",
"821 960 OFFCURVE",
"626 960 CURVE SMOOTH",
"509 960 OFFCURVE",
"404 894 OFFCURVE",
"334 777 CURVE",
"336 830 OFFCURVE",
"336 886 OFFCURVE",
"338 939 CURVE",
"285 939 LINE",
"151 -466 LINE"
);
},
{
closed = 1;
nodes = (
"416 44 OFFCURVE",
"277 160 OFFCURVE",
"296 384 CURVE SMOOTH",
"313 556 LINE SMOOTH",
"335 783 OFFCURVE",
"479 899 OFFCURVE",
"620 899 CURVE SMOOTH",
"780 899 OFFCURVE",
"903 748 OFFCURVE",
"877 473 CURVE SMOOTH",
"850 193 OFFCURVE",
"693 44 OFFCURVE",
"546 44 CURVE SMOOTH"
);
}
);
width = 1040;
},
{
anchors = (
{
name = bottom;
position = "{496, 0}";
},
{
name = top;
position = "{636, 991}";
}
);
layerId = "2146CDF3-509B-498B-BCC4-8BA41979C9D7";
paths = (
{
closed = 1;
nodes = (
"401 -479 LINE",
"448 32 LINE",
"492 -18 OFFCURVE",
"553 -35 OFFCURVE",
"643 -35 CURVE SMOOTH",
"866 -35 OFFCURVE",
"1090 157 OFFCURVE",
"1121 493 CURVE SMOOTH",
"1152 827 OFFCURVE",
"967 1020 OFFCURVE",
"754 1020 CURVE SMOOTH",
"659 1020 OFFCURVE",
"568 979 OFFCURVE",
"504 876 CURVE",
"500 915 OFFCURVE",
"494 952 OFFCURVE",
"489 991 CURVE",
"246 991 LINE",
"105 -479 LINE"
);
},
{
closed = 1;
nodes = (
"504 268 OFFCURVE",
"477 324 OFFCURVE",
"485 397 CURVE SMOOTH",
"501 556 LINE SMOOTH",
"509 655 OFFCURVE",
"578 721 OFFCURVE",
"670 721 CURVE SMOOTH",
"780 721 OFFCURVE",
"838 630 OFFCURVE",
"825 493 CURVE SMOOTH",
"809 335 OFFCURVE",
"696 268 OFFCURVE",
"617 268 CURVE SMOOTH"
);
}
);
width = 1132;
},
{
anchors = (
{
name = bottom;
position = "{468, 0}";
},
{
name = top;
position = "{603, 956}";
}
);
layerId = "3D647E92-BB94-42FD-9C12-A678B6C1687F";
paths = (
{
closed = 1;
nodes = (
"278 -470 LINE",
"334 116 LINE",
"378 26 OFFCURVE",
"460 -22 OFFCURVE",
"567 -22 CURVE SMOOTH",
"774 -22 OFFCURVE",
"977 166 OFFCURVE",
"1006 480 CURVE SMOOTH",
"1035 794 OFFCURVE",
"869 980 OFFCURVE",
"668 980 CURVE SMOOTH",
"559 980 OFFCURVE",
"458 922 OFFCURVE",
"390 810 CURVE",
"390 858 OFFCURVE",
"388 908 OFFCURVE",
"388 956 CURVE",
"272 956 LINE",
"136 -470 LINE"
);
},
{
closed = 1;
nodes = (
"445 118 OFFCURVE",
"343 214 OFFCURVE",
"358 388 CURVE SMOOTH",
"375 556 LINE SMOOTH",
"392 741 OFFCURVE",
"512 840 OFFCURVE",
"637 840 CURVE SMOOTH",
"780 840 OFFCURVE",
"882 709 OFFCURVE",
"860 480 CURVE SMOOTH",
"836 240 OFFCURVE",
"694 118 OFFCURVE",
"569 118 CURVE SMOOTH"
);
}
);
width = 1070.4;
}
);
unicode = 0070;
},
{
glyphname = q;
lastChange = "2020-10-22 18:07:07 +0000";
layers = (
{
anchors = (
{
name = bottom;
position = "{435, 0}";
},
{
name = top;
position = "{567, 939}";
}
);
layerId = "AD226DB4-BE97-401A-8A1F-FC26A063DFB1";
paths = (
{
closed = 1;
nodes = (
"908 -413 LINE",
"796 -368 OFFCURVE",
"772 -329 OFFCURVE",
"787 -175 CURVE SMOOTH",
"893 939 LINE",
"838 939 LINE",
"809 772 LINE",
"773 891 OFFCURVE",
"678 960 OFFCURVE",
"559 960 CURVE SMOOTH",
"366 960 OFFCURVE",
"173 777 OFFCURVE",
"143 473 CURVE SMOOTH",
"114 173 OFFCURVE",
"267 -15 OFFCURVE",
"462 -15 CURVE SMOOTH",
"584 -15 OFFCURVE",
"695 59 OFFCURVE",
"757 182 CURVE",
"725 -174 LINE SMOOTH",
"705 -355 OFFCURVE",
"740 -435 OFFCURVE",
"873 -481 CURVE"
);
},
{
closed = 1;
nodes = (
"319 44 OFFCURVE",
"189 189 OFFCURVE",
"216 473 CURVE SMOOTH",
"243 751 OFFCURVE",
"397 899 OFFCURVE",
"548 899 CURVE SMOOTH",
"669 899 OFFCURVE",
"790 806 OFFCURVE",
"801 619 CURVE",
"778 384 LINE SMOOTH",
"757 164 OFFCURVE",
"612 44 OFFCURVE",
"472 44 CURVE SMOOTH"
);
}
);
width = 1002;
},
{
anchors = (
{
name = bottom;
position = "{507, 0}";
},
{
name = top;
position = "{647, 991}";
}
);
layerId = "2146CDF3-509B-498B-BCC4-8BA41979C9D7";
paths = (
{
closed = 1;
nodes = (
"1078 -282 LINE",
"1003 -257 OFFCURVE",
"981 -232 OFFCURVE",
"990 -136 CURVE SMOOTH",
"1096 991 LINE",
"910 991 LINE",
"829 851 LINE",
"778 971 OFFCURVE",
"687 1020 OFFCURVE",
"587 1020 CURVE SMOOTH",
"372 1020 OFFCURVE",
"153 827 OFFCURVE",
"123 493 CURVE SMOOTH",
"93 156 OFFCURVE",
"281 -35 OFFCURVE",
"506 -35 CURVE SMOOTH",
"612 -35 OFFCURVE",
"668 13 OFFCURVE",
"711 97 CURVE",
"692 -108 LINE SMOOTH",
"672 -328 OFFCURVE",
"753 -455 OFFCURVE",
"978 -514 CURVE"
);
},
{
closed = 1;
nodes = (
"498 268 OFFCURVE",
"401 337 OFFCURVE",
"418 493 CURVE SMOOTH",
"433 629 OFFCURVE",
"506 721 OFFCURVE",
"620 721 CURVE SMOOTH",
"721 721 OFFCURVE",
"761 645 OFFCURVE",
"749 520 CURVE SMOOTH",
"737 397 LINE SMOOTH",
"729 320 OFFCURVE",
"654 268 OFFCURVE",
"580 268 CURVE SMOOTH"
);
}
);
width = 1153;
},
{
anchors = (
{
name = bottom;
position = "{459, 0}";
},
{
name = top;
position = "{593, 956}";
}
);
layerId = "3D647E92-BB94-42FD-9C12-A678B6C1687F";
paths = (
{
closed = 1;
nodes = (
"964 -370 LINE",
"864 -331 OFFCURVE",
"841 -297 OFFCURVE",
"854 -162 CURVE SMOOTH",
"960 956 LINE",
"862 956 LINE",
"816 798 LINE",
"775 917 OFFCURVE",
"681 980 OFFCURVE",
"568 980 CURVE SMOOTH",
"368 980 OFFCURVE",
"166 794 OFFCURVE",
"136 480 CURVE SMOOTH",
"107 167 OFFCURVE",
"272 -22 OFFCURVE",
"477 -22 CURVE SMOOTH",
"593 -22 OFFCURVE",
"686 44 OFFCURVE",
"742 154 CURVE",
"714 -152 LINE SMOOTH",
"694 -346 OFFCURVE",
"744 -442 OFFCURVE",
"908 -492 CURVE"
);
},
{
closed = 1;
nodes = (
"378 118 OFFCURVE",
"259 238 OFFCURVE",
"283 480 CURVE SMOOTH",
"306 711 OFFCURVE",
"433 840 OFFCURVE",
"572 840 CURVE SMOOTH",
"686 840 OFFCURVE",
"780 753 OFFCURVE",
"784 586 CURVE",
"764 388 LINE SMOOTH",
"748 216 OFFCURVE",
"626 118 OFFCURVE",
"508 118 CURVE SMOOTH"
);
}
);
width = 1051.89565;
}
);
unicode = 0071;
},
{
glyphname = r;
lastChange = "2020-02-19 16:24:59 +0000";
layers = (
{
anchors = (
{
name = bottom;
position = "{244, 0}";
},
{
name = top;
position = "{376, 939}";
}
);
layerId = "AD226DB4-BE97-401A-8A1F-FC26A063DFB1";
paths = (
{
closed = 1;
nodes = (
"259 0 LINE",
"296 439 LINE SMOOTH",
"318 698 OFFCURVE",
"381 898 OFFCURVE",
"549 898 CURVE SMOOTH",
"590 898 OFFCURVE",
"632 886 OFFCURVE",
"672 869 CURVE",
"690 934 LINE",
"651 953 OFFCURVE",
"605 957 OFFCURVE",
"574 957 CURVE SMOOTH",
"457 957 OFFCURVE",
"384 900 OFFCURVE",
"329 769 CURVE",
"347 941 LINE",
"281 941 LINE",
"193 0 LINE"
);
}
);
width = 619;
},
{
anchors = (
{
name = bottom;
position = "{341, 0}";
},
{
name = top;
position = "{481, 991}";
}
);
layerId = "2146CDF3-509B-498B-BCC4-8BA41979C9D7";
paths = (
{
closed = 1;
nodes = (
"450 0 LINE",
"492 419 LINE SMOOTH",
"510 605 OFFCURVE",
"606 668 OFFCURVE",
"726 668 CURVE SMOOTH",
"751 668 OFFCURVE",
"783 669 OFFCURVE",
"811 666 CURVE",
"841 1000 LINE",
"825 1003 OFFCURVE",
"811 1009 OFFCURVE",
"790 1009 CURVE SMOOTH",
"698 1009 OFFCURVE",
"596 937 OFFCURVE",
"526 789 CURVE",
"544 993 LINE",
"248 993 LINE",
"154 0 LINE"
);
}
);
width = 822;
},
{
anchors = (
{
name = bottom;
position = "{276, 0}";
},
{
name = top;
position = "{411, 956}";
}
);
layerId = "3D647E92-BB94-42FD-9C12-A678B6C1687F";
paths = (
{
closed = 1;
nodes = (
"322 0 LINE",
"361 432 LINE SMOOTH",
"381 667 OFFCURVE",
"455 822 OFFCURVE",
"607 822 CURVE SMOOTH",
"643 822 OFFCURVE",
"682 814 OFFCURVE",
"718 802 CURVE",
"740 956 LINE",
"708 970 OFFCURVE",
"673 974 OFFCURVE",
"645 974 CURVE SMOOTH",
"537 974 OFFCURVE",
"454 912 OFFCURVE",
"394 776 CURVE",
"412 958 LINE",
"270 958 LINE",
"180 0 LINE"
);
}
);
width = 686.07826;
}
);
unicode = 0072;
},
{
glyphname = s;
lastChange = "2020-10-22 18:07:07 +0000";
layers = (
{
anchors = (
{
name = bottom;
position = "{536, 0}";
},
{
name = top;
position = "{568, 939}";
}
);
layerId = "AD226DB4-BE97-401A-8A1F-FC26A063DFB1";
paths = (
{
closed = 1;
nodes = (
"691 -15 OFFCURVE",
"816 102 OFFCURVE",
"832 239 CURVE SMOOTH",
"847 366 OFFCURVE",
"763 443 OFFCURVE",
"613 489 CURVE SMOOTH",
"483 529 LINE SMOOTH",
"360 567 OFFCURVE",
"288 628 OFFCURVE",
"301 725 CURVE SMOOTH",
"312 809 OFFCURVE",
"385 902 OFFCURVE",
"556 902 CURVE SMOOTH",
"684 902 OFFCURVE",
"772 849 OFFCURVE",
"777 743 CURVE",
"848 743 LINE",
"853 868 OFFCURVE",
"741 960 OFFCURVE",
"557 960 CURVE SMOOTH",
"365 960 OFFCURVE",
"248 860 OFFCURVE",
"233 720 CURVE SMOOTH",
"219 593 OFFCURVE",
"299 519 OFFCURVE",
"447 469 CURVE SMOOTH",
"586 422 LINE SMOOTH",
"709 380 OFFCURVE",
"777 336 OFFCURVE",
"766 239 CURVE SMOOTH",
"752 119 OFFCURVE",
"631 41 OFFCURVE",
"484 41 CURVE SMOOTH",
"330 41 OFFCURVE",
"216 127 OFFCURVE",
"222 267 CURVE",
"154 267 LINE",
"150 121 OFFCURVE",
"245 -15 OFFCURVE",
"476 -15 CURVE SMOOTH"
);
}
);
width = 944;
},
{
anchors = (
{
name = bottom;
position = "{505, 10}";
},
{
name = top;
position = "{545, 991}";
}
);
layerId = "2146CDF3-509B-498B-BCC4-8BA41979C9D7";
paths = (
{
closed = 1;
nodes = (
"740 -35 OFFCURVE",
"904 133 OFFCURVE",
"917 291 CURVE SMOOTH",
"927 414 OFFCURVE",
"846 493 OFFCURVE",
"744 541 CURVE SMOOTH",
"503 654 LINE SMOOTH",
"484 663 OFFCURVE",
"456 677 OFFCURVE",
"459 705 CURVE SMOOTH",
"462 740 OFFCURVE",
"505 763 OFFCURVE",
"562 763 CURVE SMOOTH",
"627 763 OFFCURVE",
"655 733 OFFCURVE",
"652 691 CURVE",
"927 691 LINE",
"941 879 OFFCURVE",
"836 1020 OFFCURVE",
"574 1020 CURVE SMOOTH",
"344 1020 OFFCURVE",
"166 911 OFFCURVE",
"147 726 CURVE SMOOTH",
"134 601 OFFCURVE",
"200 500 OFFCURVE",
"316 449 CURVE SMOOTH",
"526 356 LINE SMOOTH",
"553 344 OFFCURVE",
"589 328 OFFCURVE",
"584 291 CURVE SMOOTH",
"580 260 OFFCURVE",
"550 225 OFFCURVE",
"465 225 CURVE SMOOTH",
"391 225 OFFCURVE",
"356 252 OFFCURVE",
"367 313 CURVE",
"94 313 LINE",
"63 70 OFFCURVE",
"262 -35 OFFCURVE",
"473 -35 CURVE SMOOTH"
);
}
);
width = 950;
},
{
anchors = (
{
name = bottom;
position = "{526, 3}";
},
{
name = top;
position = "{560, 956}";
}
);
layerId = "3D647E92-BB94-42FD-9C12-A678B6C1687F";
paths = (
{
closed = 1;
nodes = (
"707 -22 OFFCURVE",
"845 112 OFFCURVE",
"860 256 CURVE SMOOTH",
"873 382 OFFCURVE",
"790 460 OFFCURVE",
"656 506 CURVE SMOOTH",
"490 570 LINE",
"401 599 OFFCURVE",
"344 644 OFFCURVE",
"353 718 CURVE SMOOTH",
"362 786 OFFCURVE",
"425 856 OFFCURVE",
"558 856 CURVE SMOOTH",
"665 856 OFFCURVE",
"733 811 OFFCURVE",
"736 726 CURVE",
"874 726 LINE",
"882 872 OFFCURVE",
"772 980 OFFCURVE",
"563 980 CURVE SMOOTH",
"358 980 OFFCURVE",
"221 877 OFFCURVE",
"205 722 CURVE SMOOTH",
"191 596 OFFCURVE",
"266 513 OFFCURVE",
"404 462 CURVE SMOOTH",
"566 400 LINE SMOOTH",
"657 368 OFFCURVE",
"715 333 OFFCURVE",
"706 256 CURVE SMOOTH",
"695 166 OFFCURVE",
"604 102 OFFCURVE",
"478 102 CURVE SMOOTH",
"350 102 OFFCURVE",
"262 168 OFFCURVE",
"270 282 CURVE",
"134 282 LINE",
"121 104 OFFCURVE",
"251 -22 OFFCURVE",
"475 -22 CURVE SMOOTH"
);
}
);
width = 945.98261;
}
);
unicode = 0073;
},
{
glyphname = t;
lastChange = "2020-02-19 16:24:59 +0000";
layers = (
{
anchors = (
{
name = bottom;
position = "{457, 0}";
},
{
name = center;
position = "{320, 470}";
},
{
name = top;
position = "{456, 1059}";
},
{
name = topright;
position = "{685, 939}";
}
);
layerId = "AD226DB4-BE97-401A-8A1F-FC26A063DFB1";
paths = (
{
closed = 1;
nodes = (
"484 -15 OFFCURVE",
"542 -2 OFFCURVE",
"604 32 CURVE",
"600 86 LINE",
"540 60 OFFCURVE",
"487 45 OFFCURVE",
"431 45 CURVE SMOOTH",
"339 45 OFFCURVE",
"291 105 OFFCURVE",
"302 220 CURVE SMOOTH",
"368 905 LINE",
"319 885 LINE",
"668 885 LINE",
"676 939 LINE",
"326 939 LINE",
"366 894 LINE",
"400 1215 LINE",
"334 1215 LINE",
"300 894 LINE",
"350 939 LINE",
"154 939 LINE",
"142 885 LINE",
"347 885 LINE",
"306 905 LINE",
"244 224 LINE SMOOTH",
"228 62 OFFCURVE",
"300 -15 OFFCURVE",
"429 -15 CURVE SMOOTH"
);
}
);
width = 639;
},
{
anchors = (
{
name = bottom;
position = "{516, 0}";
},
{
name = center;
position = "{376, 496}";
},
{
name = top;
position = "{506, 1111}";
},
{
name = topright;
position = "{801, 991}";
}
);
layerId = "2146CDF3-509B-498B-BCC4-8BA41979C9D7";
paths = (
{
closed = 1;
nodes = (
"558 -35 OFFCURVE",
"621 -8 OFFCURVE",
"695 19 CURVE",
"672 250 LINE",
"619 230 OFFCURVE",
"584 223 OFFCURVE",
"561 223 CURVE SMOOTH",
"501 223 OFFCURVE",
"478 248 OFFCURVE",
"485 311 CURVE SMOOTH",
"532 833 LINE",
"483 780 LINE",
"728 780 LINE",
"748 991 LINE",
"504 991 LINE",
"545 946 LINE",
"570 1235 LINE",
"274 1235 LINE",
"249 946 LINE",
"298 991 LINE",
"148 991 LINE",
"129 780 LINE",
"275 780 LINE",
"234 833 LINE",
"184 296 LINE SMOOTH",
"164 68 OFFCURVE",
"304 -35 OFFCURVE",
"473 -35 CURVE SMOOTH"
);
}
);
width = 751;
},
{
anchors = (
{
name = bottom;
position = "{476, 0}";
},
{
name = center;
position = "{339, 479}";
},
{
name = top;
position = "{473, 1076}";
},
{
name = topright;
position = "{723, 956}";
}
);
layerId = "3D647E92-BB94-42FD-9C12-A678B6C1687F";
paths = (
{
closed = 1;
nodes = (
"508 -22 OFFCURVE",
"568 -4 OFFCURVE",
"634 28 CURVE",
"624 140 LINE",
"566 116 OFFCURVE",
"519 104 OFFCURVE",
"474 104 CURVE SMOOTH",
"393 104 OFFCURVE",
"353 152 OFFCURVE",
"362 250 CURVE SMOOTH",
"422 881 LINE",
"373 850 LINE",
"688 850 LINE",
"700 956 LINE",
"385 956 LINE",
"425 911 LINE",
"456 1222 LINE",
"314 1222 LINE",
"283 911 LINE",
"333 956 LINE",
"152 956 LINE",
"138 850 LINE",
"323 850 LINE",
"282 881 LINE",
"224 248 LINE SMOOTH",
"207 64 OFFCURVE",
"301 -22 OFFCURVE",
"444 -22 CURVE SMOOTH"
);
}
);
width = 676.0087;
}
);
unicode = 0074;
},
{
glyphname = u;
lastChange = "2020-10-22 18:07:07 +0000";
layers = (
{
anchors = (
{
name = bottom;
position = "{459, 0}";
},
{
name = ogonek;
position = "{829, 25}";
},
{
name = top;
position = "{591, 939}";
},
{
name = topright;
position = "{1095, 939}";
}
);
layerId = "AD226DB4-BE97-401A-8A1F-FC26A063DFB1";
paths = (
{
closed = 1;
nodes = (
"617 -18 OFFCURVE",
"734 69 OFFCURVE",
"806 207 CURVE",
"786 0 LINE",
"849 0 LINE",
"939 941 LINE",
"873 941 LINE",
"829 472 LINE SMOOTH",
"809 252 OFFCURVE",
"683 46 OFFCURVE",
"486 46 CURVE SMOOTH",
"317 46 OFFCURVE",
"240 148 OFFCURVE",
"263 345 CURVE",
"316 941 LINE",
"250 941 LINE",
"195 346 LINE SMOOTH",
"177 115 OFFCURVE",
"273 -18 OFFCURVE",
"476 -18 CURVE SMOOTH"
);
}
);
width = 1049;
},
{
anchors = (
{
name = bottom;
position = "{517, 0}";
},
{
name = ogonek;
position = "{889, 10}";
},
{
name = top;
position = "{657, 991}";
},
{
name = topright;
position = "{1224, 991}";
}
);
layerId = "2146CDF3-509B-498B-BCC4-8BA41979C9D7";
paths = (
{
closed = 1;
nodes = (
"584 -18 OFFCURVE",
"674 30 OFFCURVE",
"740 155 CURVE",
"726 0 LINE",
"1027 0 LINE",
"1117 993 LINE",
"821 993 LINE",
"777 532 LINE SMOOTH",
"757 324 OFFCURVE",
"650 270 OFFCURVE",
"565 270 CURVE SMOOTH",
"508 270 OFFCURVE",
"470 312 OFFCURVE",
"473 397 CURVE",
"533 993 LINE",
"237 993 LINE",
"175 359 LINE SMOOTH",
"144 69 OFFCURVE",
"306 -18 OFFCURVE",
"482 -18 CURVE SMOOTH"
);
}
);
width = 1174;
},
{
anchors = (
{
name = bottom;
position = "{478, 0}";
},
{
name = ogonek;
position = "{849, 20}";
},
{
name = top;
position = "{613, 956}";
},
{
name = topright;
position = "{1138, 956}";
}
);
layerId = "3D647E92-BB94-42FD-9C12-A678B6C1687F";
paths = (
{
closed = 1;
nodes = (
"606 -18 OFFCURVE",
"714 56 OFFCURVE",
"784 190 CURVE",
"766 0 LINE",
"908 0 LINE",
"998 958 LINE",
"856 958 LINE",
"812 492 LINE SMOOTH",
"792 276 OFFCURVE",
"672 120 OFFCURVE",
"512 120 CURVE SMOOTH",
"380 120 OFFCURVE",
"316 202 OFFCURVE",
"332 362 CURVE SMOOTH",
"388 958 LINE",
"246 958 LINE",
"188 350 LINE SMOOTH",
"166 100 OFFCURVE",
"284 -18 OFFCURVE",
"478 -18 CURVE SMOOTH"
);
}
);
width = 1090.30435;
}
);
unicode = 0075;
},
{
glyphname = v;
lastChange = "2020-02-19 16:24:59 +0000";
layers = (
{
anchors = (
{
name = bottom;
position = "{372, 0}";
},
{
name = top;
position = "{504, 939}";
}
);
layerId = "AD226DB4-BE97-401A-8A1F-FC26A063DFB1";
paths = (
{
closed = 1;
nodes = (
"402 0 LINE",
"469 0 LINE",
"916 939 LINE",
"848 939 LINE",
"446 90 LINE",
"199 939 LINE",
"131 939 LINE"
);
}
);
width = 876;
},
{
anchors = (
{
name = bottom;
position = "{414, 0}";
},
{
name = top;
position = "{554, 991}";
}
);
layerId = "2146CDF3-509B-498B-BCC4-8BA41979C9D7";
paths = (
{
closed = 1;
nodes = (
"317 0 LINE",
"653 0 LINE",
"1055 991 LINE",
"709 991 LINE",
"512 320 LINE",
"449 991 LINE",
"104 991 LINE"
);
}
);
width = 968;
},
{
anchors = (
{
name = bottom;
position = "{386, 0}";
},
{
name = top;
position = "{521, 956}";
}
);
layerId = "3D647E92-BB94-42FD-9C12-A678B6C1687F";
paths = (
{
closed = 1;
nodes = (
"374 0 LINE",
"530 0 LINE",
"962 956 LINE",
"802 956 LINE",
"468 166 LINE",
"282 956 LINE",
"122 956 LINE"
);
}
);
width = 906.4;
}
);
unicode = 0076;
},
{
glyphname = w;
lastChange = "2020-02-19 16:24:59 +0000";
layers = (
{
anchors = (
{
name = bottom;
position = "{554, 0}";
},
{
name = top;
position = "{686, 939}";
}
);
layerId = "AD226DB4-BE97-401A-8A1F-FC26A063DFB1";
paths = (
{
closed = 1;
nodes = (
"325 0 LINE",
"384 0 LINE",
"688 766 LINE",
"855 0 LINE",
"914 0 LINE",
"1280 939 LINE",
"1214 939 LINE",
"891 93 LINE",
"722 901 LINE",
"682 901 LINE",
"367 107 LINE",
"198 939 LINE",
"131 939 LINE"
);
}
);
width = 1239;
},
{
anchors = (
{
name = bottom;
position = "{648, 0}";
},
{
name = top;
position = "{788, 991}";
}
);
layerId = "2146CDF3-509B-498B-BCC4-8BA41979C9D7";
paths = (
{
closed = 1;
nodes = (
"305 0 LINE",
"601 0 LINE",
"760 476 LINE",
"835 0 LINE",
"1131 0 LINE",
"1516 991 LINE",
"1220 991 LINE",
"1022 375 LINE",
"952 928 LINE",
"669 928 LINE",
"492 376 LINE",
"415 991 LINE",
"104 991 LINE"
);
}
);
width = 1436;
},
{
anchors = (
{
name = bottom;
position = "{585, 0}";
},
{
name = top;
position = "{720, 956}";
}
);
layerId = "3D647E92-BB94-42FD-9C12-A678B6C1687F";
paths = (
{
closed = 1;
nodes = (
"318 0 LINE",
"456 0 LINE",
"712 670 LINE",
"848 0 LINE",
"986 0 LINE",
"1358 956 LINE",
"1216 956 LINE",
"934 186 LINE",
"798 910 LINE",
"678 910 LINE",
"408 196 LINE",
"270 956 LINE",
"122 956 LINE"
);
}
);
width = 1304.09565;
}
);
unicode = 0077;
},
{
glyphname = x;
lastChange = "2020-02-19 16:24:59 +0000";
layers = (
{
anchors = (
{
name = bottom;
position = "{354, 0}";
},
{
name = top;
position = "{486, 939}";
}
);
layerId = "AD226DB4-BE97-401A-8A1F-FC26A063DFB1";
paths = (
{
closed = 1;
nodes = (
"144 0 LINE",
"453 416 LINE",
"691 0 LINE",
"770 0 LINE",
"499 471 LINE",
"862 941 LINE",
"783 941 LINE",
"474 529 LINE",
"232 941 LINE",
"153 941 LINE",
"422 471 LINE",
"66 0 LINE"
);
}
);
width = 839;
},
{
anchors = (
{
name = bottom;
position = "{475, 0}";
},
{
name = top;
position = "{615, 991}";
}
);
layerId = "2146CDF3-509B-498B-BCC4-8BA41979C9D7";
paths = (
{
closed = 1;
nodes = (
"374 0 LINE",
"558 252 LINE",
"718 0 LINE",
"1079 0 LINE",
"775 491 LINE",
"1171 993 LINE",
"810 993 LINE",
"619 739 LINE",
"468 993 LINE",
"101 993 LINE",
"409 491 LINE",
"6 0 LINE"
);
}
);
width = 1089;
},
{
anchors = (
{
name = bottom;
position = "{394, 0}";
},
{
name = top;
position = "{529, 956}";
}
);
layerId = "3D647E92-BB94-42FD-9C12-A678B6C1687F";
paths = (
{
closed = 1;
nodes = (
"220 0 LINE",
"488 362 LINE",
"700 0 LINE",
"872 0 LINE",
"590 478 LINE",
"964 958 LINE",
"792 958 LINE",
"522 598 LINE",
"310 958 LINE",
"136 958 LINE",
"418 478 LINE",
"46 0 LINE"
);
}
);
width = 921.6087;
}
);
unicode = 0078;
},
{
glyphname = y;
lastChange = "2020-02-19 16:24:59 +0000";
layers = (
{
anchors = (
{
name = bottom;
position = "{351, 0}";
},
{
name = top;
position = "{483, 939}";
}
);
layerId = "AD226DB4-BE97-401A-8A1F-FC26A063DFB1";
paths = (
{
closed = 1;
nodes = (
"290 -481 OFFCURVE",
"379 -360 OFFCURVE",
"436 -205 CURVE SMOOTH",
"849 939 LINE",
"783 939 LINE",
"479 113 LINE",
"243 939 LINE",
"176 939 LINE",
"440 0 LINE",
"404 -102 LINE SMOOTH",
"362 -239 OFFCURVE",
"294 -417 OFFCURVE",
"160 -417 CURVE SMOOTH",
"94 -417 OFFCURVE",
"42 -393 OFFCURVE",
"-9 -330 CURVE",
"-17 -405 LINE",
"38 -453 OFFCURVE",
"89 -481 OFFCURVE",
"154 -481 CURVE SMOOTH"
);
}
);
width = 833;
},
{
anchors = (
{
name = bottom;
position = "{406, 0}";
},
{
name = top;
position = "{546, 991}";
}
);
layerId = "2146CDF3-509B-498B-BCC4-8BA41979C9D7";
paths = (
{
closed = 1;
nodes = (
"362 -514 OFFCURVE",
"478 -432 OFFCURVE",
"587 -159 CURVE SMOOTH",
"1052 991 LINE",
"750 991 LINE",
"531 363 LINE",
"440 991 LINE",
"97 991 LINE",
"355 0 LINE",
"319 -89 LINE SMOOTH",
"271 -200 OFFCURVE",
"215 -226 OFFCURVE",
"160 -226 CURVE SMOOTH",
"100 -226 OFFCURVE",
"36 -209 OFFCURVE",
"-29 -172 CURVE",
"-56 -457 LINE",
"32 -499 OFFCURVE",
"122 -514 OFFCURVE",
"214 -514 CURVE SMOOTH"
);
}
);
width = 951;
},
{
anchors = (
{
name = bottom;
position = "{369, 0}";
},
{
name = top;
position = "{504, 956}";
}
);
layerId = "3D647E92-BB94-42FD-9C12-A678B6C1687F";
paths = (
{
closed = 1;
nodes = (
"314 -492 OFFCURVE",
"412 -384 OFFCURVE",
"486 -190 CURVE SMOOTH",
"916 956 LINE",
"772 956 LINE",
"496 196 LINE",
"308 956 LINE",
"150 956 LINE",
"412 0 LINE",
"376 -98 LINE SMOOTH",
"332 -226 OFFCURVE",
"268 -354 OFFCURVE",
"160 -354 CURVE SMOOTH",
"96 -354 OFFCURVE",
"40 -332 OFFCURVE",
"-16 -278 CURVE",
"-30 -422 LINE",
"36 -468 OFFCURVE",
"100 -492 OFFCURVE",
"174 -492 CURVE SMOOTH"
);
}
);
width = 871.9913;
}
);
unicode = 0079;
},
{
glyphname = z;
lastChange = "2020-02-19 16:24:59 +0000";
layers = (
{
anchors = (
{
name = bottom;
position = "{342, 0}";
},
{
name = center;
position = "{408, 470}";
},
{
name = top;
position = "{474, 939}";
}
);
layerId = "AD226DB4-BE97-401A-8A1F-FC26A063DFB1";
paths = (
{
closed = 1;
nodes = (
"732 0 LINE",
"733 59 LINE",
"172 59 LINE",
"812 880 LINE",
"819 939 LINE",
"177 939 LINE",
"170 880 LINE",
"732 880 LINE",
"91 59 LINE",
"89 0 LINE"
);
}
);
width = 815;
},
{
anchors = (
{
name = bottom;
position = "{397, 0}";
},
{
name = center;
position = "{467, 496}";
},
{
name = top;
position = "{537, 991}";
}
);
layerId = "2146CDF3-509B-498B-BCC4-8BA41979C9D7";
paths = (
{
closed = 1;
nodes = (
"823 0 LINE",
"851 269 LINE",
"481 269 LINE",
"891 722 LINE",
"918 991 LINE",
"204 991 LINE",
"176 722 LINE",
"568 722 LINE",
"137 269 LINE",
"109 0 LINE"
);
}
);
width = 933;
},
{
anchors = (
{
name = bottom;
position = "{360, 0}";
},
{
name = center;
position = "{427, 479}";
},
{
name = top;
position = "{495, 956}";
}
);
layerId = "3D647E92-BB94-42FD-9C12-A678B6C1687F";
paths = (
{
closed = 1;
nodes = (
"762 0 LINE",
"772 128 LINE",
"274 128 LINE",
"838 828 LINE",
"852 956 LINE",
"186 956 LINE",
"172 828 LINE",
"678 828 LINE",
"106 128 LINE",
"96 0 LINE"
);
}
);
width = 853.9913;
}
);
unicode = 007A;
},
{
glyphname = A;
lastChange = "2020-02-19 16:24:59 +0000";
layers = (
{
anchors = (
{
name = bottom;
position = "{401, 0}";
},
{
name = ogonek;
position = "{859, 25}";
},
{
name = top;
position = "{572, 1215}";
}
);
layerId = "AD226DB4-BE97-401A-8A1F-FC26A063DFB1";
paths = (
{
closed = 1;
nodes = (
"122 0 LINE",
"270 363 LINE",
"739 363 LINE",
"816 0 LINE",
"879 0 LINE",
"622 1215 LINE",
"547 1215 LINE",
"53 0 LINE"
);
},
{
closed = 1;
nodes = (
"574 1118 LINE",
"722 429 LINE",
"294 429 LINE"
);
}
);
width = 934;
},
{
anchors = (
{
name = bottom;
position = "{548, 0}";
},
{
name = ogonek;
position = "{1044, 10}";
},
{
name = top;
position = "{738, 1346}";
}
);
layerId = "2146CDF3-509B-498B-BCC4-8BA41979C9D7";
paths = (
{
closed = 1;
nodes = (
"346 0 LINE",
"434 232 LINE",
"844 232 LINE",
"888 0 LINE",
"1208 0 LINE",
"943 1346 LINE",
"567 1346 LINE",
"33 0 LINE"
);
},
{
closed = 1;
nodes = (
"713 960 LINE",
"801 475 LINE",
"530 475 LINE"
);
}
);
width = 1236;
},
{
anchors = (
{
name = bottom;
position = "{450, 0}";
},
{
name = ogonek;
position = "{920, 20}";
},
{
name = top;
position = "{627, 1258}";
}
);
layerId = "3D647E92-BB94-42FD-9C12-A678B6C1687F";
paths = (
{
closed = 1;
nodes = (
"196 0 LINE",
"324 320 LINE",
"774 320 LINE",
"840 0 LINE",
"988 0 LINE",
"728 1258 LINE",
"554 1258 LINE",
"46 0 LINE"
);
},
{
closed = 1;
nodes = (
"620 1066 LINE",
"748 444 LINE",
"372 444 LINE"
);
}
);
width = 1033.7913;
}
);
unicode = 0041;
},
{
glyphname = B;
lastChange = "2020-10-22 18:07:07 +0000";
layers = (
{
anchors = (
{
name = bottom;
position = "{469, 0}";
},
{
name = top;
position = "{640, 1215}";
}
);
layerId = "AD226DB4-BE97-401A-8A1F-FC26A063DFB1";
paths = (
{
closed = 1;
nodes = (
"569 0 LINE SMOOTH",
"828 0 OFFCURVE",
"940 146 OFFCURVE",
"959 327 CURVE",
"966 443 OFFCURVE",
"887 588 OFFCURVE",
"742 606 CURVE",
"899 640 OFFCURVE",
"978 762 OFFCURVE",
"988 900 CURVE SMOOTH",
"1006 1065 OFFCURVE",
"911 1215 OFFCURVE",
"683 1215 CURVE SMOOTH",
"311 1215 LINE",
"197 0 LINE"
);
},
{
closed = 1;
nodes = (
"317 577 LINE",
"623 577 LINE SMOOTH",
"805 577 OFFCURVE",
"907 476 OFFCURVE",
"889 324 CURVE SMOOTH",
"875 172 OFFCURVE",
"788 64 OFFCURVE",
"575 64 CURVE SMOOTH",
"269 64 LINE"
);
},
{
closed = 1;
nodes = (
"676 1152 LINE SMOOTH",
"835 1152 OFFCURVE",
"935 1059 OFFCURVE",
"921 899 CURVE SMOOTH",
"906 733 OFFCURVE",
"780 637 OFFCURVE",
"629 637 CURVE SMOOTH",
"321 637 LINE",
"369 1152 LINE"
);
}
);
width = 1070;
},
{
anchors = (
{
name = bottom;
position = "{541, 0}";
},
{
name = top;
position = "{731, 1346}";
}
);
layerId = "2146CDF3-509B-498B-BCC4-8BA41979C9D7";
paths = (
{
closed = 1;
nodes = (
"681 0 LINE SMOOTH",
"1052 0 OFFCURVE",
"1157 225 OFFCURVE",
"1169 379 CURVE",
"1190 561 OFFCURVE",
"1097 648 OFFCURVE",
"978 685 CURVE",
"1102 731 OFFCURVE",
"1195 834 OFFCURVE",
"1212 985 CURVE SMOOTH",
"1230 1190 OFFCURVE",
"1102 1346 OFFCURVE",
"808 1346 CURVE SMOOTH",
"278 1346 LINE",
"151 0 LINE"
);
},
{
closed = 1;
nodes = (
"495 525 LINE",
"722 525 LINE SMOOTH",
"825 525 OFFCURVE",
"855 476 OFFCURVE",
"850 403 CURVE SMOOTH",
"842 330 OFFCURVE",
"788 288 OFFCURVE",
"700 288 CURVE SMOOTH",
"472 288 LINE"
);
},
{
closed = 1;
nodes = (
"767 1061 LINE SMOOTH",
"874 1061 OFFCURVE",
"908 1007 OFFCURVE",
"901 938 CURVE SMOOTH",
"893 864 OFFCURVE",
"852 815 OFFCURVE",
"741 815 CURVE SMOOTH",
"524 815 LINE",
"547 1061 LINE"
);
}
);
width = 1221;
},
{
anchors = (
{
name = bottom;
position = "{493, 0}";
},
{
name = top;
position = "{670, 1258}";
}
);
layerId = "3D647E92-BB94-42FD-9C12-A678B6C1687F";
paths = (
{
closed = 1;
nodes = (
"606.009 0 LINE SMOOTH",
"902 0 OFFCURVE",
"1012 172 OFFCURVE",
"1028 344 CURVE SMOOTH",
"1040 482 OFFCURVE",
"956 608 OFFCURVE",
"820 632 CURVE",
"966 670 OFFCURVE",
"1050 786 OFFCURVE",
"1062 928 CURVE SMOOTH",
"1080 1106 OFFCURVE",
"974 1258 OFFCURVE",
"724 1258 CURVE SMOOTH",
"300 1258 LINE",
"182 0 LINE"
);
},
{
closed = 1;
nodes = (
"376 560 LINE",
"656 560 LINE SMOOTH",
"812 560 OFFCURVE",
"890 476 OFFCURVE",
"876 350 CURVE SMOOTH",
"864 224 OFFCURVE",
"788 138 OFFCURVE",
"616 138 CURVE SMOOTH",
"336 138 LINE"
);
},
{
closed = 1;
nodes = (
"706 1122 LINE SMOOTH",
"848 1122 OFFCURVE",
"926 1042 OFFCURVE",
"914 912 CURVE SMOOTH",
"902 776 OFFCURVE",
"804 696 OFFCURVE",
"666 696 CURVE SMOOTH",
"388 696 LINE",
"428 1122 LINE"
);
}
);
width = 1119.89565;
}
);
unicode = 0042;
},
{
glyphname = C;
lastChange = "2020-10-22 18:07:07 +0000";
layers = (
{
anchors = (
{
name = bottom;
position = "{616, 0}";
},
{
name = top;
position = "{687, 1215}";
}
);
layerId = "AD226DB4-BE97-401A-8A1F-FC26A063DFB1";
paths = (
{
closed = 1;
nodes = (
"790 -15 OFFCURVE",
"989 138 OFFCURVE",
"1008 386 CURVE",
"939 386 LINE",
"921 180 OFFCURVE",
"768 46 OFFCURVE",
"558 46 CURVE SMOOTH",
"292 46 OFFCURVE",
"198 306 OFFCURVE",
"228 619 CURVE SMOOTH",
"258 975 OFFCURVE",
"459 1168 OFFCURVE",
"663 1168 CURVE SMOOTH",
"816 1168 OFFCURVE",
"944 1060 OFFCURVE",
"985 882 CURVE",
"1065 903 LINE",
"1011 1099 OFFCURVE",
"880 1232 OFFCURVE",
"670 1232 CURVE SMOOTH",
"422 1232 OFFCURVE",
"192 1013 OFFCURVE",
"159 619 CURVE SMOOTH",
"125 264 OFFCURVE",
"259 -15 OFFCURVE",
"550 -15 CURVE SMOOTH"
);
}
);
width = 1063;
},
{
anchors = (
{
name = bottom;
position = "{680, 0}";
},
{
name = top;
position = "{714, 1346}";
}
);
layerId = "2146CDF3-509B-498B-BCC4-8BA41979C9D7";
paths = (
{
closed = 1;
nodes = (
"929 -35 OFFCURVE",
"1120 138 OFFCURVE",
"1153 452 CURVE",
"834 452 LINE",
"822 350 OFFCURVE",
"755 270 OFFCURVE",
"637 270 CURVE SMOOTH",
"509 270 OFFCURVE",
"434 397 OFFCURVE",
"458 671 CURVE SMOOTH",
"488 948 OFFCURVE",
"590 1077 OFFCURVE",
"715 1077 CURVE SMOOTH",
"816 1077 OFFCURVE",
"859 994 OFFCURVE",
"873 882 CURVE",
"1190 942 LINE",
"1189 1198 OFFCURVE",
"1050 1377 OFFCURVE",
"742 1377 CURVE SMOOTH",
"422 1377 OFFCURVE",
"186 1138 OFFCURVE",
"139 671 CURVE SMOOTH",
"92 204 OFFCURVE",
"292 -35 OFFCURVE",
"610 -35 CURVE SMOOTH"
);
}
);
width = 1188;
},
{
anchors = (
{
name = bottom;
position = "{637, 0}";
},
{
name = top;
position = "{696, 1258}";
}
);
layerId = "3D647E92-BB94-42FD-9C12-A678B6C1687F";
paths = (
{
closed = 1;
nodes = (
"836 -22 OFFCURVE",
"1032 138 OFFCURVE",
"1056 408 CURVE",
"904 408 LINE",
"888 236 OFFCURVE",
"764 120 OFFCURVE",
"584 120 CURVE SMOOTH",
"364 120 OFFCURVE",
"276 336 OFFCURVE",
"304 636 CURVE SMOOTH",
"334 966 OFFCURVE",
"502 1138 OFFCURVE",
"680 1138 CURVE SMOOTH",
"816 1138 OFFCURVE",
"916 1038 OFFCURVE",
"947.991 882 CURVE",
"1106 916 LINE",
"1070 1132 OFFCURVE",
"936 1280 OFFCURVE",
"694 1280 CURVE SMOOTH",
"422 1280 OFFCURVE",
"190 1054 OFFCURVE",
"152 636 CURVE SMOOTH",
"114 244 OFFCURVE",
"270 -22 OFFCURVE",
"570 -22 CURVE SMOOTH"
);
}
);
width = 1104.30435;
}
);
unicode = 0043;
},
{
glyphname = D;
lastChange = "2020-02-19 16:24:59 +0000";
layers = (
{
anchors = (
{
name = bottom;
position = "{505, 0}";
},
{
name = center;
position = "{590, 608}";
},
{
name = top;
position = "{676, 1215}";
}
);
layerId = "AD226DB4-BE97-401A-8A1F-FC26A063DFB1";
paths = (
{
closed = 1;
nodes = (
"195 0 LINE",
"475 0 LINE SMOOTH",
"806 0 OFFCURVE",
"1031 241 OFFCURVE",
"1064 610 CURVE SMOOTH",
"1100 971 OFFCURVE",
"924 1215 OFFCURVE",
"593 1215 CURVE SMOOTH",
"309 1215 LINE"
);
},
{
closed = 1;
nodes = (
"588 1155 LINE SMOOTH",
"872 1155 OFFCURVE",
"1025 923 OFFCURVE",
"997 610 CURVE SMOOTH",
"971 290 OFFCURVE",
"767 55 OFFCURVE",
"483 55 CURVE SMOOTH",
"262 55 LINE",
"367 1155 LINE"
);
}
);
width = 1142;
},
{
anchors = (
{
name = bottom;
position = "{574, 0}";
},
{
name = center;
position = "{669, 673}";
},
{
name = top;
position = "{764, 1346}";
}
);
layerId = "2146CDF3-509B-498B-BCC4-8BA41979C9D7";
paths = (
{
closed = 1;
nodes = (
"149 0 LINE",
"587 0 LINE SMOOTH",
"957 0 OFFCURVE",
"1241 261 OFFCURVE",
"1281 670 CURVE SMOOTH",
"1317 1089 OFFCURVE",
"1082 1346 OFFCURVE",
"711 1346 CURVE SMOOTH",
"276 1346 LINE"
);
},
{
closed = 1;
nodes = (
"679 1043 LINE SMOOTH",
"872 1043 OFFCURVE",
"979 890 OFFCURVE",
"958 670 CURVE SMOOTH",
"932 460 OFFCURVE",
"806 305 OFFCURVE",
"614 305 CURVE SMOOTH",
"479 305 LINE",
"545 1043 LINE"
);
}
);
width = 1287;
},
{
anchors = (
{
name = bottom;
position = "{528, 0}";
},
{
name = center;
position = "{616, 629}";
},
{
name = top;
position = "{705, 1258}";
}
);
layerId = "3D647E92-BB94-42FD-9C12-A678B6C1687F";
paths = (
{
closed = 1;
nodes = (
"180 0 LINE",
"512.009 0 LINE SMOOTH",
"856 0 OFFCURVE",
"1100 248 OFFCURVE",
"1136 630 CURVE SMOOTH",
"1172 1010 OFFCURVE",
"976 1258 OFFCURVE",
"632 1258 CURVE SMOOTH",
"298 1258 LINE"
);
},
{
closed = 1;
nodes = (
"618 1118 LINE SMOOTH",
"872 1117.991 OFFCURVE",
"1010 912 OFFCURVE",
"984 630 CURVE SMOOTH",
"958 346 OFFCURVE",
"780 138 OFFCURVE",
"526 138 CURVE SMOOTH",
"334 138 LINE",
"426 1118 LINE"
);
}
);
width = 1189.91304;
}
);
unicode = 0044;
},
{
glyphname = E;
lastChange = "2020-02-19 16:24:59 +0000";
layers = (
{
anchors = (
{
name = above;
position = "{530, 1270}";
},
{
name = bottom;
position = "{547, 0}";
},
{
name = ogonek;
position = "{544, 30}";
},
{
name = top;
position = "{588, 1215}";
},
{
name = topleft;
position = "{125, 1215}";
}
);
layerId = "AD226DB4-BE97-401A-8A1F-FC26A063DFB1";
paths = (
{
closed = 1;
nodes = (
"830 0 LINE",
"840 64 LINE",
"267 64 LINE",
"315 586 LINE",
"855 586 LINE",
"858 644 LINE",
"319 644 LINE",
"367 1152 LINE",
"937 1152 LINE",
"948 1215 LINE",
"309 1215 LINE",
"195 0 LINE"
);
}
);
width = 966;
},
{
anchors = (
{
name = above;
position = "{530, 1270}";
},
{
name = bottom;
position = "{582, 0}";
},
{
name = ogonek;
position = "{586, 10}";
},
{
name = top;
position = "{672, 1346}";
},
{
name = topleft;
position = "{140, 1346}";
}
);
layerId = "2146CDF3-509B-498B-BCC4-8BA41979C9D7";
paths = (
{
closed = 1;
nodes = (
"969 0 LINE",
"991 288 LINE",
"470 288 LINE",
"493 526 LINE",
"980 526 LINE",
"1009 814 LINE",
"522 814 LINE",
"545 1061 LINE",
"1068 1061 LINE",
"1093 1346 LINE",
"276 1346 LINE",
"149 0 LINE"
);
}
);
width = 1104;
},
{
anchors = (
{
name = above;
position = "{530, 1270}";
},
{
name = bottom;
position = "{559, 0}";
},
{
name = ogonek;
position = "{558, 23}";
},
{
name = top;
position = "{616, 1258}";
},
{
name = topleft;
position = "{130, 1258}";
}
);
layerId = "3D647E92-BB94-42FD-9C12-A678B6C1687F";
paths = (
{
closed = 1;
nodes = (
"876 0 LINE",
"890 138 LINE",
"334 138 LINE",
"374 566 LINE",
"896 566 LINE",
"908 700 LINE",
"386 700 LINE",
"426 1122 LINE",
"980 1122 LINE",
"996 1258 LINE",
"298 1258 LINE",
"180 0 LINE"
);
}
);
width = 1011.6;
}
);
unicode = 0045;
},
{
glyphname = F;
lastChange = "2020-02-19 16:24:59 +0000";
layers = (
{
anchors = (
{
name = bottom;
position = "{385, 0}";
},
{
name = top;
position = "{556, 1215}";
}
);
layerId = "AD226DB4-BE97-401A-8A1F-FC26A063DFB1";
paths = (
{
closed = 1;
nodes = (
"263 0 LINE",
"317 588 LINE",
"858 588 LINE",
"861 652 LINE",
"321 652 LINE",
"369 1152 LINE",
"939 1152 LINE",
"947 1215 LINE",
"311 1215 LINE",
"197 0 LINE"
);
}
);
width = 901;
},
{
anchors = (
{
name = bottom;
position = "{446, 0}";
},
{
name = top;
position = "{636, 1346}";
}
);
layerId = "2146CDF3-509B-498B-BCC4-8BA41979C9D7";
paths = (
{
closed = 1;
nodes = (
"447 0 LINE",
"495 528 LINE",
"937 528 LINE",
"966 810 LINE",
"524 810 LINE",
"547 1061 LINE",
"1044 1061 LINE",
"1072 1346 LINE",
"278 1346 LINE",
"151 0 LINE"
);
}
);
width = 1032;
},
{
anchors = (
{
name = bottom;
position = "{405, 0}";
},
{
name = top;
position = "{582, 1258}";
}
);
layerId = "3D647E92-BB94-42FD-9C12-A678B6C1687F";
paths = (
{
closed = 1;
nodes = (
"324 0 LINE",
"376 568 LINE",
"884 568 LINE",
"896 704 LINE",
"388 704 LINE",
"428 1122 LINE",
"974 1122 LINE",
"988 1258 LINE",
"300 1258 LINE",
"182 0 LINE"
);
}
);
width = 944.28696;
}
);
unicode = 0046;
},
{
glyphname = G;
lastChange = "2020-10-22 18:07:07 +0000";
layers = (
{
anchors = (
{
name = bottom;
position = "{483, 0}";
},
{
name = top;
position = "{654, 1215}";
}
);
layerId = "AD226DB4-BE97-401A-8A1F-FC26A063DFB1";
paths = (
{
closed = 1;
nodes = (
"741 -15 OFFCURVE",
"851 86 OFFCURVE",
"911 258 CURVE",
"901 255 LINE",
"900 170 OFFCURVE",
"893 84 OFFCURVE",
"891 0 CURVE",
"947 0 LINE",
"996 572 LINE",
"622 572 LINE",
"616 520 LINE",
"969 499 LINE",
"895 544 LINE",
"919 516 OFFCURVE",
"922 503 OFFCURVE",
"922 494 CURVE SMOOTH",
"922 176 OFFCURVE",
"747 48 OFFCURVE",
"570 48 CURVE SMOOTH",
"317 48 OFFCURVE",
"196 278 OFFCURVE",
"222 584 CURVE SMOOTH",
"260 949 OFFCURVE",
"483 1164 OFFCURVE",
"717 1164 CURVE SMOOTH",
"819 1164 OFFCURVE",
"919 1121 OFFCURVE",
"1010 1011 CURVE",
"1065 1059 LINE",
"968 1176 OFFCURVE",
"855 1228 OFFCURVE",
"724 1228 CURVE SMOOTH",
"471 1228 OFFCURVE",
"194 1028 OFFCURVE",
"157 584 CURVE SMOOTH",
"119 202 OFFCURVE",
"312 -15 OFFCURVE",
"561 -15 CURVE SMOOTH"
);
}
);
width = 1097;
},
{
anchors = (
{
name = bottom;
position = "{574, 0}";
},
{
name = top;
position = "{764, 1346}";
}
);
layerId = "2146CDF3-509B-498B-BCC4-8BA41979C9D7";
paths = (
{
closed = 1;
nodes = (
"754 -35 OFFCURVE",
"861 66 OFFCURVE",
"921 238 CURVE",
"904 235 LINE",
"910 157 OFFCURVE",
"913 78 OFFCURVE",
"918 0 CURVE",
"1157 0 LINE",
"1226 723 LINE",
"707 723 LINE",
"688 514 LINE",
"969 515 LINE",
"940 577 LINE",
"928 534 OFFCURVE",
"927 514 OFFCURVE",
"922 481 CURVE",
"890 368 OFFCURVE",
"793 272 OFFCURVE",
"661 272 CURVE SMOOTH",
"527 272 OFFCURVE",
"432 423 OFFCURVE",
"458 675 CURVE SMOOTH",
"477 922 OFFCURVE",
"601 1079 OFFCURVE",
"737 1079 CURVE SMOOTH",
"839 1079 OFFCURVE",
"899 1009 OFFCURVE",
"925 899 CURVE",
"1243 960 LINE",
"1204 1248 OFFCURVE",
"1052 1379 OFFCURVE",
"784 1379 CURVE SMOOTH",
"432 1379 OFFCURVE",
"181 1088 OFFCURVE",
"137 675 CURVE SMOOTH",
"99 262 OFFCURVE",
"299 -35 OFFCURVE",
"607 -35 CURVE SMOOTH"
);
}
);
width = 1288;
},
{
anchors = (
{
name = bottom;
position = "{513, 0}";
},
{
name = top;
position = "{690, 1258}";
}
);
layerId = "3D647E92-BB94-42FD-9C12-A678B6C1687F";
paths = (
{
closed = 1;
nodes = (
"745 -22 OFFCURVE",
"854 79 OFFCURVE",
"914 251 CURVE",
"902 248 LINE",
"903 166 OFFCURVE",
"900 82 OFFCURVE",
"900 0 CURVE",
"1016 0 LINE",
"1072 622 LINE",
"650 622 LINE",
"640 518 LINE",
"969 504 LINE",
"910 555 LINE",
"922 522 OFFCURVE",
"924 507 OFFCURVE",
"922 490 CURVE",
"911 239 OFFCURVE",
"762 122 OFFCURVE",
"600 122 CURVE SMOOTH",
"386 122 OFFCURVE",
"274 326 OFFCURVE",
"300 614 CURVE SMOOTH",
"332 940 OFFCURVE",
"522 1136 OFFCURVE",
"724 1136 CURVE SMOOTH",
"826 1136 OFFCURVE",
"912 1084 OFFCURVE",
"982 974 CURVE",
"1124 1026 LINE",
"1046 1200 OFFCURVE",
"920 1278 OFFCURVE",
"744 1278 CURVE SMOOTH",
"458 1278 OFFCURVE",
"190 1048 OFFCURVE",
"150 614 CURVE SMOOTH",
"112 222 OFFCURVE",
"308 -22 OFFCURVE",
"576 -22 CURVE SMOOTH"
);
}
);
width = 1160.11304;
}
);
unicode = 0047;
},
{
glyphname = H;
lastChange = "2020-02-19 16:24:59 +0000";
layers = (
{
anchors = (
{
name = bottom;
position = "{500, 0}";
},
{
name = center;
position = "{585, 608}";
},
{
name = top;
position = "{671, 1215}";
},
{
name = topleft;
position = "{125, 1215}";
}
);
layerId = "AD226DB4-BE97-401A-8A1F-FC26A063DFB1";
paths = (
{
closed = 1;
nodes = (
"263 0 LINE",
"317 588 LINE",
"923 588 LINE",
"869 0 LINE",
"935 0 LINE",
"1053 1215 LINE",
"983 1215 LINE",
"927 648 LINE",
"321 648 LINE",
"377 1215 LINE",
"311 1215 LINE",
"197 0 LINE"
);
}
);
width = 1132;
},
{
anchors = (
{
name = bottom;
position = "{605, 0}";
},
{
name = center;
position = "{700, 673}";
},
{
name = top;
position = "{795, 1346}";
},
{
name = topleft;
position = "{140, 1346}";
}
);
layerId = "2146CDF3-509B-498B-BCC4-8BA41979C9D7";
paths = (
{
closed = 1;
nodes = (
"447 0 LINE",
"495 528 LINE",
"950 528 LINE",
"902 0 LINE",
"1198 0 LINE",
"1322 1346 LINE",
"1029 1346 LINE",
"979 818 LINE",
"524 818 LINE",
"574 1346 LINE",
"278 1346 LINE",
"151 0 LINE"
);
}
);
width = 1349;
},
{
anchors = (
{
name = bottom;
position = "{535, 0}";
},
{
name = center;
position = "{623, 629}";
},
{
name = top;
position = "{712, 1258}";
},
{
name = topleft;
position = "{130, 1258}";
}
);
layerId = "3D647E92-BB94-42FD-9C12-A678B6C1687F";
paths = (
{
closed = 1;
nodes = (
"324 0 LINE",
"376 568 LINE",
"932 568 LINE",
"880 0 LINE",
"1022 0 LINE",
"1142 1258 LINE",
"998 1258 LINE",
"944 704 LINE",
"388 704 LINE",
"442 1258 LINE",
"300 1258 LINE",
"182 0 LINE"
);
}
);
width = 1203.70435;
}
);
unicode = 0048;
},
{
glyphname = I;
lastChange = "2020-02-19 16:24:59 +0000";
layers = (
{
anchors = (
{
name = bottom;
position = "{212, 0}";
},
{
name = ogonek;
position = "{243, 25}";
},
{
name = top;
position = "{333, 1215}";
},
{
name = topleft;
position = "{125, 1215}";
}
);
layerId = "AD226DB4-BE97-401A-8A1F-FC26A063DFB1";
paths = (
{
closed = 1;
nodes = (
"263 0 LINE",
"377 1215 LINE",
"311 1215 LINE",
"197 0 LINE"
);
}
);
width = 456;
},
{
anchors = (
{
name = bottom;
position = "{231, 0}";
},
{
name = ogonek;
position = "{310, 5}";
},
{
name = top;
position = "{421, 1346}";
},
{
name = topleft;
position = "{140, 1346}";
}
);
layerId = "2146CDF3-509B-498B-BCC4-8BA41979C9D7";
paths = (
{
closed = 1;
nodes = (
"447 0 LINE",
"574 1346 LINE",
"278 1346 LINE",
"151 0 LINE"
);
}
);
width = 601;
},
{
anchors = (
{
name = bottom;
position = "{218, 0}";
},
{
name = ogonek;
position = "{265, 18}";
},
{
name = top;
position = "{362, 1258}";
},
{
name = topleft;
position = "{130, 1258}";
}
);
layerId = "3D647E92-BB94-42FD-9C12-A678B6C1687F";
paths = (
{
closed = 1;
nodes = (
"324 0 LINE",
"442 1258 LINE",
"300 1258 LINE",
"182 0 LINE"
);
}
);
width = 503.91304;
}
);
unicode = 0049;
},
{
glyphname = J;
lastChange = "2020-10-22 18:07:07 +0000";
layers = (
{
anchors = (
{
name = bottom;
position = "{259, 0}";
},
{
name = top;
position = "{430, 1215}";
}
);
layerId = "AD226DB4-BE97-401A-8A1F-FC26A063DFB1";
paths = (
{
closed = 1;
nodes = (
"76 23 OFFCURVE",
"139 -15 OFFCURVE",
"233 -15 CURVE SMOOTH",
"399 -15 OFFCURVE",
"507 90 OFFCURVE",
"533 321 CURVE SMOOTH",
"615 1215 LINE",
"553 1215 LINE",
"469 321 LINE",
"449 155 OFFCURVE",
"389 52 OFFCURVE",
"239 52 CURVE SMOOTH",
"153 52 OFFCURVE",
"81 90 OFFCURVE",
"10 157 CURVE",
"7 71 LINE"
);
}
);
width = 650;
},
{
anchors = (
{
name = bottom;
position = "{373, 0}";
},
{
name = top;
position = "{563, 1346}";
}
);
layerId = "2146CDF3-509B-498B-BCC4-8BA41979C9D7";
paths = (
{
closed = 1;
nodes = (
"136 -4 OFFCURVE",
"244 -35 OFFCURVE",
"358 -35 CURVE SMOOTH",
"577 -35 OFFCURVE",
"757 90 OFFCURVE",
"790 452 CURVE SMOOTH",
"878 1346 LINE",
"573 1346 LINE",
"489 452 LINE",
"482 333 OFFCURVE",
"435 288 OFFCURVE",
"357 288 CURVE SMOOTH",
"284 288 OFFCURVE",
"180 307 OFFCURVE",
"82 367 CURVE",
"46 44 LINE"
);
}
);
width = 886;
},
{
anchors = (
{
name = bottom;
position = "{297, 0}";
},
{
name = top;
position = "{474, 1258}";
}
);
layerId = "3D647E92-BB94-42FD-9C12-A678B6C1687F";
paths = (
{
closed = 1;
nodes = (
"96 14 OFFCURVE",
"174 -22 OFFCURVE",
"274 -22 CURVE SMOOTH",
"458 -22 OFFCURVE",
"590 90 OFFCURVE",
"618 364 CURVE SMOOTH",
"702 1258 LINE",
"560 1258 LINE",
"476 364 LINE SMOOTH",
"460 214 OFFCURVE",
"404 130 OFFCURVE",
"278 130 CURVE SMOOTH",
"196 130 OFFCURVE",
"114 162 OFFCURVE",
"34 226 CURVE",
"20 62 LINE"
);
}
);
width = 727.98261;
}
);
unicode = 004A;
},
{
glyphname = K;
lastChange = "2020-02-19 16:24:59 +0000";
layers = (
{
anchors = (
{
name = bottom;
position = "{438, 0}";
},
{
name = top;
position = "{609, 1215}";
}
);
layerId = "AD226DB4-BE97-401A-8A1F-FC26A063DFB1";
paths = (
{
closed = 1;
nodes = (
"197 0 LINE",
"265 0 LINE",
"307 471 LINE",
"453 617 LINE",
"854 0 LINE",
"939 0 LINE",
"500 672 LINE",
"1027 1215 LINE",
"935 1215 LINE",
"321 580 LINE",
"379 1215 LINE",
"311 1215 LINE"
);
}
);
width = 1007;
},
{
anchors = (
{
name = bottom;
position = "{568, 0}";
},
{
name = top;
position = "{758, 1346}";
}
);
layerId = "2146CDF3-509B-498B-BCC4-8BA41979C9D7";
paths = (
{
closed = 1;
nodes = (
"151 0 LINE",
"449 0 LINE",
"491 425 LINE",
"571 512 LINE",
"914 0 LINE",
"1300 0 LINE",
"796 738 LINE",
"1388 1346 LINE",
"981 1346 LINE",
"531 870 LINE",
"576 1346 LINE",
"278 1346 LINE"
);
}
);
width = 1276;
},
{
anchors = (
{
name = bottom;
position = "{481, 0}";
},
{
name = top;
position = "{658, 1258}";
}
);
layerId = "3D647E92-BB94-42FD-9C12-A678B6C1687F";
paths = (
{
closed = 1;
nodes = (
"182 0 LINE",
"326 0 LINE",
"368 456 LINE",
"492 582 LINE",
"874 0 LINE",
"1058 0 LINE",
"598 694 LINE",
"1146 1258 LINE",
"950 1258 LINE",
"390 676 LINE",
"444 1258 LINE",
"300 1258 LINE"
);
}
);
width = 1095.88696;
}
);
unicode = 004B;
},
{
glyphname = L;
lastChange = "2020-02-19 16:24:59 +0000";
layers = (
{
anchors = (
{
name = bottom;
position = "{489, 0}";
},
{
name = center;
position = "{414, 608}";
},
{
name = top;
position = "{500, 1215}";
},
{
name = topright;
position = "{875, 1215}";
}
);
layerId = "AD226DB4-BE97-401A-8A1F-FC26A063DFB1";
paths = (
{
closed = 1;
nodes = (
"793 0 LINE",
"799 64 LINE",
"269 64 LINE",
"377 1215 LINE",
"311 1215 LINE",
"197 0 LINE"
);
}
);
width = 790;
},
{
anchors = (
{
name = bottom;
position = "{404, 0}";
},
{
name = center;
position = "{499, 673}";
},
{
name = top;
position = "{594, 1346}";
},
{
name = topright;
position = "{1048, 1346}";
}
);
layerId = "2146CDF3-509B-498B-BCC4-8BA41979C9D7";
paths = (
{
closed = 1;
nodes = (
"898 0 LINE",
"924 288 LINE",
"472 288 LINE",
"574 1346 LINE",
"278 1346 LINE",
"151 0 LINE"
);
}
);
width = 948;
},
{
anchors = (
{
name = bottom;
position = "{461, 0}";
},
{
name = center;
position = "{442, 629}";
},
{
name = top;
position = "{531, 1258}";
},
{
name = topright;
position = "{932, 1258}";
}
);
layerId = "3D647E92-BB94-42FD-9C12-A678B6C1687F";
paths = (
{
closed = 1;
nodes = (
"828 0 LINE",
"840 138 LINE",
"336 138 LINE",
"442 1258 LINE",
"300 1258 LINE",
"182 0 LINE"
);
}
);
width = 842.2087;
}
);
unicode = 004C;
},
{
glyphname = M;
lastChange = "2020-02-19 16:24:59 +0000";
layers = (
{
anchors = (
{
name = bottom;
position = "{671, 0}";
},
{
name = top;
position = "{842, 1215}";
}
);
layerId = "AD226DB4-BE97-401A-8A1F-FC26A063DFB1";
paths = (
{
closed = 1;
nodes = (
"263 0 LINE",
"370 1132 LINE",
"349 1139 LINE",
"730 175 LINE",
"780 175 LINE",
"1338 1133 LINE",
"1319 1129 LINE",
"1213 0 LINE",
"1277 0 LINE",
"1395 1215 LINE",
"1297 1215 LINE",
"765 276 LINE",
"406 1215 LINE",
"311 1215 LINE",
"197 0 LINE"
);
}
);
width = 1474;
},
{
anchors = (
{
name = bottom;
position = "{746, 0}";
},
{
name = top;
position = "{936, 1346}";
}
);
layerId = "2146CDF3-509B-498B-BCC4-8BA41979C9D7";
paths = (
{
closed = 1;
nodes = (
"447 0 LINE",
"540 1020 LINE",
"526 1016 LINE",
"736 123 LINE",
"925 123 LINE",
"1281 964 LINE",
"1267 971 LINE",
"1180 0 LINE",
"1480 0 LINE",
"1605 1346 LINE",
"1198 1346 LINE",
"883 670 LINE",
"702 1346 LINE",
"278 1346 LINE",
"151 0 LINE"
);
}
);
width = 1632;
},
{
anchors = (
{
name = bottom;
position = "{696, 0}";
},
{
name = top;
position = "{873, 1258}";
}
);
layerId = "3D647E92-BB94-42FD-9C12-A678B6C1687F";
paths = (
{
closed = 1;
nodes = (
"324 0 LINE",
"426 1095 LINE",
"407 1098 LINE",
"732 158 LINE",
"828 158 LINE",
"1319 1077 LINE",
"1302 1077 LINE",
"1202 0 LINE",
"1344 0 LINE",
"1464 1258 LINE",
"1264 1258 LINE",
"804 406 LINE",
"504 1258 LINE",
"300 1258 LINE",
"182 0 LINE"
);
}
);
width = 1526.2087;
}
);
unicode = 004D;
},
{
glyphname = N;
lastChange = "2020-02-19 16:24:59 +0000";
layers = (
{
anchors = (
{
name = bottom;
position = "{589, 0}";
},
{
name = top;
position = "{690, 1215}";
}
);
layerId = "AD226DB4-BE97-401A-8A1F-FC26A063DFB1";
paths = (
{
closed = 1;
nodes = (
"263 0 LINE",
"370 1151 LINE",
"350 1155 LINE",
"882 0 LINE",
"974 0 LINE",
"1087 1215 LINE",
"1021 1215 LINE",
"909 66 LINE",
"928 62 LINE",
"402 1215 LINE",
"307 1215 LINE",
"193 0 LINE"
);
}
);
width = 1169;
},
{
anchors = (
{
name = bottom;
position = "{680, 0}";
},
{
name = top;
position = "{800, 1346}";
}
);
guideLines = (
{
angle = 264.6099;
position = "{1041, 1346}";
}
);
layerId = "2146CDF3-509B-498B-BCC4-8BA41979C9D7";
paths = (
{
closed = 1;
nodes = (
"441 0 LINE",
"528 908 LINE",
"471 911 LINE",
"923 0 LINE",
"1210 0 LINE",
"1337 1346 LINE",
"1041 1346 LINE",
"959 473 LINE",
"1012 470 LINE",
"584 1346 LINE",
"274 1346 LINE",
"147 0 LINE"
);
}
);
width = 1360;
},
{
anchors = (
{
name = bottom;
position = "{619, 0}";
},
{
name = top;
position = "{726, 1258}";
}
);
layerId = "3D647E92-BB94-42FD-9C12-A678B6C1687F";
paths = (
{
closed = 1;
nodes = (
"322 0 LINE",
"422 1071 LINE",
"390 1074 LINE",
"896 0 LINE",
"1052 0 LINE",
"1170 1258 LINE",
"1028 1258 LINE",
"926 200 LINE",
"956 197 LINE",
"462 1258 LINE",
"296 1258 LINE",
"178 0 LINE"
);
}
);
width = 1232.11304;
}
);
unicode = 004E;
},
{
glyphname = O;
lastChange = "2020-10-22 18:07:07 +0000";
layers = (
{
anchors = (
{
name = bottom;
position = "{478, 0}";
},
{
name = center;
position = "{563, 608}";
},
{
name = ogonek;
position = "{914, 10}";
},
{
name = top;
position = "{649, 1215}";
},
{
name = topleft;
position = "{125, 1215}";
},
{
name = topright;
position = "{1173, 1215}";
}
);
layerId = "AD226DB4-BE97-401A-8A1F-FC26A063DFB1";
paths = (
{
closed = 1;
nodes = (
"788 -15 OFFCURVE",
"1008 179 OFFCURVE",
"1052 604 CURVE SMOOTH",
"1089 1025 OFFCURVE",
"910 1232 OFFCURVE",
"663 1232 CURVE SMOOTH",
"413 1232 OFFCURVE",
"196 1023 OFFCURVE",
"159 604 CURVE SMOOTH",
"119 181 OFFCURVE",
"294 -15 OFFCURVE",
"543 -15 CURVE SMOOTH"
);
},
{
closed = 1;
nodes = (
"317 53 OFFCURVE",
"190 237 OFFCURVE",
"224 604 CURVE SMOOTH",
"263 967 OFFCURVE",
"417 1166 OFFCURVE",
"655 1166 CURVE SMOOTH",
"887 1166 OFFCURVE",
"1018 967 OFFCURVE",
"982 602 CURVE SMOOTH",
"945 237 OFFCURVE",
"782 53 OFFCURVE",
"551 53 CURVE SMOOTH"
);
}
);
width = 1088;
},
{
anchors = (
{
name = bottom;
position = "{586, 0}";
},
{
name = center;
position = "{681, 673}";
},
{
name = ogonek;
position = "{1113, 10}";
},
{
name = top;
position = "{776, 1346}";
},
{
name = topleft;
position = "{140, 1346}";
},
{
name = topright;
position = "{1412, 1346}";
}
);
layerId = "2146CDF3-509B-498B-BCC4-8BA41979C9D7";
paths = (
{
closed = 1;
nodes = (
"1005 -35 OFFCURVE",
"1251 206 OFFCURVE",
"1295 676 CURVE SMOOTH",
"1339 1137 OFFCURVE",
"1134 1377 OFFCURVE",
"781 1377 CURVE SMOOTH",
"433 1377 OFFCURVE",
"183 1154 OFFCURVE",
"139 676 CURVE SMOOTH",
"92 214 OFFCURVE",
"300 -35 OFFCURVE",
"648 -35 CURVE SMOOTH"
);
},
{
closed = 1;
nodes = (
"514 263 OFFCURVE",
"420 415 OFFCURVE",
"448 676 CURVE",
"466 928 OFFCURVE",
"595 1081 OFFCURVE",
"754 1081 CURVE SMOOTH",
"920 1081 OFFCURVE",
"1012 928 OFFCURVE",
"988 681 CURVE SMOOTH",
"965 415 OFFCURVE",
"842 263 OFFCURVE",
"676 263 CURVE SMOOTH"
);
}
);
width = 1312;
},
{
anchors = (
{
name = bottom;
position = "{514, 0}";
},
{
name = center;
position = "{602, 629}";
},
{
name = ogonek;
position = "{980, 10}";
},
{
name = top;
position = "{691, 1258}";
},
{
name = topleft;
position = "{130, 1258}";
},
{
name = topright;
position = "{1252, 1258}";
}
);
layerId = "3D647E92-BB94-42FD-9C12-A678B6C1687F";
paths = (
{
closed = 1;
nodes = (
"860 -22 OFFCURVE",
"1088 188 OFFCURVE",
"1132 628 CURVE SMOOTH",
"1172 1062 OFFCURVE",
"984 1280 OFFCURVE",
"702 1280 CURVE SMOOTH",
"420 1280 OFFCURVE",
"192 1066 OFFCURVE",
"152 628 CURVE SMOOTH",
"110 192 OFFCURVE",
"296 -22 OFFCURVE",
"578 -22 CURVE SMOOTH"
);
},
{
closed = 1;
nodes = (
"382 122 OFFCURVE",
"266 296 OFFCURVE",
"298 628 CURVE SMOOTH",
"330 954 OFFCURVE",
"476 1138 OFFCURVE",
"688 1138 CURVE SMOOTH",
"898 1138 OFFCURVE",
"1016 954 OFFCURVE",
"984 628 CURVE SMOOTH",
"952 296 OFFCURVE",
"802 122 OFFCURVE",
"592 122 CURVE SMOOTH"
);
}
);
width = 1162.01739;
}
);
unicode = 004F;
},
{
glyphname = P;
lastChange = "2020-02-19 16:24:59 +0000";
layers = (
{
anchors = (
{
name = bottom;
position = "{407, 0}";
},
{
name = top;
position = "{578, 1215}";
}
);
layerId = "AD226DB4-BE97-401A-8A1F-FC26A063DFB1";
paths = (
{
closed = 1;
nodes = (
"259 0 LINE",
"307 501 LINE",
"555 501 LINE SMOOTH",
"788 501 OFFCURVE",
"914 647 OFFCURVE",
"934 851 CURVE SMOOTH",
"954 1058 OFFCURVE",
"856 1215 OFFCURVE",
"625 1215 CURVE SMOOTH",
"309 1215 LINE",
"195 0 LINE"
);
},
{
closed = 1;
nodes = (
"365 1152 LINE",
"618 1152 LINE SMOOTH",
"795 1152 OFFCURVE",
"885 1039 OFFCURVE",
"869 851 CURVE SMOOTH",
"853 668 OFFCURVE",
"743 561 OFFCURVE",
"563 561 CURVE SMOOTH",
"311 561 LINE"
);
}
);
width = 946;
},
{
anchors = (
{
name = bottom;
position = "{482, 0}";
},
{
name = top;
position = "{672, 1346}";
}
);
layerId = "2146CDF3-509B-498B-BCC4-8BA41979C9D7";
paths = (
{
closed = 1;
nodes = (
"443 0 LINE",
"485 455 LINE",
"654 455 LINE SMOOTH",
"933 455 OFFCURVE",
"1131 608 OFFCURVE",
"1158 903 CURVE SMOOTH",
"1186 1203 OFFCURVE",
"1020 1346 OFFCURVE",
"737 1346 CURVE SMOOTH",
"270 1346 LINE",
"143 0 LINE"
);
},
{
closed = 1;
nodes = (
"543 1061 LINE",
"709 1061 LINE SMOOTH",
"815 1061 OFFCURVE",
"858 987 OFFCURVE",
"849 903 CURVE SMOOTH",
"844 819 OFFCURVE",
"782 745 OFFCURVE",
"681 745 CURVE SMOOTH",
"514 745 LINE"
);
}
);
width = 1104;
},
{
anchors = (
{
name = bottom;
position = "{432, 0}";
},
{
name = top;
position = "{609, 1258}";
}
);
layerId = "3D647E92-BB94-42FD-9C12-A678B6C1687F";
paths = (
{
closed = 1;
nodes = (
"320 0 LINE",
"366 486 LINE",
"588 486 LINE SMOOTH",
"836 486 OFFCURVE",
"986 634 OFFCURVE",
"1008 868 CURVE SMOOTH",
"1031 1106 OFFCURVE",
"910 1258 OFFCURVE",
"662 1258 CURVE SMOOTH",
"296 1258 LINE",
"178 0 LINE"
);
},
{
closed = 1;
nodes = (
"424 1122 LINE",
"648 1122 LINE SMOOTH",
"802 1122 OFFCURVE",
"876 1022 OFFCURVE",
"862 868 CURVE SMOOTH",
"850 718 OFFCURVE",
"756 622 OFFCURVE",
"602 622 CURVE SMOOTH",
"378 622 LINE"
);
}
);
width = 998.2087;
}
);
unicode = 0050;
},
{
glyphname = Q;
lastChange = "2020-10-22 18:07:07 +0000";
layers = (
{
anchors = (
{
name = bottom;
position = "{489, 0}";
},
{
name = top;
position = "{660, 1215}";
}
);
layerId = "AD226DB4-BE97-401A-8A1F-FC26A063DFB1";
paths = (
{
closed = 1;
nodes = (
"882 -306 OFFCURVE",
"927 -296 OFFCURVE",
"985 -266 CURVE",
"993 -172 LINE",
"925 -208 OFFCURVE",
"881 -226 OFFCURVE",
"811 -226 CURVE SMOOTH",
"775 -224 OFFCURVE",
"744 -204 OFFCURVE",
"701 -140 CURVE",
"627 -11 LINE",
"841 34 OFFCURVE",
"1016 229 OFFCURVE",
"1052 604 CURVE SMOOTH",
"1089 1025 OFFCURVE",
"910 1232 OFFCURVE",
"663 1232 CURVE SMOOTH",
"413 1232 OFFCURVE",
"196 1023 OFFCURVE",
"159 604 CURVE SMOOTH",
"119 183 OFFCURVE",
"292 -16 OFFCURVE",
"544 -15 CURVE",
"625 -154 LINE SMOOTH",
"684 -257 OFFCURVE",
"741 -306 OFFCURVE",
"838 -306 CURVE SMOOTH"
);
},
{
closed = 1;
nodes = (
"317 53 OFFCURVE",
"190 237 OFFCURVE",
"224 604 CURVE SMOOTH",
"263 967 OFFCURVE",
"417 1166 OFFCURVE",
"655 1166 CURVE SMOOTH",
"887 1166 OFFCURVE",
"1018 967 OFFCURVE",
"982 602 CURVE SMOOTH",
"945 237 OFFCURVE",
"782 53 OFFCURVE",
"551 53 CURVE SMOOTH"
);
}
);
width = 1109;
},
{
anchors = (
{
name = bottom;
position = "{583, 0}";
},
{
name = top;
position = "{773, 1346}";
}
);
layerId = "2146CDF3-509B-498B-BCC4-8BA41979C9D7";
paths = (
{
closed = 1;
nodes = (
"1052 -391 OFFCURVE",
"1105 -381 OFFCURVE",
"1163 -357 CURVE",
"1196 -27 LINE",
"1135 -50 OFFCURVE",
"1072 -68 OFFCURVE",
"1021 -68 CURVE SMOOTH",
"966 -66 OFFCURVE",
"914 -46 OFFCURVE",
"892 5 CURVE",
"896 9 LINE",
"1117 100 OFFCURVE",
"1259 328 OFFCURVE",
"1295 676 CURVE SMOOTH",
"1339 1137 OFFCURVE",
"1134 1377 OFFCURVE",
"781 1377 CURVE SMOOTH",
"433 1377 OFFCURVE",
"183 1154 OFFCURVE",
"139 676 CURVE SMOOTH",
"92 222 OFFCURVE",
"292 -22 OFFCURVE",
"623 -35 CURVE",
"677 -160 LINE SMOOTH",
"744 -303 OFFCURVE",
"866 -391 OFFCURVE",
"996 -391 CURVE SMOOTH"
);
},
{
closed = 1;
nodes = (
"514 263 OFFCURVE",
"420 415 OFFCURVE",
"448 676 CURVE",
"466 928 OFFCURVE",
"595 1081 OFFCURVE",
"754 1081 CURVE SMOOTH",
"920 1081 OFFCURVE",
"1012 928 OFFCURVE",
"988 681 CURVE SMOOTH",
"965 415 OFFCURVE",
"842 263 OFFCURVE",
"676 263 CURVE SMOOTH"
);
}
);
width = 1306;
},
{
anchors = (
{
name = bottom;
position = "{520, 0}";
},
{
name = top;
position = "{697, 1258}";
}
);
layerId = "3D647E92-BB94-42FD-9C12-A678B6C1687F";
paths = (
{
closed = 1;
nodes = (
"938 -334 OFFCURVE",
"986 -324 OFFCURVE",
"1044 -296 CURVE",
"1060 -124 LINE",
"994 -156 OFFCURVE",
"944 -174 OFFCURVE",
"880 -174 CURVE SMOOTH",
"838 -172 OFFCURVE",
"800 -152 OFFCURVE",
"764 -92 CURVE SMOOTH",
"716 -4 LINE",
"932 56 OFFCURVE",
"1096 262 OFFCURVE",
"1132 628 CURVE SMOOTH",
"1172 1062 OFFCURVE",
"984 1280 OFFCURVE",
"702 1280 CURVE SMOOTH",
"420 1280 OFFCURVE",
"192 1066 OFFCURVE",
"152 628 CURVE SMOOTH",
"110 196 OFFCURVE",
"292 -18 OFFCURVE",
"570 -22 CURVE",
"642 -156 LINE SMOOTH",
"704 -272 OFFCURVE",
"782 -334 OFFCURVE",
"890 -334 CURVE SMOOTH"
);
},
{
closed = 1;
nodes = (
"382 122 OFFCURVE",
"266 296 OFFCURVE",
"298 628 CURVE SMOOTH",
"330 954 OFFCURVE",
"476 1138 OFFCURVE",
"688 1138 CURVE SMOOTH",
"898 1138 OFFCURVE",
"1016 954 OFFCURVE",
"984 628 CURVE SMOOTH",
"952 296 OFFCURVE",
"802 122 OFFCURVE",
"592 122 CURVE SMOOTH"
);
}
);
width = 1174.09565;
}
);
unicode = 0051;
},
{
glyphname = R;
lastChange = "2020-10-22 18:07:00 +0000";
layers = (
{
anchors = (
{
name = bottom;
position = "{456, 0}";
},
{
name = top;
position = "{627, 1215}";
}
);
layerId = "AD226DB4-BE97-401A-8A1F-FC26A063DFB1";
paths = (
{
closed = 1;
nodes = (
"263 0 LINE",
"313 523 LINE",
"550 523 LINE",
"833 0 LINE",
"913 0 LINE",
"624 518 LINE",
"842 532 OFFCURVE",
"962 672 OFFCURVE",
"978 867 CURVE SMOOTH",
"1000 1069 OFFCURVE",
"904 1215 OFFCURVE",
"664 1215 CURVE SMOOTH",
"311 1215 LINE",
"197 0 LINE"
);
},
{
closed = 1;
nodes = (
"369 1152 LINE",
"656 1152 LINE SMOOTH",
"836 1152 OFFCURVE",
"933 1046 OFFCURVE",
"915 870 CURVE SMOOTH",
"899 698 OFFCURVE",
"788 581 OFFCURVE",
"602 581 CURVE SMOOTH",
"319 581 LINE"
);
}
);
width = 1043;
},
{
anchors = (
{
name = bottom;
position = "{544, 0}";
},
{
name = top;
position = "{734, 1346}";
}
);
layerId = "2146CDF3-509B-498B-BCC4-8BA41979C9D7";
paths = (
{
closed = 1;
nodes = (
"447 0 LINE",
"491 496 LINE",
"610 496 LINE",
"781 0 LINE",
"1170 0 LINE",
"920 531 LINE",
"1078 604 OFFCURVE",
"1179 738 OFFCURVE",
"1202 919 CURVE",
"1224 1181 OFFCURVE",
"1055 1346 OFFCURVE",
"755 1346 CURVE SMOOTH",
"278 1346 LINE",
"151 0 LINE"
);
},
{
closed = 1;
nodes = (
"547 1061 LINE",
"728 1061 LINE SMOOTH",
"849 1061 OFFCURVE",
"894 986 OFFCURVE",
"888 883 CURVE SMOOTH",
"879 783 OFFCURVE",
"801 712 OFFCURVE",
"662 712 CURVE SMOOTH",
"510 712 LINE"
);
}
);
width = 1227;
},
{
anchors = (
{
name = bottom;
position = "{485, 0}";
},
{
name = top;
position = "{662, 1258}";
}
);
layerId = "3D647E92-BB94-42FD-9C12-A678B6C1687F";
paths = (
{
closed = 1;
nodes = (
"324 0 LINE",
"372 514 LINE",
"570 514 LINE",
"816 0 LINE",
"998 0 LINE",
"722 522 LINE",
"920 556 OFFCURVE",
"1034 694 OFFCURVE",
"1052 884 CURVE SMOOTH",
"1074 1106 OFFCURVE",
"954 1258 OFFCURVE",
"694 1258 CURVE SMOOTH",
"300 1258 LINE",
"182 0 LINE"
);
},
{
closed = 1;
nodes = (
"428 1122 LINE",
"680 1122 LINE SMOOTH",
"840 1122 OFFCURVE",
"920 1026 OFFCURVE",
"906 874 CURVE SMOOTH",
"892 726 OFFCURVE",
"792 624 OFFCURVE",
"622 624 CURVE SMOOTH",
"382 624 LINE"
);
}
);
width = 1103.8;
}
);
unicode = 0052;
},
{
glyphname = S;
lastChange = "2020-10-22 18:07:07 +0000";
layers = (
{
anchors = (
{
name = bottom;
position = "{586, 0}";
},
{
name = top;
position = "{617, 1215}";
}
);
layerId = "AD226DB4-BE97-401A-8A1F-FC26A063DFB1";
paths = (
{
closed = 1;
nodes = (
"762 -15 OFFCURVE",
"909 149 OFFCURVE",
"922 312 CURVE SMOOTH",
"938 491 OFFCURVE",
"840 584 OFFCURVE",
"695 633 CURVE SMOOTH",
"488 701 LINE SMOOTH",
"361 743 OFFCURVE",
"312 802 OFFCURVE",
"322 918 CURVE SMOOTH",
"332 1061 OFFCURVE",
"444 1164 OFFCURVE",
"624 1164 CURVE SMOOTH",
"779 1164 OFFCURVE",
"875 1096 OFFCURVE",
"878 965 CURVE",
"942 965 LINE",
"936 1122 OFFCURVE",
"829 1232 OFFCURVE",
"632 1232 CURVE SMOOTH",
"401 1232 OFFCURVE",
"271 1101 OFFCURVE",
"253 924 CURVE SMOOTH",
"237 757 OFFCURVE",
"327 683 OFFCURVE",
"514 622 CURVE",
"673 562 LINE",
"800 520 OFFCURVE",
"865 440 OFFCURVE",
"853 313 CURVE SMOOTH",
"843 181 OFFCURVE",
"714 48 OFFCURVE",
"513 48 CURVE SMOOTH",
"346 48 OFFCURVE",
"204 143 OFFCURVE",
"220 348 CURVE",
"162 348 LINE",
"147 123 OFFCURVE",
"299 -15 OFFCURVE",
"507 -15 CURVE SMOOTH"
);
}
);
width = 1023;
},
{
anchors = (
{
name = bottom;
position = "{660, 0}";
},
{
name = top;
position = "{730, 1346}";
}
);
layerId = "2146CDF3-509B-498B-BCC4-8BA41979C9D7";
paths = (
{
closed = 1;
nodes = (
"920 -35 OFFCURVE",
"1119 103 OFFCURVE",
"1146 378 CURVE SMOOTH",
"1162 543 OFFCURVE",
"1083 663 OFFCURVE",
"905 751 CURVE SMOOTH",
"639 885 LINE SMOOTH",
"571 921 OFFCURVE",
"536 947 OFFCURVE",
"539 990 CURVE",
"549 1041 OFFCURVE",
"608 1079 OFFCURVE",
"696 1079 CURVE SMOOTH",
"818 1079 OFFCURVE",
"855 1011 OFFCURVE",
"865 926 CURVE",
"1159 926 LINE",
"1166 1213 OFFCURVE",
"1020 1377 OFFCURVE",
"723 1377 CURVE SMOOTH",
"434 1377 OFFCURVE",
"238 1226 OFFCURVE",
"214 996 CURVE SMOOTH",
"198 803 OFFCURVE",
"288 703 OFFCURVE",
"454 616 CURVE SMOOTH",
"712 490 LINE SMOOTH",
"794 448 OFFCURVE",
"819 427 OFFCURVE",
"814 365 CURVE SMOOTH",
"804 286 OFFCURVE",
"720 272 OFFCURVE",
"631 272 CURVE SMOOTH",
"516 272 OFFCURVE",
"434 321 OFFCURVE",
"450 439 CURVE",
"149 439 LINE",
"127 103 OFFCURVE",
"345 -35 OFFCURVE",
"606 -35 CURVE SMOOTH"
);
}
);
width = 1220;
},
{
anchors = (
{
name = bottom;
position = "{610, 0}";
},
{
name = top;
position = "{654, 1258}";
}
);
layerId = "3D647E92-BB94-42FD-9C12-A678B6C1687F";
paths = (
{
closed = 1;
nodes = (
"814 -22 OFFCURVE",
"978 134 OFFCURVE",
"996 334 CURVE SMOOTH",
"1012 508 OFFCURVE",
"920 610 OFFCURVE",
"764 672 CURVE SMOOTH",
"538 762 LINE SMOOTH",
"430 802 OFFCURVE",
"386 850 OFFCURVE",
"394 942 CURVE SMOOTH",
"404 1054 OFFCURVE",
"498 1136 OFFCURVE",
"648 1136 CURVE SMOOTH",
"792 1136 OFFCURVE",
"868 1068 OFFCURVE",
"874 952 CURVE",
"1014 952 LINE",
"1012 1152 OFFCURVE",
"892 1280 OFFCURVE",
"662 1280 CURVE SMOOTH",
"412 1280 OFFCURVE",
"260 1142 OFFCURVE",
"240 948 CURVE SMOOTH",
"224 772 OFFCURVE",
"314 690 OFFCURVE",
"494 620 CURVE SMOOTH",
"686 538 LINE",
"798 496 OFFCURVE",
"850 436 OFFCURVE",
"840 330 CURVE SMOOTH",
"830 216 OFFCURVE",
"716 122 OFFCURVE",
"552 122 CURVE SMOOTH",
"402 122 OFFCURVE",
"280 202 OFFCURVE",
"296 378 CURVE",
"158 378 LINE",
"140 116 OFFCURVE",
"314 -22 OFFCURVE",
"540 -22 CURVE SMOOTH"
);
}
);
width = 1088.09565;
}
);
unicode = 0053;
},
{
glyphname = T;
lastChange = "2020-02-19 16:24:59 +0000";
layers = (
{
anchors = (
{
name = bottom;
position = "{472, 0}";
},
{
name = center;
position = "{440, 608}";
},
{
name = top;
position = "{526, 1215}";
}
);
layerId = "AD226DB4-BE97-401A-8A1F-FC26A063DFB1";
paths = (
{
closed = 1;
nodes = (
"455 0 LINE",
"559 1152 LINE",
"937 1152 LINE",
"945 1215 LINE",
"126 1215 LINE",
"118 1152 LINE",
"493 1152 LINE",
"389 0 LINE"
);
}
);
width = 841;
},
{
anchors = (
{
name = bottom;
position = "{483, 0}";
},
{
name = center;
position = "{538, 673}";
},
{
name = top;
position = "{633, 1346}";
}
);
layerId = "2146CDF3-509B-498B-BCC4-8BA41979C9D7";
paths = (
{
closed = 1;
nodes = (
"658 0 LINE",
"762 1061 LINE",
"1115 1061 LINE",
"1142 1346 LINE",
"139 1346 LINE",
"112 1061 LINE",
"466 1061 LINE",
"362 0 LINE"
);
}
);
width = 1025;
},
{
anchors = (
{
name = bottom;
position = "{476, 0}";
},
{
name = center;
position = "{472, 629}";
},
{
name = top;
position = "{561, 1258}";
}
);
layerId = "3D647E92-BB94-42FD-9C12-A678B6C1687F";
paths = (
{
closed = 1;
nodes = (
"522 0 LINE",
"626 1122 LINE",
"996 1122 LINE",
"1010 1258 LINE",
"130 1258 LINE",
"116 1122 LINE",
"484 1122 LINE",
"380 0 LINE"
);
}
);
width = 901.8;
}
);
unicode = 0054;
},
{
glyphname = U;
lastChange = "2020-10-22 18:07:07 +0000";
layers = (
{
anchors = (
{
name = bottom;
position = "{489, 0}";
},
{
name = ogonek;
position = "{545, 10}";
},
{
name = top;
position = "{660, 1215}";
},
{
name = topright;
position = "{1194, 1215}";
}
);
layerId = "AD226DB4-BE97-401A-8A1F-FC26A063DFB1";
paths = (
{
closed = 1;
nodes = (
"766 -15 OFFCURVE",
"943 116 OFFCURVE",
"967 415 CURVE SMOOTH",
"1047 1215 LINE",
"981 1215 LINE",
"903 415 LINE SMOOTH",
"879 159 OFFCURVE",
"746 48 OFFCURVE",
"555 48 CURVE SMOOTH",
"357 48 OFFCURVE",
"244 159 OFFCURVE",
"268 415 CURVE SMOOTH",
"346 1215 LINE",
"280 1215 LINE",
"202 415 LINE SMOOTH",
"177 116 OFFCURVE",
"318 -15 OFFCURVE",
"545 -15 CURVE SMOOTH"
);
}
);
width = 1109;
},
{
anchors = (
{
name = bottom;
position = "{590, 0}";
},
{
name = ogonek;
position = "{709, 10}";
},
{
name = top;
position = "{780, 1346}";
},
{
name = topright;
position = "{1419, 1346}";
}
);
layerId = "2146CDF3-509B-498B-BCC4-8BA41979C9D7";
paths = (
{
closed = 1;
nodes = (
"1002 -35 OFFCURVE",
"1206 188 OFFCURVE",
"1243 533 CURVE SMOOTH",
"1316 1346 LINE",
"1020 1346 LINE",
"942 533 LINE SMOOTH",
"925 343 OFFCURVE",
"818 272 OFFCURVE",
"686 272 CURVE SMOOTH",
"560 272 OFFCURVE",
"468 343 OFFCURVE",
"485 533 CURVE SMOOTH",
"563 1346 LINE",
"267 1346 LINE",
"189 533 LINE SMOOTH",
"157 188 OFFCURVE",
"324 -35 OFFCURVE",
"663 -35 CURVE SMOOTH"
);
}
);
width = 1319;
},
{
anchors = (
{
name = bottom;
position = "{522, 0}";
},
{
name = ogonek;
position = "{599, 10}";
},
{
name = top;
position = "{700, 1258}";
},
{
name = topright;
position = "{1268, 1258}";
}
);
layerId = "3D647E92-BB94-42FD-9C12-A678B6C1687F";
paths = (
{
closed = 1;
nodes = (
"844 -22 OFFCURVE",
"1030 140 OFFCURVE",
"1058 454 CURVE SMOOTH",
"1136 1258 LINE",
"994 1258 LINE",
"916 454 LINE SMOOTH",
"894 220 OFFCURVE",
"770 122 OFFCURVE",
"598 122 CURVE SMOOTH",
"424 122 OFFCURVE",
"318 220 OFFCURVE",
"340 454 CURVE SMOOTH",
"418 1258 LINE",
"276 1258 LINE",
"198 454 LINE SMOOTH",
"170 140 OFFCURVE",
"320 -22 OFFCURVE",
"584 -22 CURVE SMOOTH"
);
}
);
width = 1178.3913;
}
);
unicode = 0055;
},
{
glyphname = V;
lastChange = "2020-02-19 16:24:59 +0000";
layers = (
{
anchors = (
{
name = bottom;
position = "{399, 0}";
},
{
name = top;
position = "{570, 1215}";
}
);
layerId = "AD226DB4-BE97-401A-8A1F-FC26A063DFB1";
paths = (
{
closed = 1;
nodes = (
"432 0 LINE",
"497 0 LINE",
"1015 1215 LINE",
"943 1215 LINE",
"472 87 LINE",
"209 1215 LINE",
"145 1215 LINE"
);
}
);
width = 929;
},
{
anchors = (
{
name = bottom;
position = "{523, 0}";
},
{
name = top;
position = "{713, 1346}";
}
);
layerId = "2146CDF3-509B-498B-BCC4-8BA41979C9D7";
paths = (
{
closed = 1;
nodes = (
"432 0 LINE",
"747 0 LINE",
"1272 1346 LINE",
"963 1346 LINE",
"630 416 LINE",
"485 1346 LINE",
"165 1346 LINE"
);
}
);
width = 1186;
},
{
anchors = (
{
name = bottom;
position = "{440, 0}";
},
{
name = top;
position = "{617, 1258}";
}
);
layerId = "3D647E92-BB94-42FD-9C12-A678B6C1687F";
paths = (
{
closed = 1;
nodes = (
"432 0 LINE",
"580 0 LINE",
"1100 1258 LINE",
"950 1258 LINE",
"524 196 LINE",
"300 1258 LINE",
"152 1258 LINE"
);
}
);
width = 1013.92174;
}
);
unicode = 0056;
},
{
glyphname = W;
lastChange = "2020-02-19 16:24:59 +0000";
layers = (
{
anchors = (
{
name = bottom;
position = "{670, 0}";
},
{
name = top;
position = "{841, 1215}";
}
);
layerId = "AD226DB4-BE97-401A-8A1F-FC26A063DFB1";
paths = (
{
closed = 1;
nodes = (
"347 0 LINE",
"415 0 LINE",
"795 882 LINE",
"986 0 LINE",
"1056 0 LINE",
"1567 1215 LINE",
"1503 1215 LINE",
"1032 104 LINE",
"834 1037 LINE",
"790 1037 LINE",
"391 108 LINE",
"200 1215 LINE",
"129 1215 LINE"
);
}
);
width = 1471;
},
{
anchors = (
{
name = bottom;
position = "{876, 0}";
},
{
name = top;
position = "{1066, 1346}";
}
);
layerId = "2146CDF3-509B-498B-BCC4-8BA41979C9D7";
paths = (
{
closed = 1;
nodes = (
"459 0 LINE",
"770 0 LINE",
"1005 646 LINE",
"1131 0 LINE",
"1444 0 LINE",
"1975 1346 LINE",
"1634 1346 LINE",
"1322 425 LINE",
"1155 1313 LINE",
"954 1313 LINE",
"654 429 LINE",
"509 1346 LINE",
"175 1346 LINE"
);
}
);
width = 1892;
},
{
anchors = (
{
name = bottom;
position = "{738, 0}";
},
{
name = top;
position = "{915, 1258}";
}
);
layerId = "3D647E92-BB94-42FD-9C12-A678B6C1687F";
paths = (
{
closed = 1;
nodes = (
"384.009 0 LINE",
"532 0 LINE",
"864 804 LINE",
"1034 0 LINE",
"1184 0 LINE",
"1702 1258 LINE",
"1546 1258 LINE",
"1128 210 LINE",
"940 1128 LINE",
"844 1128 LINE",
"478 214 LINE",
"302 1258 LINE",
"144 1258 LINE"
);
}
);
width = 1610.11304;
}
);
unicode = 0057;
},
{
glyphname = X;
lastChange = "2020-02-19 16:24:59 +0000";
layers = (
{
anchors = (
{
name = bottom;
position = "{471, 0}";
},
{
name = top;
position = "{642, 1215}";
}
);
layerId = "AD226DB4-BE97-401A-8A1F-FC26A063DFB1";
paths = (
{
closed = 1;
nodes = (
"195 0 LINE",
"580 548 LINE",
"877 0 LINE",
"959 0 LINE",
"629 600 LINE",
"1079 1215 LINE",
"1002 1215 LINE",
"604 651 LINE",
"300 1215 LINE",
"228 1215 LINE",
"557 600 LINE",
"112 0 LINE"
);
}
);
width = 1073;
},
{
anchors = (
{
name = bottom;
position = "{592, 0}";
},
{
name = top;
position = "{782, 1346}";
}
);
layerId = "2146CDF3-509B-498B-BCC4-8BA41979C9D7";
paths = (
{
closed = 1;
nodes = (
"392 0 LINE",
"671 409 LINE",
"916 0 LINE",
"1288 0 LINE",
"892 679 LINE",
"1348 1346 LINE",
"989 1346 LINE",
"743 933 LINE",
"524 1346 LINE",
"156 1346 LINE",
"518 672 LINE",
"33 0 LINE"
);
}
);
width = 1323;
},
{
anchors = (
{
name = bottom;
position = "{511, 0}";
},
{
name = top;
position = "{688, 1258}";
}
);
layerId = "3D647E92-BB94-42FD-9C12-A678B6C1687F";
paths = (
{
closed = 1;
nodes = (
"260 0 LINE",
"610 502 LINE",
"890 0 LINE",
"1068 0 LINE",
"716 626 LINE",
"1168 1258 LINE",
"998 1258 LINE",
"650 744 LINE",
"374 1258 LINE",
"204 1258 LINE",
"544 624 LINE",
"86 0 LINE"
);
}
);
width = 1155.6087;
}
);
unicode = 0058;
},
{
glyphname = Y;
lastChange = "2020-02-19 16:24:59 +0000";
layers = (
{
anchors = (
{
name = bottom;
position = "{374, 0}";
},
{
name = top;
position = "{545, 1215}";
},
{
name = topleft;
position = "{125, 1215}";
}
);
layerId = "AD226DB4-BE97-401A-8A1F-FC26A063DFB1";
paths = (
{
closed = 1;
nodes = (
"479 0 LINE",
"525 494 LINE",
"988 1215 LINE",
"913 1215 LINE",
"497 571 LINE",
"200 1215 LINE",
"119 1215 LINE",
"455 494 LINE",
"409 0 LINE"
);
}
);
width = 879;
},
{
anchors = (
{
name = bottom;
position = "{534, 0}";
},
{
name = top;
position = "{724, 1346}";
},
{
name = topleft;
position = "{140, 1346}";
}
);
layerId = "2146CDF3-509B-498B-BCC4-8BA41979C9D7";
paths = (
{
closed = 1;
nodes = (
"736 0 LINE",
"788 560 LINE",
"1290 1346 LINE",
"940 1346 LINE",
"675 900 LINE",
"521 1346 LINE",
"171 1346 LINE",
"494 560 LINE",
"442 0 LINE"
);
}
);
width = 1208;
},
{
anchors = (
{
name = bottom;
position = "{427, 0}";
},
{
name = top;
position = "{604, 1258}";
},
{
name = topleft;
position = "{130, 1258}";
}
);
layerId = "3D647E92-BB94-42FD-9C12-A678B6C1687F";
paths = (
{
closed = 1;
nodes = (
"564 0 LINE",
"612 516 LINE",
"1088 1258 LINE",
"922 1258 LINE",
"556 680 LINE",
"306 1258 LINE",
"136 1258 LINE",
"468 516 LINE",
"420 0 LINE"
);
}
);
width = 987.71304;
}
);
unicode = 0059;
},
{
glyphname = Z;
lastChange = "2020-02-19 16:24:59 +0000";
layers = (
{
anchors = (
{
name = bottom;
position = "{431, 0}";
},
{
name = center;
position = "{516, 608}";
},
{
name = top;
position = "{602, 1215}";
}
);
layerId = "AD226DB4-BE97-401A-8A1F-FC26A063DFB1";
paths = (
{
closed = 1;
nodes = (
"903 0 LINE",
"913 66 LINE",
"216 76 LINE",
"1014 1138 LINE",
"1021 1215 LINE",
"246 1215 LINE",
"240 1149 LINE",
"933 1138 LINE",
"137 75 LINE",
"132 0 LINE"
);
}
);
width = 994;
},
{
anchors = (
{
name = bottom;
position = "{536, 0}";
},
{
name = center;
position = "{631, 673}";
},
{
name = top;
position = "{726, 1346}";
}
);
layerId = "2146CDF3-509B-498B-BCC4-8BA41979C9D7";
paths = (
{
closed = 1;
nodes = (
"1081 0 LINE",
"1104 302 LINE",
"537 300 LINE",
"1178 1072 LINE",
"1205 1346 LINE",
"259 1346 LINE",
"227 1044 LINE",
"802 1047 LINE",
"157 278 LINE",
"132 0 LINE"
);
}
);
width = 1211;
},
{
anchors = (
{
name = bottom;
position = "{466, 0}";
},
{
name = center;
position = "{554, 629}";
},
{
name = top;
position = "{643, 1258}";
}
);
layerId = "3D647E92-BB94-42FD-9C12-A678B6C1687F";
paths = (
{
closed = 1;
nodes = (
"962 0 LINE",
"976 144 LINE",
"322 150 LINE",
"1068 1116 LINE",
"1082 1258 LINE",
"250 1258 LINE",
"236 1114 LINE",
"890 1108 LINE",
"144 142 LINE",
"132 0 LINE"
);
}
);
width = 1065.70435;
}
);
unicode = 005A;
},
{
glyphname = quotesingle;
lastChange = "2020-02-19 16:24:59 +0000";
layers = (
{
layerId = "AD226DB4-BE97-401A-8A1F-FC26A063DFB1";
paths = (
{
closed = 1;
nodes = (
"177 953 LINE",
"226 1354 LINE",
"147 1354 LINE",
"121 953 LINE"
);
}
);
width = 157;
},
{
layerId = "2146CDF3-509B-498B-BCC4-8BA41979C9D7";
paths = (
{
closed = 1;
nodes = (
"400 835 LINE",
"488 1354 LINE",
"199 1354 LINE",
"186 835 LINE"
);
}
);
width = 420;
},
{
layerId = "3D647E92-BB94-42FD-9C12-A678B6C1687F";
paths = (
{
closed = 1;
nodes = (
"251 914 LINE",
"313 1354 LINE",
"164 1354 LINE",
"142 914 LINE"
);
}
);
width = 243.90435;
}
);
unicode = 0027;
},
{
glyphname = apostrophe;
lastChange = "2020-10-22 18:07:07 +0000";
layers = (
{
layerId = "AD226DB4-BE97-401A-8A1F-FC26A063DFB1";
paths = (
{
closed = 1;
nodes = (
"288 959 OFFCURVE",
"324 1032 OFFCURVE",
"328 1090 CURVE",
"336 1145 OFFCURVE",
"305 1183 OFFCURVE",
"265 1183 CURVE SMOOTH",
"229 1183 OFFCURVE",
"207 1156 OFFCURVE",
"203 1126 CURVE",
"202 1084 OFFCURVE",
"227 1061 OFFCURVE",
"270 1063 CURVE",
"252 1006 OFFCURVE",
"213 967 OFFCURVE",
"152 939 CURVE",
"200 914 LINE"
);
}
);
width = 230;
},
{
layerId = "2146CDF3-509B-498B-BCC4-8BA41979C9D7";
paths = (
{
closed = 1;
nodes = (
"505 768 OFFCURVE",
"626 941 OFFCURVE",
"643 1103 CURVE SMOOTH",
"657 1257 OFFCURVE",
"587 1386 OFFCURVE",
"443 1386 CURVE SMOOTH",
"328 1386 OFFCURVE",
"234 1301 OFFCURVE",
"223 1192 CURVE SMOOTH",
"215 1097 OFFCURVE",
"279 1034 OFFCURVE",
"355 1011 CURVE",
"324 927 OFFCURVE",
"233 862 OFFCURVE",
"139 808 CURVE",
"345 684 LINE"
);
}
);
width = 539;
},
{
layerId = "3D647E92-BB94-42FD-9C12-A678B6C1687F";
paths = (
{
closed = 1;
nodes = (
"360 896 OFFCURVE",
"424 1002 OFFCURVE",
"432 1094 CURVE SMOOTH",
"442 1182 OFFCURVE",
"398 1250 OFFCURVE",
"324 1250 CURVE SMOOTH",
"262 1250 OFFCURVE",
"216 1204 OFFCURVE",
"210 1148 CURVE SMOOTH",
"206 1088 OFFCURVE",
"244 1052 OFFCURVE",
"298 1046 CURVE",
"276 980 OFFCURVE",
"220 932 OFFCURVE",
"148 896 CURVE",
"248 838 LINE"
);
}
);
width = 332.10435;
}
);
unicode = 02BC;
},
{
glyphname = quoteleft;
lastChange = "2020-10-22 18:07:04 +0000";
layers = (
{
layerId = "AD226DB4-BE97-401A-8A1F-FC26A063DFB1";
paths = (
{
closed = 1;
nodes = (
"259 921 OFFCURVE",
"283 951 OFFCURVE",
"287 983 CURVE SMOOTH",
"290 1024 OFFCURVE",
"268 1047 OFFCURVE",
"225 1046 CURVE",
"240 1097 OFFCURVE",
"274 1137 OFFCURVE",
"333 1174 CURVE",
"289 1196 LINE",
"203 1153 OFFCURVE",
"168 1079 OFFCURVE",
"160 1016 CURVE",
"157 962 OFFCURVE",
"185 921 OFFCURVE",
"223 921 CURVE SMOOTH"
);
}
);
width = 275;
},
{
layerId = "2146CDF3-509B-498B-BCC4-8BA41979C9D7";
paths = (
{
closed = 1;
nodes = (
"469 664 OFFCURVE",
"559 748 OFFCURVE",
"569 858 CURVE SMOOTH",
"580 952 OFFCURVE",
"511 1014 OFFCURVE",
"435 1033 CURVE",
"470 1124 OFFCURVE",
"564 1189 OFFCURVE",
"662 1234 CURVE",
"467 1366 LINE",
"302 1278 OFFCURVE",
"168 1112 OFFCURVE",
"154 950 CURVE SMOOTH",
"137 792 OFFCURVE",
"212 664 OFFCURVE",
"354 664 CURVE SMOOTH"
);
}
);
width = 610;
},
{
layerId = "3D647E92-BB94-42FD-9C12-A678B6C1687F";
paths = (
{
closed = 1;
nodes = (
"328 836 OFFCURVE",
"374 884 OFFCURVE",
"380 942 CURVE SMOOTH",
"386 1000 OFFCURVE",
"348 1036 OFFCURVE",
"294 1042 CURVE",
"316 1106 OFFCURVE",
"370 1154 OFFCURVE",
"442 1194 CURVE",
"348 1252 LINE",
"236 1194 OFFCURVE",
"168 1090 OFFCURVE",
"158 994 CURVE SMOOTH",
"150 906 OFFCURVE",
"194 836 OFFCURVE",
"266 836 CURVE SMOOTH"
);
}
);
width = 385.69565;
}
);
unicode = 2018;
},
{
glyphname = quoteright;
lastChange = "2020-10-22 18:07:04 +0000";
layers = (
{
layerId = "AD226DB4-BE97-401A-8A1F-FC26A063DFB1";
paths = (
{
closed = 1;
nodes = (
"220 972 OFFCURVE",
"258 1043 OFFCURVE",
"262 1101 CURVE SMOOTH",
"269 1162 OFFCURVE",
"241 1196 OFFCURVE",
"197 1196 CURVE SMOOTH",
"163 1196 OFFCURVE",
"139 1167 OFFCURVE",
"135 1135 CURVE",
"135 1097 OFFCURVE",
"163 1074 OFFCURVE",
"201 1074 CURVE",
"186 1021 OFFCURVE",
"149 984 OFFCURVE",
"90 948 CURVE",
"137 921 LINE"
);
}
);
width = 275;
},
{
layerId = "2146CDF3-509B-498B-BCC4-8BA41979C9D7";
paths = (
{
closed = 1;
nodes = (
"510 748 OFFCURVE",
"646 912 OFFCURVE",
"662 1081 CURVE SMOOTH",
"677 1234 OFFCURVE",
"602 1366 OFFCURVE",
"466 1366 CURVE SMOOTH",
"347 1366 OFFCURVE",
"257 1285 OFFCURVE",
"247 1174 CURVE SMOOTH",
"234 1077 OFFCURVE",
"294 1014 OFFCURVE",
"379 995 CURVE",
"344 909 OFFCURVE",
"254 839 OFFCURVE",
"156 790 CURVE",
"347 664 LINE"
);
}
);
width = 610;
},
{
layerId = "3D647E92-BB94-42FD-9C12-A678B6C1687F";
paths = (
{
closed = 1;
nodes = (
"316 898 OFFCURVE",
"386 1000 OFFCURVE",
"394 1094 CURVE SMOOTH",
"404 1186 OFFCURVE",
"360 1252 OFFCURVE",
"286 1252 CURVE SMOOTH",
"224 1252 OFFCURVE",
"177.991 1205.991 OFFCURVE",
"172 1148 CURVE SMOOTH",
"168 1090 OFFCURVE",
"206 1054 OFFCURVE",
"260 1048 CURVE",
"238 984 OFFCURVE",
"184 936 OFFCURVE",
"112 896 CURVE",
"206 836 LINE"
);
}
);
width = 385.69565;
}
);
unicode = 2019;
},
{
glyphname = parenleft;
lastChange = "2020-02-19 16:24:59 +0000";
layers = (
{
layerId = "AD226DB4-BE97-401A-8A1F-FC26A063DFB1";
paths = (
{
closed = 1;
nodes = (
"368 1177 OFFCURVE",
"214 879 OFFCURVE",
"186 590 CURVE SMOOTH",
"160 304 OFFCURVE",
"258 1 OFFCURVE",
"446 -215 CURVE",
"496 -187 LINE",
"312 34 OFFCURVE",
"232 322 OFFCURVE",
"256 590 CURVE SMOOTH",
"282 860 OFFCURVE",
"418 1144 OFFCURVE",
"644 1363 CURVE",
"596 1400 LINE"
);
}
);
width = 553;
},
{
layerId = "2146CDF3-509B-498B-BCC4-8BA41979C9D7";
paths = (
{
closed = 1;
nodes = (
"368 1302 OFFCURVE",
"227 1010 OFFCURVE",
"192 662 CURVE SMOOTH",
"160 317 OFFCURVE",
"245 28 OFFCURVE",
"506 -248 CURVE",
"739 -62 LINE",
"555 185 OFFCURVE",
"475 388 OFFCURVE",
"499 662 CURVE SMOOTH",
"525 939 OFFCURVE",
"648 1144 OFFCURVE",
"874 1396 CURVE",
"681 1570 LINE"
);
}
);
width = 816;
},
{
layerId = "3D647E92-BB94-42FD-9C12-A678B6C1687F";
paths = (
{
closed = 1;
nodes = (
"368 1218 OFFCURVE",
"218 922 OFFCURVE",
"188 614 CURVE SMOOTH",
"160 308 OFFCURVE",
"254 10 OFFCURVE",
"466 -226 CURVE",
"576 -146 LINE",
"392 84 OFFCURVE",
"312 344 OFFCURVE",
"336 614 CURVE SMOOTH",
"362 886 OFFCURVE",
"494 1144 OFFCURVE",
"720 1374 CURVE",
"624 1456 LINE"
);
}
);
width = 639.90435;
}
);
unicode = 0028;
},
{
glyphname = parenright;
lastChange = "2020-10-22 18:07:07 +0000";
layers = (
{
layerId = "AD226DB4-BE97-401A-8A1F-FC26A063DFB1";
paths = (
{
closed = 1;
nodes = (
"297 1 OFFCURVE",
"451 304 OFFCURVE",
"477 590 CURVE SMOOTH",
"507 879 OFFCURVE",
"411 1177 OFFCURVE",
"221 1400 CURVE",
"171 1363 LINE",
"355 1144 OFFCURVE",
"433 860 OFFCURVE",
"411 590 CURVE SMOOTH",
"383 322 OFFCURVE",
"247 34 OFFCURVE",
"25 -187 CURVE",
"71 -215 LINE"
);
}
);
width = 553;
},
{
layerId = "2146CDF3-509B-498B-BCC4-8BA41979C9D7";
paths = (
{
closed = 1;
nodes = (
"566 28 OFFCURVE",
"714 317 OFFCURVE",
"746 662 CURVE SMOOTH",
"776 1010 OFFCURVE",
"687 1302 OFFCURVE",
"431 1570 CURVE",
"198 1396 LINE",
"382 1144 OFFCURVE",
"466 939 OFFCURVE",
"438 662 CURVE SMOOTH",
"416 388 OFFCURVE",
"293 185 OFFCURVE",
"58 -62 CURVE",
"255 -248 LINE"
);
}
);
width = 816;
},
{
layerId = "3D647E92-BB94-42FD-9C12-A678B6C1687F";
paths = (
{
closed = 1;
nodes = (
"386 10 OFFCURVE",
"538 308 OFFCURVE",
"566 614 CURVE SMOOTH",
"596 922 OFFCURVE",
"502 1218 OFFCURVE",
"290 1456 CURVE",
"180 1374 LINE",
"364 1144 OFFCURVE",
"444 886 OFFCURVE",
"420 614 CURVE SMOOTH",
"394 344 OFFCURVE",
"262 84 OFFCURVE",
"36 -146 CURVE",
"132 -226 LINE"
);
}
);
width = 639.90435;
}
);
unicode = 0029;
},
{
glyphname = plus;
lastChange = "2020-02-19 16:24:59 +0000";
layers = (
{
layerId = "AD226DB4-BE97-401A-8A1F-FC26A063DFB1";
paths = (
{
closed = 1;
nodes = (
"473 519 LINE",
"80 519 LINE",
"76 463 LINE",
"466 463 LINE",
"426 0 LINE",
"492 0 LINE",
"532 463 LINE",
"928 463 LINE",
"931 519 LINE",
"539 519 LINE",
"584 982 LINE",
"514 982 LINE"
);
}
);
width = 913;
},
{
layerId = "2146CDF3-509B-498B-BCC4-8BA41979C9D7";
paths = (
{
closed = 1;
nodes = (
"421 637 LINE",
"93 637 LINE",
"63 345 LINE",
"394 345 LINE",
"360 0 LINE",
"656 0 LINE",
"690 345 LINE",
"1013 345 LINE",
"1043 637 LINE",
"717 637 LINE",
"748 982 LINE",
"454 982 LINE"
);
}
);
width = 1018;
},
{
layerId = "3D647E92-BB94-42FD-9C12-A678B6C1687F";
paths = (
{
closed = 1;
nodes = (
"456 558 LINE",
"84 558 LINE",
"72 424 LINE",
"442 424 LINE",
"404 0 LINE",
"546 0 LINE",
"584 424 LINE",
"956 424 LINE",
"968.009 557.991 LINE",
"598 558 LINE",
"638 982 LINE",
"494 982 LINE"
);
}
);
width = 947.69565;
}
);
unicode = 002B;
},
{
glyphname = minus;
lastChange = "2020-02-19 16:24:59 +0000";
layers = (
{
layerId = "AD226DB4-BE97-401A-8A1F-FC26A063DFB1";
paths = (
{
closed = 1;
nodes = (
"108 461 LINE",
"824 461 LINE",
"833 517 LINE",
"117 517 LINE"
);
}
);
width = 913;
},
{
layerId = "2146CDF3-509B-498B-BCC4-8BA41979C9D7";
paths = (
{
closed = 1;
nodes = (
"85 336 LINE",
"939 336 LINE",
"975 629 LINE",
"119 629 LINE"
);
}
);
width = 1018;
},
{
layerId = "3D647E92-BB94-42FD-9C12-A678B6C1687F";
paths = (
{
closed = 1;
nodes = (
"100 420 LINE",
"862 420 LINE",
"880 554 LINE",
"118 554 LINE"
);
}
);
width = 947.69565;
}
);
unicode = 2212;
},
{
glyphname = equal;
lastChange = "2020-02-19 16:24:59 +0000";
layers = (
{
layerId = "AD226DB4-BE97-401A-8A1F-FC26A063DFB1";
paths = (
{
closed = 1;
nodes = (
"171 282 LINE",
"730 282 LINE",
"733 342 LINE",
"174 342 LINE"
);
},
{
closed = 1;
nodes = (
"200 620 LINE",
"759 620 LINE",
"765 687 LINE",
"205 687 LINE"
);
}
);
width = 843;
},
{
layerId = "2146CDF3-509B-498B-BCC4-8BA41979C9D7";
paths = (
{
closed = 1;
nodes = (
"151 137 LINE",
"815 137 LINE",
"845 427 LINE",
"180 427 LINE"
);
},
{
closed = 1;
nodes = (
"200 607 LINE",
"864 607 LINE",
"890 890 LINE",
"225 890 LINE"
);
}
);
width = 948;
},
{
layerId = "3D647E92-BB94-42FD-9C12-A678B6C1687F";
paths = (
{
closed = 1;
nodes = (
"164 234 LINE",
"758 234 LINE",
"770 370 LINE",
"176 370 LINE"
);
},
{
closed = 1;
nodes = (
"200 616 LINE",
"794 616 LINE",
"806 754 LINE",
"212 754 LINE"
);
}
);
width = 877.69565;
}
);
unicode = 003D;
},
{
glyphname = zero;
lastChange = "2020-10-22 18:07:07 +0000";
layers = (
{
layerId = "AD226DB4-BE97-401A-8A1F-FC26A063DFB1";
paths = (
{
closed = 1;
nodes = (
"739 -15 OFFCURVE",
"918 196 OFFCURVE",
"953 610 CURVE SMOOTH",
"989 1018 OFFCURVE",
"859 1232 OFFCURVE",
"615 1232 CURVE SMOOTH",
"368 1232 OFFCURVE",
"192 1018 OFFCURVE",
"159 610 CURVE SMOOTH",
"119 196 OFFCURVE",
"249 -15 OFFCURVE",
"491 -15 CURVE SMOOTH"
);
},
{
closed = 1;
nodes = (
"285 48 OFFCURVE",
"190 252 OFFCURVE",
"224 610 CURVE SMOOTH",
"263 963 OFFCURVE",
"389 1164 OFFCURVE",
"603 1164 CURVE SMOOTH",
"829 1164 OFFCURVE",
"920 963 OFFCURVE",
"883 610 CURVE SMOOTH",
"847 252 OFFCURVE",
"725 48 OFFCURVE",
"503 48 CURVE SMOOTH"
);
}
);
width = 994;
},
{
layerId = "2146CDF3-509B-498B-BCC4-8BA41979C9D7";
paths = (
{
closed = 1;
nodes = (
"917 -35 OFFCURVE",
"1161 190 OFFCURVE",
"1210 670 CURVE SMOOTH",
"1258 1157 OFFCURVE",
"1050 1377 OFFCURVE",
"740 1377 CURVE SMOOTH",
"428 1377 OFFCURVE",
"186 1157 OFFCURVE",
"139 670 CURVE SMOOTH",
"92 190 OFFCURVE",
"295 -35 OFFCURVE",
"609 -35 CURVE SMOOTH"
);
},
{
closed = 1;
nodes = (
"495 272 OFFCURVE",
"420 410 OFFCURVE",
"448 670 CURVE",
"466 936 OFFCURVE",
"573 1079 OFFCURVE",
"715 1079 CURVE SMOOTH",
"849 1079 OFFCURVE",
"926 936 OFFCURVE",
"903 670 CURVE SMOOTH",
"880 410 OFFCURVE",
"771 272 OFFCURVE",
"634 272 CURVE SMOOTH"
);
}
);
width = 1224;
},
{
layerId = "3D647E92-BB94-42FD-9C12-A678B6C1687F";
paths = (
{
closed = 1;
nodes = (
"798 -22 OFFCURVE",
"998 194 OFFCURVE",
"1038 630 CURVE SMOOTH",
"1078 1064 OFFCURVE",
"922 1280 OFFCURVE",
"656 1280 CURVE SMOOTH",
"388 1280 OFFCURVE",
"190 1064 OFFCURVE",
"152 630 CURVE SMOOTH",
"110 194 OFFCURVE",
"264 -22 OFFCURVE",
"530 -22 CURVE SMOOTH"
);
},
{
closed = 1;
nodes = (
"354 122 OFFCURVE",
"266 304 OFFCURVE",
"298 630 CURVE SMOOTH",
"330 954 OFFCURVE",
"450 1136 OFFCURVE",
"640 1136 CURVE SMOOTH",
"836 1136 OFFCURVE",
"922 954 OFFCURVE",
"890 630 CURVE SMOOTH",
"858 304 OFFCURVE",
"740 122 OFFCURVE",
"546 122 CURVE SMOOTH"
);
}
);
width = 1070;
}
);
unicode = 0030;
},
{
glyphname = one;
lastChange = "2020-02-19 16:24:59 +0000";
layers = (
{
layerId = "AD226DB4-BE97-401A-8A1F-FC26A063DFB1";
paths = (
{
closed = 1;
nodes = (
"346 1157 OFFCURVE",
"274 1124 OFFCURVE",
"205 1117 CURVE",
"197 1037 LINE",
"257 1045 OFFCURVE",
"334 1078 OFFCURVE",
"394 1128 CURVE",
"289 0 LINE",
"349 0 LINE",
"463 1214 LINE",
"398 1214 LINE"
);
}
);
width = 546;
},
{
layerId = "2146CDF3-509B-498B-BCC4-8BA41979C9D7";
paths = (
{
closed = 1;
nodes = (
"352 1288 OFFCURVE",
"268 1263 OFFCURVE",
"178 1248 CURVE",
"151 938 LINE",
"211 933 OFFCURVE",
"268 939 OFFCURVE",
"334 964 CURVE",
"243 0 LINE",
"546 0 LINE",
"673 1359 LINE",
"458 1359 LINE"
);
}
);
width = 697;
},
{
layerId = "3D647E92-BB94-42FD-9C12-A678B6C1687F";
paths = (
{
closed = 1;
nodes = (
"348 1200 OFFCURVE",
"272 1170 OFFCURVE",
"196 1160 CURVE",
"182 1004 LINE",
"242 1008 OFFCURVE",
"312 1032 OFFCURVE",
"374 1074 CURVE",
"274 0 LINE",
"414 0 LINE",
"532 1262 LINE",
"418 1262 LINE"
);
}
);
width = 595.89565;
}
);
unicode = 0031;
},
{
glyphname = two;
lastChange = "2020-10-22 18:07:07 +0000";
layers = (
{
layerId = "AD226DB4-BE97-401A-8A1F-FC26A063DFB1";
paths = (
{
closed = 1;
nodes = (
"217 294 OFFCURVE",
"298 380 OFFCURVE",
"442 445 CURVE SMOOTH",
"663 545 LINE SMOOTH",
"795 600 OFFCURVE",
"910 705 OFFCURVE",
"932 897 CURVE SMOOTH",
"947 1083 OFFCURVE",
"826 1232 OFFCURVE",
"623 1232 CURVE SMOOTH",
"398 1232 OFFCURVE",
"269 1119 OFFCURVE",
"235 953 CURVE",
"304 953 LINE",
"330 1094 OFFCURVE",
"449 1164 OFFCURVE",
"615 1164 CURVE SMOOTH",
"779 1164 OFFCURVE",
"877 1061 OFFCURVE",
"858 902 CURVE SMOOTH",
"846 757 OFFCURVE",
"765 666 OFFCURVE",
"636 611 CURVE SMOOTH",
"424 513 LINE SMOOTH",
"279 450 OFFCURVE",
"154 365 OFFCURVE",
"136 147 CURVE SMOOTH",
"125 0 LINE",
"834 0 LINE",
"837 70 LINE",
"194 70 LINE",
"202 154 LINE SMOOTH"
);
}
);
width = 996;
},
{
layerId = "2146CDF3-509B-498B-BCC4-8BA41979C9D7";
paths = (
{
closed = 1;
nodes = (
"427 354 OFFCURVE",
"449 374 OFFCURVE",
"521 399 CURVE",
"794 506 LINE",
"1045 613 OFFCURVE",
"1153 744 OFFCURVE",
"1168 949 CURVE",
"1197 1214 OFFCURVE",
"996 1377 OFFCURVE",
"741 1377 CURVE SMOOTH",
"477 1377 OFFCURVE",
"230 1237 OFFCURVE",
"202 914 CURVE",
"534 914 LINE",
"560 1028 OFFCURVE",
"633 1092 OFFCURVE",
"720 1092 CURVE SMOOTH",
"818 1092 OFFCURVE",
"857 1028 OFFCURVE",
"852 962 CURVE SMOOTH",
"846 888 OFFCURVE",
"804 836 OFFCURVE",
"708 795 CURVE",
"437 691 LINE SMOOTH",
"227 608 OFFCURVE",
"148 483 OFFCURVE",
"123 265 CURVE SMOOTH",
"98 0 LINE",
"1077 0 LINE",
"1106 300 LINE",
"424 300 LINE",
"426 312 LINE"
);
}
);
width = 1141;
},
{
layerId = "3D647E92-BB94-42FD-9C12-A678B6C1687F";
paths = (
{
closed = 1;
nodes = (
"286 314 OFFCURVE",
"348 378 OFFCURVE",
"468 430 CURVE SMOOTH",
"706 532 LINE SMOOTH",
"878 604 OFFCURVE",
"990 718 OFFCURVE",
"1010 914 CURVE SMOOTH",
"1030 1126 OFFCURVE",
"882 1280 OFFCURVE",
"662 1280 CURVE SMOOTH",
"424 1280 OFFCURVE",
"256 1158 OFFCURVE",
"224 940 CURVE",
"380 940 LINE",
"406 1072 OFFCURVE",
"510 1140 OFFCURVE",
"650 1140 CURVE SMOOTH",
"792 1140 OFFCURVE",
"870 1050 OFFCURVE",
"856 922 CURVE SMOOTH",
"846 800 OFFCURVE",
"778 722 OFFCURVE",
"660 672 CURVE SMOOTH",
"428 572 LINE SMOOTH",
"262 502 OFFCURVE",
"152 404 OFFCURVE",
"132 186 CURVE SMOOTH",
"116 0 LINE",
"914 0 LINE",
"926 146 LINE",
"270 146 LINE",
"276 206 LINE SMOOTH"
);
}
);
width = 1043.91304;
}
);
unicode = 0032;
},
{
glyphname = three;
lastChange = "2020-10-22 18:07:07 +0000";
layers = (
{
layerId = "AD226DB4-BE97-401A-8A1F-FC26A063DFB1";
paths = (
{
closed = 1;
nodes = (
"738 -15 OFFCURVE",
"877 121 OFFCURVE",
"899 326 CURVE SMOOTH",
"913 495 OFFCURVE",
"821 597 OFFCURVE",
"681 634 CURVE",
"817 686 OFFCURVE",
"897 776 OFFCURVE",
"913 908 CURVE SMOOTH",
"929 1090 OFFCURVE",
"793 1232 OFFCURVE",
"601 1232 CURVE SMOOTH",
"440 1232 OFFCURVE",
"292 1160 OFFCURVE",
"242 961 CURVE",
"308 961 LINE",
"356 1120 OFFCURVE",
"467 1164 OFFCURVE",
"589 1164 CURVE SMOOTH",
"758 1164 OFFCURVE",
"854 1051 OFFCURVE",
"838 905 CURVE SMOOTH",
"823 751 OFFCURVE",
"679 656 OFFCURVE",
"468 656 CURVE SMOOTH",
"430 656 LINE",
"420 595 LINE",
"522 595 LINE SMOOTH",
"763 595 OFFCURVE",
"844 473 OFFCURVE",
"830 328 CURVE SMOOTH",
"814 172 OFFCURVE",
"697 48 OFFCURVE",
"513 48 CURVE SMOOTH",
"330 48 OFFCURVE",
"184 151 OFFCURVE",
"206 362 CURVE",
"145 362 LINE",
"119 114 OFFCURVE",
"293 -15 OFFCURVE",
"502 -15 CURVE SMOOTH"
);
}
);
width = 1003;
},
{
layerId = "2146CDF3-509B-498B-BCC4-8BA41979C9D7";
paths = (
{
closed = 1;
nodes = (
"896 -35 OFFCURVE",
"1134 141 OFFCURVE",
"1156 386 CURVE SMOOTH",
"1170 534 OFFCURVE",
"1090 643 OFFCURVE",
"957 706 CURVE",
"1086 752 OFFCURVE",
"1160 861 OFFCURVE",
"1170 993 CURVE SMOOTH",
"1192 1229 OFFCURVE",
"1003 1377 OFFCURVE",
"713 1377 CURVE SMOOTH",
"427 1377 OFFCURVE",
"213 1239 OFFCURVE",
"163 934 CURVE",
"478 934 LINE",
"507 1035 OFFCURVE",
"598 1079 OFFCURVE",
"701 1079 CURVE SMOOTH",
"818 1079 OFFCURVE",
"854 1024 OFFCURVE",
"851 951 CURVE SMOOTH",
"843 863 OFFCURVE",
"784 807 OFFCURVE",
"692 807 CURVE SMOOTH",
"502 807 LINE",
"480 549 LINE",
"667 549 LINE SMOOTH",
"783 549 OFFCURVE",
"844 512 OFFCURVE",
"836 419 CURVE SMOOTH",
"827 330 OFFCURVE",
"743 272 OFFCURVE",
"618 272 CURVE SMOOTH",
"488 272 OFFCURVE",
"427 342 OFFCURVE",
"423 434 CURVE",
"99 434 LINE",
"73 127 OFFCURVE",
"326 -35 OFFCURVE",
"593 -35 CURVE SMOOTH"
);
}
);
width = 1187;
},
{
layerId = "3D647E92-BB94-42FD-9C12-A678B6C1687F";
paths = (
{
closed = 1;
nodes = (
"790 -22 OFFCURVE",
"962 128 OFFCURVE",
"984 346 CURVE SMOOTH",
"998 508 OFFCURVE",
"910 612 OFFCURVE",
"772 658 CURVE",
"906 708 OFFCURVE",
"984 804 OFFCURVE",
"998 936 CURVE SMOOTH",
"1016 1136 OFFCURVE",
"862 1280 OFFCURVE",
"638 1280 CURVE SMOOTH",
"436 1280 OFFCURVE",
"266 1186 OFFCURVE",
"216 952 CURVE",
"364 952 LINE",
"406 1092 OFFCURVE",
"510 1136 OFFCURVE",
"626 1136 CURVE SMOOTH",
"778 1136 OFFCURVE",
"854 1042 OFFCURVE",
"842 920 CURVE SMOOTH",
"830 788 OFFCURVE",
"714 706 OFFCURVE",
"542 706 CURVE SMOOTH",
"454 706 LINE",
"440 580 LINE",
"570 580 LINE SMOOTH",
"770 580 OFFCURVE",
"844 486 OFFCURVE",
"832 358 CURVE SMOOTH",
"818 224 OFFCURVE",
"712 122 OFFCURVE",
"548 122 CURVE SMOOTH",
"382 122 OFFCURVE",
"264 214 OFFCURVE",
"278 386 CURVE",
"130 386 LINE",
"104 118 OFFCURVE",
"304 -22 OFFCURVE",
"532 -22 CURVE SMOOTH"
);
}
);
width = 1063.8;
}
);
unicode = 0033;
},
{
glyphname = four;
lastChange = "2020-02-19 16:24:59 +0000";
layers = (
{
layerId = "AD226DB4-BE97-401A-8A1F-FC26A063DFB1";
paths = (
{
closed = 1;
nodes = (
"692 0 LINE",
"720 321 LINE",
"909 321 LINE",
"919 386 LINE",
"729 386 LINE",
"810 1237 LINE",
"760 1237 LINE",
"90 383 LINE",
"83 321 LINE",
"658 321 LINE",
"632 0 LINE"
);
},
{
closed = 1;
nodes = (
"728 1095 LINE",
"661 383 LINE",
"171 383 LINE"
);
}
);
width = 937;
},
{
layerId = "2146CDF3-509B-498B-BCC4-8BA41979C9D7";
paths = (
{
closed = 1;
nodes = (
"928 0 LINE",
"956 269 LINE",
"1166 269 LINE",
"1188 550 LINE",
"979 550 LINE",
"1053 1355 LINE",
"760 1355 LINE",
"77 514 LINE",
"56 269 LINE",
"658 269 LINE",
"632 0 LINE"
);
},
{
closed = 1;
nodes = (
"734 885 LINE",
"700 514 LINE",
"428 514 LINE"
);
}
);
width = 1147;
},
{
layerId = "3D647E92-BB94-42FD-9C12-A678B6C1687F";
paths = (
{
closed = 1;
nodes = (
"770 0 LINE",
"798 304 LINE",
"994 304 LINE",
"1008 440 LINE",
"812 440 LINE",
"890 1276 LINE",
"760 1275.991 LINE",
"86 426 LINE",
"74 304 LINE",
"658 304 LINE",
"632 0 LINE"
);
},
{
closed = 1;
nodes = (
"730 1026 LINE",
"674 426 LINE",
"256 426 LINE"
);
}
);
width = 1006.3913;
}
);
unicode = 0034;
},
{
glyphname = five;
lastChange = "2020-10-22 18:07:00 +0000";
layers = (
{
layerId = "AD226DB4-BE97-401A-8A1F-FC26A063DFB1";
paths = (
{
closed = 1;
nodes = (
"710 -15 OFFCURVE",
"861 149 OFFCURVE",
"887 382 CURVE SMOOTH",
"907 616 OFFCURVE",
"771 729 OFFCURVE",
"518 729 CURVE SMOOTH",
"466 729 OFFCURVE",
"403 721 OFFCURVE",
"347 711 CURVE",
"426 1149 LINE",
"912 1149 LINE",
"919 1215 LINE",
"369 1215 LINE",
"270 663 LINE",
"518 663 LINE SMOOTH",
"723 663 OFFCURVE",
"831 566 OFFCURVE",
"815 382 CURVE SMOOTH",
"797 190 OFFCURVE",
"678 48 OFFCURVE",
"487 48 CURVE SMOOTH",
"328 48 OFFCURVE",
"206 141 OFFCURVE",
"223 309 CURVE",
"163 309 LINE",
"139 93 OFFCURVE",
"307 -15 OFFCURVE",
"480 -15 CURVE SMOOTH"
);
}
);
width = 981;
},
{
layerId = "2146CDF3-509B-498B-BCC4-8BA41979C9D7";
paths = (
{
closed = 1;
nodes = (
"849 -35 OFFCURVE",
"1071 188 OFFCURVE",
"1090 461 CURVE",
"1117 707 OFFCURVE",
"968 854 OFFCURVE",
"735 854 CURVE SMOOTH",
"683 854 OFFCURVE",
"600 846 OFFCURVE",
"538 836 CURVE",
"577 1044 LINE",
"1076 1044 LINE",
"1103 1346 LINE",
"317 1346 LINE",
"191 611 LINE",
"609 611 LINE SMOOTH",
"743 611 OFFCURVE",
"798 560 OFFCURVE",
"788 461 CURVE SMOOTH",
"777 354 OFFCURVE",
"684 272 OFFCURVE",
"586 272 CURVE SMOOTH",
"486 272 OFFCURVE",
"423 319 OFFCURVE",
"433 434 CURVE",
"124 434 LINE",
"106 139 OFFCURVE",
"261 -35 OFFCURVE",
"559 -35 CURVE SMOOTH"
);
}
);
width = 1086;
},
{
layerId = "3D647E92-BB94-42FD-9C12-A678B6C1687F";
paths = (
{
closed = 1;
nodes = (
"756 -22 OFFCURVE",
"930 162 OFFCURVE",
"954 408 CURVE SMOOTH",
"976 646 OFFCURVE",
"836 770 OFFCURVE",
"590 770 CURVE SMOOTH",
"538 770 OFFCURVE",
"468 762 OFFCURVE",
"410 752 CURVE",
"476 1114 LINE",
"966 1114 LINE",
"980 1258 LINE",
"352 1258 LINE",
"244 646 LINE",
"548 646 LINE SMOOTH",
"730 646 OFFCURVE",
"820 564 OFFCURVE",
"806 408 CURVE SMOOTH",
"790 244 OFFCURVE",
"680 122 OFFCURVE",
"520 122 CURVE SMOOTH",
"380 122 OFFCURVE",
"278 200 OFFCURVE",
"292 350 CURVE",
"150 350 LINE",
"128 108 OFFCURVE",
"292 -22 OFFCURVE",
"506 -22 CURVE SMOOTH"
);
}
);
width = 1015.69565;
}
);
unicode = 0035;
},
{
glyphname = six;
lastChange = "2020-02-19 16:24:59 +0000";
layers = (
{
layerId = "AD226DB4-BE97-401A-8A1F-FC26A063DFB1";
paths = (
{
closed = 1;
nodes = (
"703 -20 OFFCURVE",
"853 125 OFFCURVE",
"877 342 CURVE SMOOTH",
"895 561 OFFCURVE",
"751 717 OFFCURVE",
"564 717 CURVE SMOOTH",
"402 717 OFFCURVE",
"241 620 OFFCURVE",
"208 334 CURVE",
"175 835 OFFCURVE",
"384 1164 OFFCURVE",
"639 1164 CURVE SMOOTH",
"781 1164 OFFCURVE",
"842 1075 OFFCURVE",
"854 938 CURVE",
"926 938 LINE",
"917 1109 OFFCURVE",
"821 1232 OFFCURVE",
"647 1232 CURVE SMOOTH",
"370 1232 OFFCURVE",
"192 978 OFFCURVE",
"155 584 CURVE SMOOTH",
"127 248 OFFCURVE",
"246 -20 OFFCURVE",
"495 -20 CURVE SMOOTH"
);
},
{
closed = 1;
nodes = (
"351 48 OFFCURVE",
"243 157 OFFCURVE",
"260 344 CURVE SMOOTH",
"274 501 OFFCURVE",
"403 635 OFFCURVE",
"561 635 CURVE SMOOTH",
"721 635 OFFCURVE",
"824 524 OFFCURVE",
"807 344 CURVE SMOOTH",
"791 157 OFFCURVE",
"666 48 OFFCURVE",
"502 48 CURVE SMOOTH"
);
}
);
width = 967;
},
{
layerId = "2146CDF3-509B-498B-BCC4-8BA41979C9D7";
paths = (
{
closed = 1;
nodes = (
"900 -33 OFFCURVE",
"1110 145 OFFCURVE",
"1134 408 CURVE SMOOTH",
"1158 660 OFFCURVE",
"1027 842 OFFCURVE",
"788 842 CURVE SMOOTH",
"638 842 OFFCURVE",
"491 778 OFFCURVE",
"432 558 CURVE",
"451 874 OFFCURVE",
"554 1079 OFFCURVE",
"738 1079 CURVE SMOOTH",
"814 1079 OFFCURVE",
"855 1029 OFFCURVE",
"854 944 CURVE",
"1169 944 LINE",
"1193 1208 OFFCURVE",
"1018 1377 OFFCURVE",
"752 1377 CURVE SMOOTH",
"436 1377 OFFCURVE",
"179 1129 OFFCURVE",
"135 650 CURVE SMOOTH",
"94 248 OFFCURVE",
"306 -33 OFFCURVE",
"626 -33 CURVE SMOOTH"
);
},
{
closed = 1;
nodes = (
"561 272 OFFCURVE",
"493 335 OFFCURVE",
"503 423 CURVE SMOOTH",
"510 528 OFFCURVE",
"594 583 OFFCURVE",
"679 583 CURVE SMOOTH",
"767 583 OFFCURVE",
"837 524 OFFCURVE",
"827 423 CURVE SMOOTH",
"818 335 OFFCURVE",
"738 272 OFFCURVE",
"653 272 CURVE SMOOTH"
);
}
);
width = 1164;
},
{
layerId = "3D647E92-BB94-42FD-9C12-A678B6C1687F";
paths = (
{
closed = 1;
nodes = (
"768 -24 OFFCURVE",
"938 132 OFFCURVE",
"962 364 CURVE SMOOTH",
"982 594 OFFCURVE",
"842 758 OFFCURVE",
"638 758 CURVE SMOOTH",
"480 758 OFFCURVE",
"324 672 OFFCURVE",
"282 408 CURVE",
"266 848 OFFCURVE",
"440 1136 OFFCURVE",
"672 1136 CURVE SMOOTH",
"792 1136 OFFCURVE",
"846 1060 OFFCURVE",
"854 940 CURVE",
"1006 940 LINE",
"1008 1142 OFFCURVE",
"886 1280 OFFCURVE",
"682 1280 CURVE SMOOTH",
"392 1280 OFFCURVE",
"188 1028 OFFCURVE",
"148 606 CURVE SMOOTH",
"116 248 OFFCURVE",
"266 -24 OFFCURVE",
"538 -24 CURVE SMOOTH"
);
},
{
closed = 1;
nodes = (
"420 122 OFFCURVE",
"326 216 OFFCURVE",
"340 370 CURVE SMOOTH",
"352 510 OFFCURVE",
"466 618 OFFCURVE",
"600 618 CURVE SMOOTH",
"736 618 OFFCURVE",
"828 524 OFFCURVE",
"814 370 CURVE SMOOTH",
"800 216 OFFCURVE",
"690 122 OFFCURVE",
"552 122 CURVE SMOOTH"
);
}
);
width = 1032.09565;
}
);
unicode = 0036;
},
{
glyphname = seven;
lastChange = "2020-02-19 16:24:59 +0000";
layers = (
{
layerId = "AD226DB4-BE97-401A-8A1F-FC26A063DFB1";
paths = (
{
closed = 1;
nodes = (
"220 0 LINE",
"868 1155 LINE",
"873 1215 LINE",
"158 1215 LINE",
"152 1145 LINE",
"793 1145 LINE",
"130 0 LINE"
);
}
);
width = 792;
},
{
layerId = "2146CDF3-509B-498B-BCC4-8BA41979C9D7";
paths = (
{
closed = 1;
nodes = (
"450 0 LINE",
"1019 1024 LINE",
"1051 1346 LINE",
"171 1346 LINE",
"139 1027 LINE",
"668 1027 LINE",
"51 0 LINE"
);
}
);
width = 956;
},
{
layerId = "3D647E92-BB94-42FD-9C12-A678B6C1687F";
paths = (
{
closed = 1;
nodes = (
"296 0 LINE",
"918 1112 LINE",
"932 1258 LINE",
"162 1258 LINE",
"148 1106 LINE",
"752 1106 LINE",
"104 0 LINE"
);
}
);
width = 846.1913;
}
);
unicode = 0037;
},
{
glyphname = eight;
lastChange = "2020-10-22 18:07:07 +0000";
layers = (
{
layerId = "AD226DB4-BE97-401A-8A1F-FC26A063DFB1";
paths = (
{
closed = 1;
nodes = (
"775 -15 OFFCURVE",
"942 99 OFFCURVE",
"962 281 CURVE SMOOTH",
"978 433 OFFCURVE",
"898 517 OFFCURVE",
"747 582 CURVE SMOOTH",
"693 603 LINE",
"866 629 OFFCURVE",
"962 764 OFFCURVE",
"974 906 CURVE SMOOTH",
"994 1089 OFFCURVE",
"858 1232 OFFCURVE",
"639 1232 CURVE SMOOTH",
"401 1232 OFFCURVE",
"244 1088 OFFCURVE",
"231 920 CURVE",
"212 769 OFFCURVE",
"327 679 OFFCURVE",
"420 634 CURVE",
"264 603 OFFCURVE",
"153 487 OFFCURVE",
"141 321 CURVE SMOOTH",
"121 126 OFFCURVE",
"286 -15 OFFCURVE",
"515 -15 CURVE SMOOTH"
);
},
{
closed = 1;
nodes = (
"329 48 OFFCURVE",
"190 145 OFFCURVE",
"209 324 CURVE SMOOTH",
"221 451 OFFCURVE",
"333 573 OFFCURVE",
"498 602 CURVE",
"711 511 LINE SMOOTH",
"827 465 OFFCURVE",
"905 394 OFFCURVE",
"892 286 CURVE SMOOTH",
"880 144 OFFCURVE",
"730 48 OFFCURVE",
"527 48 CURVE SMOOTH"
);
},
{
closed = 1;
nodes = (
"477 697 LINE SMOOTH",
"364 748 OFFCURVE",
"297 802 OFFCURVE",
"305 918 CURVE",
"323 1050 OFFCURVE",
"454 1164 OFFCURVE",
"628 1164 CURVE SMOOTH",
"811 1164 OFFCURVE",
"925 1055 OFFCURVE",
"908 907 CURVE SMOOTH",
"892 755 OFFCURVE",
"767 649 OFFCURVE",
"601 643 CURVE"
);
}
);
width = 1043;
},
{
layerId = "2146CDF3-509B-498B-BCC4-8BA41979C9D7";
paths = (
{
closed = 1;
nodes = (
"959 -35 OFFCURVE",
"1172 145 OFFCURVE",
"1192 380 CURVE SMOOTH",
"1208 564 OFFCURVE",
"1115 648 OFFCURVE",
"944 727 CURVE",
"962 721 LINE",
"1102 754 OFFCURVE",
"1198 855 OFFCURVE",
"1210 978 CURVE SMOOTH",
"1230 1214 OFFCURVE",
"1022 1377 OFFCURVE",
"744 1377 CURVE SMOOTH",
"428 1377 OFFCURVE",
"238 1246 OFFCURVE",
"211 999 CURVE",
"199 821 OFFCURVE",
"307 706 OFFCURVE",
"420 640 CURVE",
"258 623 OFFCURVE",
"126 526 OFFCURVE",
"108 367 CURVE SMOOTH",
"88 139 OFFCURVE",
"273 -35 OFFCURVE",
"614 -35 CURVE SMOOTH"
);
},
{
closed = 1;
nodes = (
"513 272 OFFCURVE",
"414 323 OFFCURVE",
"419 403 CURVE SMOOTH",
"424 478 OFFCURVE",
"530 534 OFFCURVE",
"656 530 CURVE",
"816 459 LINE",
"866 432 OFFCURVE",
"885 400 OFFCURVE",
"886 358 CURVE",
"880 308 OFFCURVE",
"815 272 OFFCURVE",
"639 272 CURVE SMOOTH"
);
},
{
closed = 1;
nodes = (
"582 894 LINE SMOOTH",
"528 918 OFFCURVE",
"507 947 OFFCURVE",
"515 984 CURVE",
"514 1044 OFFCURVE",
"612 1079 OFFCURVE",
"719 1079 CURVE SMOOTH",
"831 1079 OFFCURVE",
"905 1035 OFFCURVE",
"902 953 CURVE",
"892 880 OFFCURVE",
"800 833 OFFCURVE",
"713 834 CURVE"
);
}
);
width = 1234;
},
{
layerId = "3D647E92-BB94-42FD-9C12-A678B6C1687F";
paths = (
{
closed = 1;
nodes = (
"836 -22 OFFCURVE",
"1018 114 OFFCURVE",
"1038 314 CURVE SMOOTH",
"1054 476 OFFCURVE",
"970 560 OFFCURVE",
"812 630 CURVE SMOOTH",
"782 642 LINE",
"944 670 OFFCURVE",
"1040 794 OFFCURVE",
"1052 930 CURVE SMOOTH",
"1072 1130 OFFCURVE",
"912 1280 OFFCURVE",
"674 1280 CURVE SMOOTH",
"410 1280 OFFCURVE",
"242 1140 OFFCURVE",
"224 946 CURVE SMOOTH",
"208 786 OFFCURVE",
"320 688 OFFCURVE",
"420 636 CURVE",
"262 610 OFFCURVE",
"144 500 OFFCURVE",
"130 336 CURVE SMOOTH",
"110 130 OFFCURVE",
"282 -22 OFFCURVE",
"548 -22 CURVE SMOOTH"
);
},
{
closed = 1;
nodes = (
"390 122 OFFCURVE",
"264 204 OFFCURVE",
"278 350 CURVE SMOOTH",
"288 460 OFFCURVE",
"398 560 OFFCURVE",
"550 578 CURVE",
"746 494 LINE SMOOTH",
"840 454 OFFCURVE",
"898 396 OFFCURVE",
"890 310 CURVE SMOOTH",
"880 198 OFFCURVE",
"758 122 OFFCURVE",
"564 122 CURVE SMOOTH"
);
},
{
closed = 1;
nodes = (
"512 762 LINE SMOOTH",
"418 804 OFFCURVE",
"366 850 OFFCURVE",
"374 940 CURVE SMOOTH",
"386 1048 OFFCURVE",
"506 1136 OFFCURVE",
"658 1136 CURVE SMOOTH",
"818 1136 OFFCURVE",
"918 1048 OFFCURVE",
"906 922 CURVE SMOOTH",
"892 796 OFFCURVE",
"778 710 OFFCURVE",
"638 706 CURVE"
);
}
);
width = 1106.11304;
}
);
unicode = 0038;
},
{
glyphname = nine;
lastChange = "2020-10-22 18:07:04 +0000";
layers = (
{
layerId = "AD226DB4-BE97-401A-8A1F-FC26A063DFB1";
paths = (
{
closed = 1;
nodes = (
"764 -15 OFFCURVE",
"911 227 OFFCURVE",
"949 632 CURVE SMOOTH",
"985 1004 OFFCURVE",
"841 1232 OFFCURVE",
"602 1232 CURVE SMOOTH",
"400 1232 OFFCURVE",
"246 1089 OFFCURVE",
"226 874 CURVE SMOOTH",
"204 655 OFFCURVE",
"346 498 OFFCURVE",
"537 498 CURVE SMOOTH",
"718 498 OFFCURVE",
"852 626 OFFCURVE",
"883 837 CURVE",
"885 770 OFFCURVE",
"883 722 OFFCURVE",
"879 657 CURVE",
"840 284 OFFCURVE",
"719 48 OFFCURVE",
"490 48 CURVE SMOOTH",
"315 48 OFFCURVE",
"229 172 OFFCURVE",
"245 359 CURVE",
"173 359 LINE",
"153 148 OFFCURVE",
"273 -15 OFFCURVE",
"484 -15 CURVE SMOOTH"
);
},
{
closed = 1;
nodes = (
"378 575 OFFCURVE",
"278 689 OFFCURVE",
"296 869 CURVE SMOOTH",
"312 1053 OFFCURVE",
"435 1162 OFFCURVE",
"595 1162 CURVE SMOOTH",
"757 1162 OFFCURVE",
"856 1053 OFFCURVE",
"839 869 CURVE SMOOTH",
"827 709 OFFCURVE",
"700 575 OFFCURVE",
"542 575 CURVE SMOOTH"
);
}
);
width = 990;
},
{
layerId = "2146CDF3-509B-498B-BCC4-8BA41979C9D7";
paths = (
{
closed = 1;
nodes = (
"903 -35 OFFCURVE",
"1108 254 OFFCURVE",
"1152 692 CURVE SMOOTH",
"1188 1095 OFFCURVE",
"966 1377 OFFCURVE",
"662 1377 CURVE SMOOTH",
"387 1377 OFFCURVE",
"180 1201 OFFCURVE",
"154 934 CURVE SMOOTH",
"132 682 OFFCURVE",
"267 504 OFFCURVE",
"498 504 CURVE SMOOTH",
"646 504 OFFCURVE",
"792 566 OFFCURVE",
"863 791 CURVE",
"865 764 OFFCURVE",
"863 735 OFFCURVE",
"859 709 CURVE",
"834 448 OFFCURVE",
"752 272 OFFCURVE",
"575 272 CURVE SMOOTH",
"499 272 OFFCURVE",
"432 317 OFFCURVE",
"436 398 CURVE",
"127 398 LINE",
"101 135 OFFCURVE",
"300 -35 OFFCURVE",
"556 -35 CURVE SMOOTH"
);
},
{
closed = 1;
nodes = (
"523 766 OFFCURVE",
"448 820 OFFCURVE",
"460 921 CURVE SMOOTH",
"470 1014 OFFCURVE",
"553 1077 OFFCURVE",
"634 1077 CURVE SMOOTH",
"718 1077 OFFCURVE",
"796 1014 OFFCURVE",
"787 921 CURVE SMOOTH",
"775 821 OFFCURVE",
"687 766 OFFCURVE",
"608 766 CURVE SMOOTH"
);
}
);
width = 1160;
},
{
layerId = "3D647E92-BB94-42FD-9C12-A678B6C1687F";
paths = (
{
closed = 1;
nodes = (
"810 -22 OFFCURVE",
"976 236 OFFCURVE",
"1016 652 CURVE SMOOTH",
"1052 1034 OFFCURVE",
"882 1280 OFFCURVE",
"622 1280 CURVE SMOOTH",
"396 1280 OFFCURVE",
"224 1126 OFFCURVE",
"202 894 CURVE SMOOTH",
"180 664 OFFCURVE",
"320 500 OFFCURVE",
"524 500 CURVE SMOOTH",
"694 500 OFFCURVE",
"832 606 OFFCURVE",
"876 822 CURVE",
"878 768 OFFCURVE",
"876 726 OFFCURVE",
"872 674 CURVE SMOOTH",
"838 338 OFFCURVE",
"730 122 OFFCURVE",
"518 122 CURVE SMOOTH",
"376 122 OFFCURVE",
"296 220 OFFCURVE",
"308 372 CURVE",
"158 372 LINE",
"136 144 OFFCURVE",
"282 -22 OFFCURVE",
"508 -22 CURVE SMOOTH"
);
},
{
closed = 1;
nodes = (
"426 638 OFFCURVE",
"334 732 OFFCURVE",
"350 886 CURVE SMOOTH",
"364 1040 OFFCURVE",
"474 1134 OFFCURVE",
"608 1134 CURVE SMOOTH",
"744 1134 OFFCURVE",
"836 1040 OFFCURVE",
"822 886 CURVE SMOOTH",
"810 746 OFFCURVE",
"696 638 OFFCURVE",
"564 638 CURVE SMOOTH"
);
}
);
width = 1046.17391;
}
);
unicode = 0039;
},
{
glyphname = dollar;
lastChange = "2020-10-22 18:14:05 +0000";
layers = (
{
layerId = "AD226DB4-BE97-401A-8A1F-FC26A063DFB1";
paths = (
{
closed = 1;
nodes = (
"530 -160 LINE",
"542 -13 LINE",
"771 2 OFFCURVE",
"904 155 OFFCURVE",
"922 313 CURVE SMOOTH",
"938 485 OFFCURVE",
"838 583 OFFCURVE",
"695 632 CURVE SMOOTH",
"607 660 LINE",
"652 1162 LINE",
"790 1153 OFFCURVE",
"864 1087 OFFCURVE",
"879 965 CURVE",
"943 965 LINE",
"937 1114 OFFCURVE",
"839 1217 OFFCURVE",
"661 1224 CURVE",
"673 1374 LINE",
"605 1374 LINE",
"593 1226 LINE",
"385 1210 OFFCURVE",
"269 1089 OFFCURVE",
"257 924 CURVE SMOOTH",
"237 757 OFFCURVE",
"326 686 OFFCURVE",
"512 622 CURVE SMOOTH",
"533 613 LINE",
"476 50 LINE",
"320 64 OFFCURVE",
"206 157 OFFCURVE",
"220 348 CURVE",
"162 348 LINE",
"145 132 OFFCURVE",
"285 0 OFFCURVE",
"471 -14 CURVE",
"459 -160 LINE"
);
},
{
closed = 1;
nodes = (
"600 588 LINE",
"673 564 LINE SMOOTH",
"794 522 OFFCURVE",
"861 441 OFFCURVE",
"853 314 CURVE SMOOTH",
"837 189 OFFCURVE",
"727 66 OFFCURVE",
"547 50 CURVE"
);
},
{
closed = 1;
nodes = (
"489 699 LINE SMOOTH",
"363 744 OFFCURVE",
"312 802 OFFCURVE",
"322 920 CURVE SMOOTH",
"330 1046 OFFCURVE",
"428 1144 OFFCURVE",
"583 1156 CURVE",
"541 686 LINE"
);
}
);
width = 1027;
},
{
background = {
paths = (
{
closed = 1;
nodes = (
"760 -226 LINE",
"778 -33 LINE",
"1113 -11 OFFCURVE",
"1273 175 OFFCURVE",
"1291 365 CURVE SMOOTH",
"1307 537 OFFCURVE",
"1238 635 OFFCURVE",
"1050 717 CURVE SMOOTH",
"857 799 LINE",
"888 1083 LINE",
"960 1048 OFFCURVE",
"1003 982 OFFCURVE",
"1004 926 CURVE",
"1298 926 LINE",
"1279 1174 OFFCURVE",
"1168 1335 OFFCURVE",
"911 1375 CURVE",
"930 1532 LINE",
"730 1532 LINE",
"711 1377 LINE",
"412 1355 OFFCURVE",
"236 1207 OFFCURVE",
"211 996 CURVE",
"198 803 OFFCURVE",
"313 699 OFFCURVE",
"512 616 CURVE SMOOTH",
"638 567 LINE",
"615 280 LINE",
"484 300 OFFCURVE",
"436 348 OFFCURVE",
"450 439 CURVE",
"149 439 LINE",
"118 145 OFFCURVE",
"318 6 OFFCURVE",
"583 -27 CURVE",
"564 -226 LINE"
);
},
{
closed = 1;
nodes = (
"830 516 LINE",
"876 492 LINE SMOOTH",
"933 462 OFFCURVE",
"960 421 OFFCURVE",
"952 374 CURVE",
"949 320 OFFCURVE",
"911 283 OFFCURVE",
"810 274 CURVE"
);
},
{
closed = 1;
nodes = (
"614 890 LINE",
"560 914 OFFCURVE",
"536 947 OFFCURVE",
"539 986 CURVE",
"547 1040 OFFCURVE",
"592 1078 OFFCURVE",
"688 1096 CURVE",
"666 856 LINE"
);
}
);
};
layerId = "2146CDF3-509B-498B-BCC4-8BA41979C9D7";
paths = (
{
closed = 1;
nodes = (
"760 -226 LINE",
"778 -33 LINE",
"1113 -11 OFFCURVE",
"1273 175 OFFCURVE",
"1291 365 CURVE SMOOTH",
"1307 537 OFFCURVE",
"1239 637 OFFCURVE",
"1050 717 CURVE SMOOTH",
"857 799 LINE",
"888 1083 LINE",
"969 1060 OFFCURVE",
"1003 982 OFFCURVE",
"1004 926 CURVE",
"1298 926 LINE",
"1279 1174 OFFCURVE",
"1168 1335 OFFCURVE",
"911 1375 CURVE",
"930 1532 LINE",
"730 1532 LINE",
"711 1377 LINE",
"412 1355 OFFCURVE",
"236 1207 OFFCURVE",
"211 996 CURVE SMOOTH",
"198 803 OFFCURVE",
"311 694 OFFCURVE",
"512 616 CURVE SMOOTH",
"638 567 LINE",
"615 280 LINE",
"484 300 OFFCURVE",
"436 348 OFFCURVE",
"450 439 CURVE",
"149 439 LINE",
"118 145 OFFCURVE",
"318 6 OFFCURVE",
"583 -27 CURVE",
"564 -226 LINE"
);
},
{
closed = 1;
nodes = (
"830 516 LINE",
"876 492 LINE SMOOTH",
"933 462 OFFCURVE",
"960 421 OFFCURVE",
"952 374 CURVE SMOOTH",
"949 320 OFFCURVE",
"911 283 OFFCURVE",
"810 274 CURVE"
);
},
{
closed = 1;
nodes = (
"626 880 LINE SMOOTH",
"558 921 OFFCURVE",
"536 947 OFFCURVE",
"542 999 CURVE SMOOTH",
"547 1040 OFFCURVE",
"592 1096 OFFCURVE",
"688 1096 CURVE",
"666 856 LINE"
);
}
);
width = 1362;
},
{
layerId = "3D647E92-BB94-42FD-9C12-A678B6C1687F";
paths = (
{
closed = 1;
nodes = (
"606 -182 LINE",
"620 -20 LINE",
"884 -2 OFFCURVE",
"1026 162 OFFCURVE",
"1044 330 CURVE SMOOTH",
"1060 502 OFFCURVE",
"970 600 OFFCURVE",
"812 660 CURVE SMOOTH",
"690 706 LINE",
"730 1136 LINE",
"846 1118 OFFCURVE",
"910 1052 OFFCURVE",
"920 952 CURVE",
"1060 952 LINE",
"1050 1134 OFFCURVE",
"948 1256 OFFCURVE",
"744 1274 CURVE",
"758 1426 LINE",
"646 1426 LINE",
"632 1276 LINE",
"394 1258 OFFCURVE",
"258 1128 OFFCURVE",
"242 948 CURVE SMOOTH",
"224 772 OFFCURVE",
"322 690 OFFCURVE",
"512 620 CURVE SMOOTH",
"568 598 LINE",
"522 126 LINE",
"374 142 OFFCURVE",
"282 220 OFFCURVE",
"296 378 CURVE",
"158 378 LINE",
"136 136 OFFCURVE",
"296 2 OFFCURVE",
"508 -18 CURVE",
"494 -182 LINE"
);
},
{
closed = 1;
nodes = (
"676 564 LINE",
"740 540 LINE SMOOTH",
"840 502 OFFCURVE",
"894 434 OFFCURVE",
"886 334 CURVE SMOOTH",
"874 232 OFFCURVE",
"788 138 OFFCURVE",
"634 124 CURVE"
);
},
{
closed = 1;
nodes = (
"530 762 LINE SMOOTH",
"428 800 OFFCURVE",
"386 850 OFFCURVE",
"394 942 CURVE SMOOTH",
"402 1044 OFFCURVE",
"482 1122 OFFCURVE",
"618 1136 CURVE",
"582 742 LINE"
);
}
);
width = 1137.69565;
}
);
unicode = 0024;
},
{
glyphname = question;
lastChange = "2020-02-19 16:24:59 +0000";
layers = (
{
layerId = "AD226DB4-BE97-401A-8A1F-FC26A063DFB1";
paths = (
{
closed = 1;
nodes = (
"405 250 LINE",
"418 350 LINE SMOOTH",
"440 520 OFFCURVE",
"476 547 OFFCURVE",
"607 629 CURVE SMOOTH",
"703 689 OFFCURVE",
"829 768 OFFCURVE",
"841 937 CURVE SMOOTH",
"853 1098 OFFCURVE",
"752 1232 OFFCURVE",
"530 1232 CURVE SMOOTH",
"328 1232 OFFCURVE",
"188 1120 OFFCURVE",
"157 965 CURVE",
"235 965 LINE",
"274 1086 OFFCURVE",
"357 1164 OFFCURVE",
"523 1164 CURVE SMOOTH",
"689 1164 OFFCURVE",
"780 1087 OFFCURVE",
"774 943 CURVE SMOOTH",
"768 817 OFFCURVE",
"695 767 OFFCURVE",
"566 680 CURVE SMOOTH",
"420 582 OFFCURVE",
"368 530 OFFCURVE",
"354 351 CURVE SMOOTH",
"346 250 LINE"
);
},
{
closed = 1;
nodes = (
"388 -15 OFFCURVE",
"414 11 OFFCURVE",
"418 47 CURVE SMOOTH",
"421 76 OFFCURVE",
"409 111 OFFCURVE",
"365 111 CURVE SMOOTH",
"326 111 OFFCURVE",
"303 83 OFFCURVE",
"299 48 CURVE SMOOTH",
"295 15 OFFCURVE",
"310 -15 OFFCURVE",
"350 -15 CURVE SMOOTH"
);
}
);
width = 863;
},
{
layerId = "2146CDF3-509B-498B-BCC4-8BA41979C9D7";
paths = (
{
closed = 1;
nodes = (
"655 467 LINE",
"654 501 LINE SMOOTH",
"652 581 OFFCURVE",
"706 612 OFFCURVE",
"817 675 CURVE SMOOTH",
"944 747 OFFCURVE",
"1021 824 OFFCURVE",
"1032 976 CURVE SMOOTH",
"1049 1207 OFFCURVE",
"894 1377 OFFCURVE",
"611 1377 CURVE SMOOTH",
"321 1377 OFFCURVE",
"152 1198 OFFCURVE",
"118 926 CURVE",
"419 926 LINE",
"423 1014 OFFCURVE",
"499 1079 OFFCURVE",
"595 1079 CURVE SMOOTH",
"674 1079 OFFCURVE",
"708 1035 OFFCURVE",
"702 976 CURVE SMOOTH",
"695 901 OFFCURVE",
"639 873 OFFCURVE",
"566 838 CURVE SMOOTH",
"446 780 OFFCURVE",
"382 724 OFFCURVE",
"360 535 CURVE SMOOTH",
"352 467 LINE"
);
},
{
closed = 1;
nodes = (
"584 -35 OFFCURVE",
"677 53 OFFCURVE",
"686 181 CURVE SMOOTH",
"694 299 OFFCURVE",
"626 384 OFFCURVE",
"506 384 CURVE SMOOTH",
"386 384 OFFCURVE",
"298 299 OFFCURVE",
"285 181 CURVE SMOOTH",
"271 61 OFFCURVE",
"342 -35 OFFCURVE",
"466 -35 CURVE SMOOTH"
);
}
);
width = 968;
},
{
layerId = "3D647E92-BB94-42FD-9C12-A678B6C1687F";
paths = (
{
closed = 1;
nodes = (
"488 322 LINE",
"496 400 LINE SMOOTH",
"510 540 OFFCURVE",
"552 568 OFFCURVE",
"676 644 CURVE SMOOTH",
"783 708 OFFCURVE",
"892 787 OFFCURVE",
"904 950 CURVE SMOOTH",
"918 1134 OFFCURVE",
"799 1280 OFFCURVE",
"557 1280 CURVE SMOOTH",
"326 1280 OFFCURVE",
"176 1146 OFFCURVE",
"144 952 CURVE",
"296 952 LINE",
"323 1062 OFFCURVE",
"404 1136 OFFCURVE",
"547 1136 CURVE SMOOTH",
"684 1136 OFFCURVE",
"756 1070 OFFCURVE",
"750 954 CURVE SMOOTH",
"744 845 OFFCURVE",
"676 802 OFFCURVE",
"566 732 CURVE SMOOTH",
"429 647 OFFCURVE",
"373 594 OFFCURVE",
"356 412 CURVE SMOOTH",
"348 322 LINE"
);
},
{
closed = 1;
nodes = (
"453 -22 OFFCURVE",
"501 25 OFFCURVE",
"507 91 CURVE SMOOTH",
"511 150 OFFCURVE",
"481 201 OFFCURVE",
"412 201 CURVE SMOOTH",
"346 201 OFFCURVE",
"301 154 OFFCURVE",
"294 92 CURVE SMOOTH",
"287 30 OFFCURVE",
"321 -22 OFFCURVE",
"388 -22 CURVE SMOOTH"
);
}
);
width = 897.69565;
}
);
unicode = 003F;
},
{
glyphname = sterling;
lastChange = "2020-10-22 18:07:00 +0000";
layers = (
{
layerId = "AD226DB4-BE97-401A-8A1F-FC26A063DFB1";
paths = (
{
closed = 1;
nodes = (
"629 0 LINE SMOOTH",
"804 0 OFFCURVE",
"870 98 OFFCURVE",
"902 243 CURVE",
"841 243 LINE",
"811 116 OFFCURVE",
"752 55 OFFCURVE",
"638 55 CURVE SMOOTH",
"213 55 LINE",
"271 85 OFFCURVE",
"291 147 OFFCURVE",
"301 241 CURVE SMOOTH",
"328 504 LINE",
"677 504 LINE",
"683 566 LINE",
"333 566 LINE",
"362 838 LINE SMOOTH",
"382 1069 OFFCURVE",
"473 1164 OFFCURVE",
"619 1164 CURVE SMOOTH",
"714 1164 OFFCURVE",
"793 1108 OFFCURVE",
"810 987 CURVE",
"872 987 LINE",
"862 1143 OFFCURVE",
"762 1232 OFFCURVE",
"627 1232 CURVE SMOOTH",
"413 1232 OFFCURVE",
"320 1072 OFFCURVE",
"296 838 CURVE SMOOTH",
"271 566 LINE",
"92 566 LINE",
"87 504 LINE",
"262 504 LINE",
"237 242 LINE SMOOTH",
"229 116 OFFCURVE",
"173 55 OFFCURVE",
"78 55 CURVE SMOOTH",
"35 55 LINE",
"32 0 LINE"
);
}
);
width = 942;
},
{
layerId = "2146CDF3-509B-498B-BCC4-8BA41979C9D7";
paths = (
{
closed = 1;
nodes = (
"602 0 LINE SMOOTH",
"962 0 OFFCURVE",
"1113 158 OFFCURVE",
"1138 440 CURVE",
"808 440 LINE",
"791 346 OFFCURVE",
"746 305 OFFCURVE",
"625 305 CURVE SMOOTH",
"482 305 LINE",
"528 354 OFFCURVE",
"554 416 OFFCURVE",
"564 498 CURVE SMOOTH",
"571 595 LINE",
"855 595 LINE",
"874 809 LINE",
"590 809 LINE",
"598 917 LINE",
"612 1023 OFFCURVE",
"670 1079 OFFCURVE",
"731 1079 CURVE SMOOTH",
"793 1079 OFFCURVE",
"820 1036 OFFCURVE",
"816 967 CURVE",
"1108 967 LINE",
"1105 1242 OFFCURVE",
"992 1377 OFFCURVE",
"758 1377 CURVE SMOOTH",
"531 1377 OFFCURVE",
"333 1236 OFFCURVE",
"302 917 CURVE SMOOTH",
"291 809 LINE",
"158 809 LINE",
"139 595 LINE",
"275 595 LINE",
"264 472 LINE SMOOTH",
"249 359 OFFCURVE",
"225 305 OFFCURVE",
"138 305 CURVE SMOOTH",
"74 305 LINE",
"45 0 LINE"
);
}
);
width = 1166;
},
{
layerId = "3D647E92-BB94-42FD-9C12-A678B6C1687F";
paths = (
{
closed = 1;
nodes = (
"620 0 LINE SMOOTH",
"856 0 OFFCURVE",
"950 118 OFFCURVE",
"980 308 CURVE",
"830 308 LINE",
"804 192 OFFCURVE",
"750 138 OFFCURVE",
"634 138 CURVE SMOOTH",
"302 138 LINE",
"356 174 OFFCURVE",
"378 236 OFFCURVE",
"388 326 CURVE SMOOTH",
"408 534 LINE",
"736 534 LINE",
"746 646 LINE",
"418 646 LINE",
"440 864 LINE SMOOTH",
"458 1054 OFFCURVE",
"538 1136 OFFCURVE",
"656 1136 CURVE SMOOTH",
"740 1136 OFFCURVE",
"802 1084 OFFCURVE",
"812 980 CURVE",
"950 980 LINE",
"942 1176 OFFCURVE",
"838 1280 OFFCURVE",
"670 1280 CURVE SMOOTH",
"452 1280 OFFCURVE",
"324 1126 OFFCURVE",
"298 864 CURVE SMOOTH",
"278 646 LINE",
"114 646 LINE",
"104 534 LINE",
"266 534 LINE",
"246 318 LINE SMOOTH",
"236 196 OFFCURVE",
"190 138 OFFCURVE",
"98 138 CURVE SMOOTH",
"48 138 LINE",
"36 0 LINE"
);
}
);
width = 1016.01739;
}
);
unicode = 00A3;
},
{
glyphname = grave;
lastChange = "2020-02-19 16:24:59 +0000";
layers = (
{
anchors = (
{
name = _above;
position = "{282, 1270}";
}
);
layerId = "AD226DB4-BE97-401A-8A1F-FC26A063DFB1";
paths = (
{
closed = 1;
nodes = (
"545 1317 LINE",
"573 1365 LINE",
"238 1633 LINE",
"192 1563 LINE"
);
}
);
width = 486;
},
{
anchors = (
{
name = _above;
position = "{282, 1270}";
}
);
layerId = "2146CDF3-509B-498B-BCC4-8BA41979C9D7";
paths = (
{
closed = 1;
nodes = (
"748 1429 LINE",
"842 1634 LINE",
"317 1896 LINE",
"192 1615 LINE"
);
}
);
width = 729;
},
{
anchors = (
{
name = _above;
position = "{282, 1270}";
}
);
layerId = "3D647E92-BB94-42FD-9C12-A678B6C1687F";
paths = (
{
closed = 1;
nodes = (
"612 1354 LINE",
"662 1454 LINE",
"264 1720 LINE",
"192 1580 LINE"
);
}
);
width = 566.29565;
}
);
unicode = 0060;
},
{
glyphname = circumflex;
lastChange = "2020-02-19 16:24:59 +0000";
layers = (
{
anchors = (
{
name = _above;
position = "{368, 1270}";
}
);
layerId = "AD226DB4-BE97-401A-8A1F-FC26A063DFB1";
paths = (
{
closed = 1;
nodes = (
"169 1354 LINE",
"208 1319 LINE",
"455 1550 LINE",
"663 1319 LINE",
"702 1354 LINE",
"465 1655 LINE"
);
}
);
width = 619;
},
{
anchors = (
{
name = _above;
position = "{368, 1270}";
}
);
layerId = "2146CDF3-509B-498B-BCC4-8BA41979C9D7";
paths = (
{
closed = 1;
nodes = (
"196 1590 LINE",
"366 1424 LINE",
"633 1610 LINE",
"860 1424 LINE",
"1071 1590 LINE",
"662 1924 LINE"
);
}
);
width = 961;
},
{
anchors = (
{
name = _above;
position = "{368, 1270}";
}
);
layerId = "3D647E92-BB94-42FD-9C12-A678B6C1687F";
paths = (
{
closed = 1;
nodes = (
"178 1432 LINE",
"260 1354 LINE",
"514 1570 LINE",
"728 1354 LINE",
"824 1432 LINE",
"530 1744 LINE"
);
}
);
width = 732.0087;
}
);
unicode = 02C6;
},
{
glyphname = tilde;
lastChange = "2020-10-22 18:07:07 +0000";
layers = (
{
anchors = (
{
name = _above;
position = "{326, 1270}";
}
);
layerId = "AD226DB4-BE97-401A-8A1F-FC26A063DFB1";
paths = (
{
closed = 1;
nodes = (
"241 1490 OFFCURVE",
"275 1516 OFFCURVE",
"307 1516 CURVE SMOOTH",
"331 1516 OFFCURVE",
"345 1510 OFFCURVE",
"420 1472 CURVE",
"502 1417 OFFCURVE",
"528 1412 OFFCURVE",
"557 1412 CURVE SMOOTH",
"608 1412 OFFCURVE",
"661 1456 OFFCURVE",
"699 1562 CURVE",
"667 1586 LINE",
"635 1510 OFFCURVE",
"601 1476 OFFCURVE",
"563 1476 CURVE SMOOTH",
"537 1476 OFFCURVE",
"526 1479 OFFCURVE",
"440 1530 CURVE SMOOTH",
"358 1578 OFFCURVE",
"340 1586 OFFCURVE",
"314 1586 CURVE SMOOTH",
"260 1586 OFFCURVE",
"215 1538 OFFCURVE",
"176 1430 CURVE",
"204 1412 LINE"
);
}
);
width = 602;
},
{
anchors = (
{
name = _above;
position = "{326, 1270}";
}
);
layerId = "2146CDF3-509B-498B-BCC4-8BA41979C9D7";
paths = (
{
closed = 1;
nodes = (
"340 1569 OFFCURVE",
"380 1588 OFFCURVE",
"425 1588 CURVE SMOOTH",
"449 1588 OFFCURVE",
"470 1576 OFFCURVE",
"511 1544 CURVE",
"568 1516 OFFCURVE",
"607 1491 OFFCURVE",
"656 1491 CURVE SMOOTH",
"747 1491 OFFCURVE",
"858 1626 OFFCURVE",
"896 1792 CURVE",
"785 1882 LINE",
"753 1819 OFFCURVE",
"713 1791 OFFCURVE",
"681 1791 CURVE SMOOTH",
"649 1791 OFFCURVE",
"617 1814 OFFCURVE",
"579 1839 CURVE SMOOTH",
"528 1868 OFFCURVE",
"491 1882 OFFCURVE",
"453 1882 CURVE SMOOTH",
"339 1882 OFFCURVE",
"235 1762 OFFCURVE",
"189 1569 CURVE",
"295 1491 LINE"
);
}
);
width = 772;
},
{
anchors = (
{
name = _above;
position = "{326, 1270}";
}
);
layerId = "3D647E92-BB94-42FD-9C12-A678B6C1687F";
paths = (
{
closed = 1;
nodes = (
"274 1516 OFFCURVE",
"310 1540 OFFCURVE",
"346 1540 CURVE SMOOTH",
"370 1540 OFFCURVE",
"386 1532 OFFCURVE",
"450 1496 CURVE SMOOTH",
"524 1450 OFFCURVE",
"554 1438 OFFCURVE",
"590 1438 CURVE SMOOTH",
"654 1438 OFFCURVE",
"726 1512 OFFCURVE",
"764 1638 CURVE",
"706 1684 LINE",
"674 1612 OFFCURVE",
"638 1580 OFFCURVE",
"602 1580 CURVE SMOOTH",
"574 1580 OFFCURVE",
"556 1590 OFFCURVE",
"486 1632 CURVE SMOOTH",
"414 1674 OFFCURVE",
"390 1684 OFFCURVE",
"360 1684 CURVE SMOOTH",
"286 1684 OFFCURVE",
"222 1612 OFFCURVE",
"180 1476 CURVE",
"234 1438 LINE"
);
}
);
width = 658.17391;
}
);
unicode = 02DC;
},
{
color = 4;
glyphname = ampersand;
lastChange = "2020-10-22 18:15:58 +0000";
layers = (
{
layerId = "AD226DB4-BE97-401A-8A1F-FC26A063DFB1";
paths = (
{
closed = 1;
nodes = (
"729 -15 OFFCURVE",
"873 59 OFFCURVE",
"993 182 CURVE",
"1150 41 OFFCURVE",
"1154 -15 OFFCURVE",
"1275 -15 CURVE SMOOTH",
"1396 -15 OFFCURVE",
"1473 64 OFFCURVE",
"1503 228 CURVE",
"1432 228 LINE",
"1410 95 OFFCURVE",
"1345 47 OFFCURVE",
"1285 47 CURVE SMOOTH",
"1225 47 OFFCURVE",
"1197 64 OFFCURVE",
"1151 115 CURVE SMOOTH",
"1035 236 LINE",
"1144 363 OFFCURVE",
"1228 532 OFFCURVE",
"1294 713 CURVE",
"1246 743 LINE",
"1177 567 OFFCURVE",
"1097 402 OFFCURVE",
"992 277 CURVE",
"674 609 LINE",
"905 724 OFFCURVE",
"990 829 OFFCURVE",
"1001 962 CURVE SMOOTH",
"1015 1117 OFFCURVE",
"906 1232 OFFCURVE",
"750 1232 CURVE SMOOTH",
"569 1232 OFFCURVE",
"433 1122 OFFCURVE",
"417 962 CURVE SMOOTH",
"407 850 OFFCURVE",
"445 752 OFFCURVE",
"540 660 CURVE SMOOTH",
"562 638 LINE",
"325 596 OFFCURVE",
"203 504 OFFCURVE",
"183 324 CURVE SMOOTH",
"165 136 OFFCURVE",
"311 -15 OFFCURVE",
"556 -15 CURVE SMOOTH"
);
},
{
closed = 1;
nodes = (
"341 44 OFFCURVE",
"236 170 OFFCURVE",
"252 321 CURVE SMOOTH",
"267 476 OFFCURVE",
"385 561 OFFCURVE",
"610 589 CURVE",
"953 224 LINE",
"842 110 OFFCURVE",
"714 44 OFFCURVE",
"566 44 CURVE SMOOTH"
);
},
{
closed = 1;
nodes = (
"580 704 LINE SMOOTH",
"503 789 OFFCURVE",
"481 866 OFFCURVE",
"489 949 CURVE SMOOTH",
"497 1067 OFFCURVE",
"586 1174 OFFCURVE",
"744 1174 CURVE SMOOTH",
"868 1174 OFFCURVE",
"947 1087 OFFCURVE",
"936 974 CURVE SMOOTH",
"924 867 OFFCURVE",
"883 772 OFFCURVE",
"635 645 CURVE"
);
}
);
width = 1552;
},
{
background = {
paths = (
{
closed = 1;
nodes = (
"834 -35 OFFCURVE",
"972 13 OFFCURVE",
"1098 103 CURVE",
"1150 21 OFFCURVE",
"1299 -35 OFFCURVE",
"1406 -35 CURVE SMOOTH",
"1620 -35 OFFCURVE",
"1742 136 OFFCURVE",
"1766 386 CURVE",
"1504 386 LINE",
"1495 298 OFFCURVE",
"1450 257 OFFCURVE",
"1397 257 CURVE SMOOTH",
"1343 257 OFFCURVE",
"1309 281 OFFCURVE",
"1276 318 CURVE",
"1298 296 LINE",
"1380 402 OFFCURVE",
"1458 526 OFFCURVE",
"1524 674 CURVE",
"1337 795 LINE",
"1276 672 OFFCURVE",
"1202 572 OFFCURVE",
"1131 487 CURVE",
"989 655 LINE",
"1187 724 OFFCURVE",
"1311 849 OFFCURVE",
"1330 1034 CURVE SMOOTH",
"1350 1216 OFFCURVE",
"1208 1371 OFFCURVE",
"914 1371 CURVE SMOOTH",
"621 1371 OFFCURVE",
"453 1213 OFFCURVE",
"437 1028 CURVE SMOOTH",
"427 922 OFFCURVE",
"478 818 OFFCURVE",
"527 751 CURVE",
"556 717 LINE",
"358 681 OFFCURVE",
"223 576 OFFCURVE",
"210 396 CURVE SMOOTH",
"185 149 OFFCURVE",
"416 -35 OFFCURVE",
"695 -35 CURVE SMOOTH"
);
},
{
closed = 1;
nodes = (
"604 268 OFFCURVE",
"532 334 OFFCURVE",
"542 420 CURVE",
"543 482 OFFCURVE",
"588 534 OFFCURVE",
"701 556 CURVE",
"920 303 LINE",
"855 280 OFFCURVE",
"786 268 OFFCURVE",
"724 268 CURVE SMOOTH"
);
},
{
closed = 1;
nodes = (
"816 855 LINE SMOOTH",
"779 894 OFFCURVE",
"750 932 OFFCURVE",
"758 982 CURVE SMOOTH",
"766 1040 OFFCURVE",
"816 1083 OFFCURVE",
"889 1083 CURVE SMOOTH",
"959 1083 OFFCURVE",
"999 1041 OFFCURVE",
"996 980 CURVE SMOOTH",
"984 894 OFFCURVE",
"910 844 OFFCURVE",
"845 823 CURVE"
);
}
);
};
layerId = "2146CDF3-509B-498B-BCC4-8BA41979C9D7";
paths = (
{
closed = 1;
nodes = (
"834 -35 OFFCURVE",
"972 13 OFFCURVE",
"1098 103 CURVE",
"1150 21 OFFCURVE",
"1299 -35 OFFCURVE",
"1406 -35 CURVE SMOOTH",
"1620 -35 OFFCURVE",
"1742 136 OFFCURVE",
"1766 386 CURVE",
"1504 386 LINE",
"1495 298 OFFCURVE",
"1450 257 OFFCURVE",
"1397 257 CURVE SMOOTH",
"1369 257 OFFCURVE",
"1338 267 OFFCURVE",
"1317 280 CURVE SMOOTH",
"1298 296 LINE",
"1380 402 OFFCURVE",
"1458 526 OFFCURVE",
"1524 674 CURVE",
"1337 795 LINE",
"1276 672 OFFCURVE",
"1202 572 OFFCURVE",
"1131 487 CURVE",
"989 655 LINE",
"1187 724 OFFCURVE",
"1311 849 OFFCURVE",
"1330 1034 CURVE SMOOTH",
"1350 1216 OFFCURVE",
"1208 1371 OFFCURVE",
"914 1371 CURVE SMOOTH",
"621 1371 OFFCURVE",
"453 1213 OFFCURVE",
"437 1028 CURVE SMOOTH",
"427 922 OFFCURVE",
"478 818 OFFCURVE",
"527 751 CURVE",
"556 717 LINE",
"358 681 OFFCURVE",
"223 576 OFFCURVE",
"210 396 CURVE SMOOTH",
"185 149 OFFCURVE",
"416 -35 OFFCURVE",
"695 -35 CURVE SMOOTH"
);
},
{
closed = 1;
nodes = (
"604 268 OFFCURVE",
"535 334 OFFCURVE",
"542 420 CURVE SMOOTH",
"548 489 OFFCURVE",
"588 534 OFFCURVE",
"701 556 CURVE",
"920 303 LINE",
"855 280 OFFCURVE",
"786 268 OFFCURVE",
"724 268 CURVE SMOOTH"
);
},
{
closed = 1;
nodes = (
"816 855 LINE SMOOTH",
"780 895 OFFCURVE",
"750 932 OFFCURVE",
"758 982 CURVE SMOOTH",
"766 1040 OFFCURVE",
"816 1083 OFFCURVE",
"889 1083 CURVE SMOOTH",
"959 1083 OFFCURVE",
"999 1041 OFFCURVE",
"996 980 CURVE SMOOTH",
"984 894 OFFCURVE",
"910 844 OFFCURVE",
"845 823 CURVE"
);
}
);
width = 1842;
},
{
layerId = "3D647E92-BB94-42FD-9C12-A678B6C1687F";
paths = (
{
closed = 1;
nodes = (
"764 -22 OFFCURVE",
"906 44 OFFCURVE",
"1028 156 CURVE",
"1150 34 OFFCURVE",
"1202 -22 OFFCURVE",
"1318 -22 CURVE SMOOTH",
"1470 -22 OFFCURVE",
"1562 88 OFFCURVE",
"1590 280 CURVE",
"1456 280 LINE",
"1438 162 OFFCURVE",
"1380 116 OFFCURVE",
"1322 116 CURVE SMOOTH",
"1264 116 OFFCURVE",
"1234 136 OFFCURVE",
"1192 182 CURVE SMOOTH",
"1122 256 LINE",
"1222 376 OFFCURVE",
"1304 530 OFFCURVE",
"1370 700 CURVE",
"1276 760 LINE",
"1210 602 OFFCURVE",
"1132 458 OFFCURVE",
"1038 346 CURVE",
"778 624 LINE",
"998 724 OFFCURVE",
"1096 836 OFFCURVE",
"1110 986 CURVE SMOOTH",
"1126 1150 OFFCURVE",
"1006 1278 OFFCURVE",
"804 1278 CURVE SMOOTH",
"586 1278 OFFCURVE",
"440 1152 OFFCURVE",
"424 984 CURVE SMOOTH",
"414 874 OFFCURVE",
"456 774 OFFCURVE",
"536 690 CURVE SMOOTH",
"560 664 LINE",
"336 624 OFFCURVE",
"210 528 OFFCURVE",
"192 348 CURVE SMOOTH",
"172 140 OFFCURVE",
"346 -22 OFFCURVE",
"602 -22 CURVE SMOOTH"
);
},
{
closed = 1;
nodes = (
"428 118 OFFCURVE",
"334 224 OFFCURVE",
"348 354 CURVE SMOOTH",
"358 478 OFFCURVE",
"452 552 OFFCURVE",
"640 578 CURVE",
"942 250 LINE",
"846 166 OFFCURVE",
"738 118 OFFCURVE",
"618 118 CURVE SMOOTH"
);
},
{
closed = 1;
nodes = (
"658 754 LINE SMOOTH",
"594 824 OFFCURVE",
"570 888 OFFCURVE",
"578 960 CURVE SMOOTH",
"586 1058 OFFCURVE",
"662 1144 OFFCURVE",
"792 1144 CURVE SMOOTH",
"898 1144 OFFCURVE",
"964 1072 OFFCURVE",
"956 976 CURVE SMOOTH",
"944 876 OFFCURVE",
"892 796 OFFCURVE",
"704 704 CURVE"
);
}
);
width = 1647.82609;
}
);
unicode = 0026;
},
{
glyphname = at;
lastChange = "2020-10-22 18:07:07 +0000";
layers = (
{
layerId = "AD226DB4-BE97-401A-8A1F-FC26A063DFB1";
paths = (
{
closed = 1;
nodes = (
"912 -225 LINE",
"462 -225 OFFCURVE",
"194 47 OFFCURVE",
"239 475 CURVE SMOOTH",
"272 837 OFFCURVE",
"545 1166 OFFCURVE",
"933 1166 CURVE SMOOTH",
"1260 1166 OFFCURVE",
"1459 928 OFFCURVE",
"1433 599 CURVE",
"1401 331 OFFCURVE",
"1245 148 OFFCURVE",
"1123 148 CURVE SMOOTH",
"1068 148 OFFCURVE",
"1048 180 OFFCURVE",
"1052 250 CURVE",
"1086 600 LINE SMOOTH",
"1102 774 OFFCURVE",
"1031 859 OFFCURVE",
"909 859 CURVE SMOOTH",
"718 859 OFFCURVE",
"530 677 OFFCURVE",
"504 422 CURVE SMOOTH",
"486 222 OFFCURVE",
"601 104 OFFCURVE",
"741 104 CURVE SMOOTH",
"861 104 OFFCURVE",
"941 182 OFFCURVE",
"989 282 CURVE",
"991 250 LINE",
"981 154 OFFCURVE",
"1031 104 OFFCURVE",
"1122 104 CURVE SMOOTH",
"1296 104 OFFCURVE",
"1476 310 OFFCURVE",
"1505 599 CURVE SMOOTH",
"1537 944 OFFCURVE",
"1309 1232 OFFCURVE",
"940 1232 CURVE SMOOTH",
"522 1232 OFFCURVE",
"202 902 OFFCURVE",
"164 478 CURVE SMOOTH",
"122 25 OFFCURVE",
"415 -282 OFFCURVE",
"903 -282 CURVE"
);
},
{
closed = 1;
nodes = (
"633 158 OFFCURVE",
"552 257 OFFCURVE",
"575 421 CURVE",
"593 655 OFFCURVE",
"774 798 OFFCURVE",
"905 798 CURVE SMOOTH",
"1000 798 OFFCURVE",
"1039 746 OFFCURVE",
"1023 598 CURVE",
"1007 373 LINE",
"928 235 OFFCURVE",
"857 158 OFFCURVE",
"751 158 CURVE SMOOTH"
);
}
);
width = 1523;
},
{
layerId = "2146CDF3-509B-498B-BCC4-8BA41979C9D7";
paths = (
{
closed = 1;
nodes = (
"1051 -252 LINE",
"613 -252 OFFCURVE",
"418 14 OFFCURVE",
"449 363 CURVE SMOOTH",
"489 785 OFFCURVE",
"808 1081 OFFCURVE",
"1215 1081 CURVE SMOOTH",
"1569 1081 OFFCURVE",
"1722 856 OFFCURVE",
"1690 579 CURVE",
"1670 292 OFFCURVE",
"1527 227 OFFCURVE",
"1478 227 CURVE SMOOTH",
"1443 227 OFFCURVE",
"1423 252 OFFCURVE",
"1433 329 CURVE SMOOTH",
"1455 540 LINE SMOOTH",
"1477 774 OFFCURVE",
"1373 892 OFFCURVE",
"1191 892 CURVE SMOOTH",
"935 892 OFFCURVE",
"694 657 OFFCURVE",
"668 362 CURVE SMOOTH",
"644 137 OFFCURVE",
"785 -41 OFFCURVE",
"944 -41 CURVE SMOOTH",
"1071 -41 OFFCURVE",
"1132 18 OFFCURVE",
"1192 118 CURVE",
"1201 86 LINE",
"1231 9 OFFCURVE",
"1313 -41 OFFCURVE",
"1437 -41 CURVE SMOOTH",
"1677 -41 OFFCURVE",
"1949 165 OFFCURVE",
"1985 579 CURVE SMOOTH",
"2030 1029 OFFCURVE",
"1736 1377 OFFCURVE",
"1242 1377 CURVE SMOOTH",
"680 1377 OFFCURVE",
"215 993 OFFCURVE",
"158 387 CURVE SMOOTH",
"109 -106 OFFCURVE",
"448 -525 OFFCURVE",
"1028 -525 CURVE"
);
},
{
closed = 1;
nodes = (
"968 230 OFFCURVE",
"927 277 OFFCURVE",
"930 369 CURVE",
"948 537 OFFCURVE",
"1070 640 OFFCURVE",
"1155 640 CURVE SMOOTH",
"1217 640 OFFCURVE",
"1223 582 OFFCURVE",
"1220 538 CURVE",
"1198 353 LINE",
"1152 268 OFFCURVE",
"1107 230 OFFCURVE",
"1033 230 CURVE SMOOTH"
);
}
);
width = 2035;
},
{
layerId = "3D647E92-BB94-42FD-9C12-A678B6C1687F";
paths = (
{
closed = 1;
nodes = (
"958 -234 LINE",
"512 -234 OFFCURVE",
"268 36 OFFCURVE",
"308 438 CURVE SMOOTH",
"344 820 OFFCURVE",
"632 1138 OFFCURVE",
"1026 1138 CURVE SMOOTH",
"1362 1138 OFFCURVE",
"1546 904 OFFCURVE",
"1518 592 CURVE SMOOTH",
"1490 318 OFFCURVE",
"1338 174 OFFCURVE",
"1240 174 CURVE SMOOTH",
"1192 174 OFFCURVE",
"1172 204 OFFCURVE",
"1178 276 CURVE SMOOTH",
"1208 580 LINE SMOOTH",
"1226 774 OFFCURVE",
"1144 870 OFFCURVE",
"1002 870 CURVE SMOOTH",
"790 870 OFFCURVE",
"584 670 OFFCURVE",
"558 402 CURVE SMOOTH",
"538 194 OFFCURVE",
"662 56 OFFCURVE",
"808 56 CURVE SMOOTH",
"930 56 OFFCURVE",
"1004 128 OFFCURVE",
"1056 228 CURVE",
"1060 196 LINE",
"1064 106 OFFCURVE",
"1124 56 OFFCURVE",
"1226 56 CURVE SMOOTH",
"1422 56 OFFCURVE",
"1632 262 OFFCURVE",
"1664 592 CURVE SMOOTH",
"1700 972 OFFCURVE",
"1450 1280 OFFCURVE",
"1040 1280 CURVE SMOOTH",
"574 1280 OFFCURVE",
"206 932 OFFCURVE",
"162 448 CURVE SMOOTH",
"118 -18 OFFCURVE",
"426 -362 OFFCURVE",
"944 -362 CURVE"
);
},
{
closed = 1;
nodes = (
"744 182 OFFCURVE",
"676 264 OFFCURVE",
"692 404 CURVE SMOOTH",
"710 616 OFFCURVE",
"872 746 OFFCURVE",
"988 746 CURVE SMOOTH",
"1072 746 OFFCURVE",
"1100 692 OFFCURVE",
"1088 578 CURVE SMOOTH",
"1070 366 LINE",
"1002 246 OFFCURVE",
"940 182 OFFCURVE",
"844 182 CURVE SMOOTH"
);
}
);
width = 1692.18261;
}
);
unicode = 0040;
},
{
glyphname = dieresis;
lastChange = "2020-10-22 18:07:04 +0000";
layers = (
{
anchors = (
{
name = _above;
position = "{290, 1360}";
}
);
layerId = "AD226DB4-BE97-401A-8A1F-FC26A063DFB1";
paths = (
{
closed = 1;
nodes = (
"196 1609 OFFCURVE",
"215 1578 OFFCURVE",
"247 1578 CURVE SMOOTH",
"286 1578 OFFCURVE",
"321 1609 OFFCURVE",
"321 1641 CURVE",
"327 1677 OFFCURVE",
"299 1708 OFFCURVE",
"263 1708 CURVE SMOOTH",
"231 1708 OFFCURVE",
"206 1677 OFFCURVE",
"200 1641 CURVE SMOOTH"
);
},
{
closed = 1;
nodes = (
"448 1609 OFFCURVE",
"469 1575 OFFCURVE",
"499 1575 CURVE SMOOTH",
"536 1575 OFFCURVE",
"573 1609 OFFCURVE",
"575 1639 CURVE SMOOTH",
"579 1677 OFFCURVE",
"551 1706 OFFCURVE",
"515 1706 CURVE SMOOTH",
"485 1706 OFFCURVE",
"458 1677 OFFCURVE",
"452 1639 CURVE SMOOTH"
);
}
);
width = 467;
},
{
anchors = (
{
name = _above;
position = "{290, 1360}";
}
);
layerId = "2146CDF3-509B-498B-BCC4-8BA41979C9D7";
paths = (
{
closed = 1;
nodes = (
"190 1589 OFFCURVE",
"254 1518 OFFCURVE",
"352 1518 CURVE SMOOTH",
"444 1518 OFFCURVE",
"518 1589 OFFCURVE",
"531 1687 CURVE",
"537 1789 OFFCURVE",
"477 1859 OFFCURVE",
"381 1859 CURVE SMOOTH",
"283 1859 OFFCURVE",
"206 1789 OFFCURVE",
"200 1687 CURVE SMOOTH"
);
},
{
closed = 1;
nodes = (
"593 1589 OFFCURVE",
"660 1523 OFFCURVE",
"756 1523 CURVE SMOOTH",
"851 1523 OFFCURVE",
"921 1589 OFFCURVE",
"930 1691 CURVE SMOOTH",
"940 1789 OFFCURVE",
"880 1864 OFFCURVE",
"784 1864 CURVE SMOOTH",
"688 1864 OFFCURVE",
"609 1789 OFFCURVE",
"603 1691 CURVE SMOOTH"
);
}
);
width = 815;
},
{
anchors = (
{
name = _above;
position = "{290, 1360}";
}
);
layerId = "3D647E92-BB94-42FD-9C12-A678B6C1687F";
paths = (
{
closed = 1;
nodes = (
"194 1602 OFFCURVE",
"228 1558 OFFCURVE",
"282 1558 CURVE SMOOTH",
"338 1558 OFFCURVE",
"386 1602 OFFCURVE",
"390 1656 CURVE SMOOTH",
"396 1714 OFFCURVE",
"358 1758 OFFCURVE",
"302 1758 CURVE SMOOTH",
"248 1758 OFFCURVE",
"206 1714.009 OFFCURVE",
"200 1656 CURVE SMOOTH"
);
},
{
closed = 1;
nodes = (
"496 1602 OFFCURVE",
"532 1558 OFFCURVE",
"584 1558 CURVE SMOOTH",
"640 1558 OFFCURVE",
"688 1602 OFFCURVE",
"692 1656 CURVE SMOOTH",
"698 1714 OFFCURVE",
"660 1758 OFFCURVE",
"604 1758 CURVE SMOOTH",
"552 1758 OFFCURVE",
"508 1714 OFFCURVE",
"502 1656 CURVE SMOOTH"
);
}
);
width = 581.9913;
}
);
unicode = 00A8;
},
{
glyphname = less;
lastChange = "2020-02-19 16:24:59 +0000";
layers = (
{
layerId = "AD226DB4-BE97-401A-8A1F-FC26A063DFB1";
paths = (
{
closed = 1;
nodes = (
"114 602 LINE",
"111 546 LINE",
"607 106 LINE",
"652 165 LINE",
"176 573 LINE",
"730 991 LINE",
"694 1046 LINE"
);
}
);
width = 725;
},
{
layerId = "2146CDF3-509B-498B-BCC4-8BA41979C9D7";
paths = (
{
closed = 1;
nodes = (
"174 838 LINE",
"144 533 LINE",
"732 27 LINE",
"954 277 LINE",
"466 685 LINE",
"1032 1090 LINE",
"858 1342 LINE"
);
}
);
width = 1007;
},
{
layerId = "3D647E92-BB94-42FD-9C12-A678B6C1687F";
paths = (
{
closed = 1;
nodes = (
"134 680 LINE",
"122 542 LINE",
"648 80 LINE",
"752 202 LINE",
"272 610 LINE",
"830 1024 LINE",
"748 1144 LINE"
);
}
);
width = 818.18261;
}
);
unicode = 003C;
},
{
glyphname = greater;
lastChange = "2020-02-19 16:24:59 +0000";
layers = (
{
layerId = "AD226DB4-BE97-401A-8A1F-FC26A063DFB1";
paths = (
{
closed = 1;
nodes = (
"713 546 LINE",
"717 602 LINE",
"228 1046 LINE",
"180 991 LINE",
"647 573 LINE",
"102 165 LINE",
"141 106 LINE"
);
}
);
width = 725;
},
{
layerId = "2146CDF3-509B-498B-BCC4-8BA41979C9D7";
paths = (
{
closed = 1;
nodes = (
"963 533 LINE",
"993 838 LINE",
"398 1342 LINE",
"180 1090 LINE",
"674 685 LINE",
"102 277 LINE",
"272 27 LINE"
);
}
);
width = 1007;
},
{
layerId = "3D647E92-BB94-42FD-9C12-A678B6C1687F";
paths = (
{
closed = 1;
nodes = (
"796 542 LINE",
"808 680 LINE",
"284 1144 LINE",
"180 1024 LINE",
"656 610 LINE",
"102 202.009 LINE",
"184 80 LINE"
);
}
);
width = 818.18261;
}
);
unicode = 003E;
},
{
glyphname = quotedbl;
lastChange = "2020-02-19 16:24:59 +0000";
layers = (
{
layerId = "AD226DB4-BE97-401A-8A1F-FC26A063DFB1";
paths = (
{
closed = 1;
nodes = (
"436 950 LINE",
"485 1351 LINE",
"406 1351 LINE",
"380 950 LINE"
);
},
{
closed = 1;
nodes = (
"199 950 LINE",
"248 1351 LINE",
"169 1351 LINE",
"143 950 LINE"
);
}
);
width = 398;
},
{
layerId = "2146CDF3-509B-498B-BCC4-8BA41979C9D7";
paths = (
{
closed = 1;
nodes = (
"830 865 LINE",
"918 1384 LINE",
"630 1384 LINE",
"616 865 LINE"
);
},
{
closed = 1;
nodes = (
"396 865 LINE",
"484 1384 LINE",
"196 1384 LINE",
"182 865 LINE"
);
}
);
width = 858;
},
{
layerId = "3D647E92-BB94-42FD-9C12-A678B6C1687F";
paths = (
{
closed = 1;
nodes = (
"566 922 LINE",
"628 1362 LINE",
"480 1362 LINE",
"458 922 LINE"
);
},
{
closed = 1;
nodes = (
"264 922 LINE",
"326 1362 LINE",
"178 1362 LINE",
"156 922 LINE"
);
}
);
width = 550;
}
);
unicode = 0022;
},
{
glyphname = numbersign;
lastChange = "2020-02-19 16:24:59 +0000";
layers = (
{
layerId = "AD226DB4-BE97-401A-8A1F-FC26A063DFB1";
paths = (
{
closed = 1;
nodes = (
"319 58 LINE",
"373 353 LINE",
"684 353 LINE",
"629 58 LINE",
"692 58 LINE",
"746 353 LINE",
"945 353 LINE",
"954 411 LINE",
"757 411 LINE",
"834 811 LINE",
"1035 811 LINE",
"1040 862 LINE",
"843 862 LINE",
"897 1158 LINE",
"839 1158 LINE",
"785 862 LINE",
"474 862 LINE",
"528 1158 LINE",
"466 1158 LINE",
"412 862 LINE",
"212 862 LINE",
"203 811 LINE",
"403 811 LINE",
"326 411 LINE",
"131 411 LINE",
"117 353 LINE",
"315 353 LINE",
"261 58 LINE"
);
},
{
closed = 1;
nodes = (
"465 811 LINE",
"776 811 LINE",
"699 411 LINE",
"388 411 LINE"
);
}
);
width = 1028;
},
{
layerId = "2146CDF3-509B-498B-BCC4-8BA41979C9D7";
paths = (
{
closed = 1;
nodes = (
"522 71 LINE",
"570 314 LINE",
"775 314 LINE",
"728 71 LINE",
"1007 71 LINE",
"1055 314 LINE",
"1208 314 LINE",
"1250 523 LINE",
"1092 523 LINE",
"1143 791 LINE",
"1292 791 LINE",
"1342 1007 LINE",
"1185 1007 LINE",
"1232 1243 LINE",
"951 1243 LINE",
"903 1007 LINE",
"698 1007 LINE",
"745 1243 LINE",
"466 1243 LINE",
"418 1007 LINE",
"272 1007 LINE",
"230 791 LINE",
"376 791 LINE",
"326 523 LINE",
"177 523 LINE",
"144 314 LINE",
"288 314 LINE",
"241 71 LINE"
);
},
{
closed = 1;
nodes = (
"656 791 LINE",
"861 791 LINE",
"811 523 LINE",
"605 523 LINE"
);
}
);
width = 1330;
},
{
layerId = "3D647E92-BB94-42FD-9C12-A678B6C1687F";
paths = (
{
closed = 1;
nodes = (
"386 62 LINE",
"438 340 LINE",
"714 340 LINE",
"662 62 LINE",
"796 62 LINE",
"848 340 LINE",
"1032 340 LINE",
"1052 448 LINE",
"868 448 LINE",
"936 804 LINE",
"1120 804 LINE",
"1140 910 LINE",
"956 910 LINE",
"1008 1186 LINE",
"876 1186 LINE",
"824 910 LINE",
"548 910 LINE",
"600 1186 LINE",
"466 1186 LINE",
"414 910 LINE",
"232 910 LINE",
"212 804 LINE",
"394 804 LINE",
"326 448.009 LINE",
"146 448 LINE",
"126 340 LINE",
"306 340 LINE",
"254 62 LINE"
);
},
{
closed = 1;
nodes = (
"528 804 LINE",
"804 804 LINE",
"736.009 448.009 LINE",
"460 448 LINE"
);
}
);
width = 1127.7913;
}
);
unicode = 0023;
},
{
glyphname = asterisk;
lastChange = "2020-02-19 16:24:59 +0000";
layers = (
{
layerId = "AD226DB4-BE97-401A-8A1F-FC26A063DFB1";
paths = (
{
closed = 1;
nodes = (
"464 973 LINE",
"599 759 LINE",
"654 811 LINE",
"504 1004 LINE",
"733 1090 LINE",
"712 1161 LINE",
"494 1049 LINE",
"534 1325 LINE",
"457 1325 LINE",
"449 1049 LINE",
"258 1166 LINE",
"217 1092 LINE",
"430 1006 LINE",
"239 811 LINE",
"291 759 LINE"
);
}
);
width = 749;
},
{
layerId = "2146CDF3-509B-498B-BCC4-8BA41979C9D7";
paths = (
{
closed = 1;
nodes = (
"470 1006 LINE",
"572 811 LINE",
"720 942 LINE",
"589 1089 LINE",
"779 1156 LINE",
"725 1339 LINE",
"554 1240 LINE",
"600 1456 LINE",
"418 1456 LINE",
"422 1240 LINE",
"264 1330 LINE",
"184 1152 LINE",
"364 1085 LINE",
"206 942 LINE",
"324 811 LINE"
);
}
);
width = 729;
},
{
layerId = "3D647E92-BB94-42FD-9C12-A678B6C1687F";
paths = (
{
closed = 1;
nodes = (
"466 984 LINE",
"590 776 LINE",
"676 854 LINE",
"532 1032 LINE",
"748 1112 LINE",
"716 1220 LINE",
"514 1112 LINE",
"556 1368 LINE",
"444 1368 LINE",
"440 1112 LINE",
"260 1220 LINE",
"206 1112 LINE",
"408 1032 LINE",
"228 854 LINE",
"302 776 LINE"
);
}
);
width = 742.3913;
}
);
unicode = 002A;
},
{
glyphname = slash;
lastChange = "2020-02-19 16:24:59 +0000";
layers = (
{
layerId = "AD226DB4-BE97-401A-8A1F-FC26A063DFB1";
paths = (
{
closed = 1;
nodes = (
"158 -129 LINE",
"749 1432 LINE",
"685 1432 LINE",
"97 -129 LINE"
);
}
);
width = 700;
},
{
layerId = "2146CDF3-509B-498B-BCC4-8BA41979C9D7";
paths = (
{
closed = 1;
nodes = (
"375 -181 LINE",
"1012 1523 LINE",
"705 1523 LINE",
"70 -181 LINE"
);
}
);
width = 936;
},
{
layerId = "3D647E92-BB94-42FD-9C12-A678B6C1687F";
paths = (
{
closed = 1;
nodes = (
"230 -146 LINE",
"836 1462 LINE",
"692 1462 LINE",
"88 -146 LINE"
);
}
);
width = 777.98261;
}
);
unicode = 002F;
},
{
glyphname = percent;
lastChange = "2020-10-22 18:07:04 +0000";
layers = (
{
layerId = "AD226DB4-BE97-401A-8A1F-FC26A063DFB1";
paths = (
{
closed = 1;
nodes = (
"325 1232 OFFCURVE",
"220 1132 OFFCURVE",
"202 959 CURVE SMOOTH",
"186 789 OFFCURVE",
"275 693 OFFCURVE",
"389 693 CURVE SMOOTH",
"500 693 OFFCURVE",
"611 789 OFFCURVE",
"627 959 CURVE SMOOTH",
"643 1132 OFFCURVE",
"549 1232 OFFCURVE",
"440 1232 CURVE SMOOTH"
);
},
{
closed = 1;
nodes = (
"516 1174 OFFCURVE",
"573 1099 OFFCURVE",
"559 959 CURVE SMOOTH",
"545 822 OFFCURVE",
"475 755 OFFCURVE",
"394 755 CURVE SMOOTH",
"301 755 OFFCURVE",
"248 822 OFFCURVE",
"260 959 CURVE SMOOTH",
"274 1099 OFFCURVE",
"341 1174 OFFCURVE",
"435 1174 CURVE SMOOTH"
);
},
{
closed = 1;
nodes = (
"285 0 LINE",
"1128 1215 LINE",
"1052 1215 LINE",
"215 0 LINE"
);
},
{
closed = 1;
nodes = (
"841 522 OFFCURVE",
"730 426 OFFCURVE",
"714 249 CURVE SMOOTH",
"698 80 OFFCURVE",
"788 -15 OFFCURVE",
"895 -15 CURVE SMOOTH",
"1010 -15 OFFCURVE",
"1121 80 OFFCURVE",
"1137 249 CURVE SMOOTH",
"1155 426 OFFCURVE",
"1062 522 OFFCURVE",
"948 522 CURVE SMOOTH"
);
},
{
closed = 1;
nodes = (
"1030 463 OFFCURVE",
"1085 390 OFFCURVE",
"1069 249 CURVE SMOOTH",
"1059 112 OFFCURVE",
"992 45 OFFCURVE",
"904 45 CURVE SMOOTH",
"815 45 OFFCURVE",
"760 112 OFFCURVE",
"770 249 CURVE",
"788 390 OFFCURVE",
"855 463 OFFCURVE",
"945 463 CURVE SMOOTH"
);
}
);
width = 1230;
},
{
layerId = "2146CDF3-509B-498B-BCC4-8BA41979C9D7";
paths = (
{
closed = 1;
nodes = (
"364 1377 OFFCURVE",
"226 1277 OFFCURVE",
"208 1058 CURVE SMOOTH",
"186 835 OFFCURVE",
"302 732 OFFCURVE",
"441 732 CURVE SMOOTH",
"585 732 OFFCURVE",
"716 835 OFFCURVE",
"739 1058 CURVE SMOOTH",
"761 1277 OFFCURVE",
"648 1377 OFFCURVE",
"500 1377 CURVE SMOOTH"
);
},
{
closed = 1;
nodes = (
"516 1174 OFFCURVE",
"534 1151 OFFCURVE",
"526 1058 CURVE SMOOTH",
"518 961 OFFCURVE",
"495 933 OFFCURVE",
"460 933 CURVE SMOOTH",
"432 933 OFFCURVE",
"412 961 OFFCURVE",
"424 1058 CURVE SMOOTH",
"432 1151 OFFCURVE",
"453 1174 OFFCURVE",
"481 1174 CURVE SMOOTH"
);
},
{
closed = 1;
nodes = (
"476 0 LINE",
"1430 1346 LINE",
"1137 1346 LINE",
"176 0 LINE"
);
},
{
closed = 1;
nodes = (
"1019 613 OFFCURVE",
"888 511 OFFCURVE",
"865 295 CURVE SMOOTH",
"843 67 OFFCURVE",
"958 -35 OFFCURVE",
"1105 -35 CURVE SMOOTH",
"1246 -35 OFFCURVE",
"1378 67 OFFCURVE",
"1400 295 CURVE SMOOTH",
"1418 511 OFFCURVE",
"1305 613 OFFCURVE",
"1165 613 CURVE SMOOTH"
);
},
{
closed = 1;
nodes = (
"1175 411 OFFCURVE",
"1197 384 OFFCURVE",
"1187 295 CURVE SMOOTH",
"1177 197 OFFCURVE",
"1150 170 OFFCURVE",
"1121 170 CURVE SMOOTH",
"1091 170 OFFCURVE",
"1075 197 OFFCURVE",
"1085 295 CURVE SMOOTH",
"1090 384 OFFCURVE",
"1112 411 OFFCURVE",
"1142 411 CURVE SMOOTH"
);
}
);
width = 1460;
},
{
layerId = "3D647E92-BB94-42FD-9C12-A678B6C1687F";
paths = (
{
closed = 1;
nodes = (
"338 1280 OFFCURVE",
"222 1180 OFFCURVE",
"204 992 CURVE SMOOTH",
"186 804 OFFCURVE",
"284 706 OFFCURVE",
"406 706 CURVE SMOOTH",
"528 706 OFFCURVE",
"646 804 OFFCURVE",
"664 992 CURVE SMOOTH",
"682 1180 OFFCURVE",
"582 1280 OFFCURVE",
"460 1280 CURVE SMOOTH"
);
},
{
closed = 1;
nodes = (
"516 1174 OFFCURVE",
"560 1116 OFFCURVE",
"548 992 CURVE SMOOTH",
"536 868 OFFCURVE",
"482 814 OFFCURVE",
"416 814 CURVE SMOOTH",
"344 814 OFFCURVE",
"302 868 OFFCURVE",
"314 992 CURVE SMOOTH",
"326 1116 OFFCURVE",
"378.009 1174 OFFCURVE",
"450 1174 CURVE SMOOTH"
);
},
{
closed = 1;
nodes = (
"348 0 LINE",
"1228 1258 LINE",
"1080 1258 LINE",
"202 0 LINE"
);
},
{
closed = 1;
nodes = (
"900 552 OFFCURVE",
"782 454 OFFCURVE",
"764 264 CURVE SMOOTH",
"746 76 OFFCURVE",
"844 -22 OFFCURVE",
"964 -22 CURVE SMOOTH",
"1088 -22 OFFCURVE",
"1206 76 OFFCURVE",
"1224 264 CURVE SMOOTH",
"1242 454 OFFCURVE",
"1142 552 OFFCURVE",
"1020 552 CURVE SMOOTH"
);
},
{
closed = 1;
nodes = (
"1078 446 OFFCURVE",
"1122 388 OFFCURVE",
"1108 264 CURVE SMOOTH",
"1098 140 OFFCURVE",
"1044 86 OFFCURVE",
"976 86 CURVE SMOOTH",
"906 86 OFFCURVE",
"864 140 OFFCURVE",
"874 264 CURVE SMOOTH",
"888 388 OFFCURVE",
"940 446 OFFCURVE",
"1010 446 CURVE SMOOTH"
);
}
);
width = 1306;
}
);
unicode = 0025;
},
{
glyphname = backslash;
lastChange = "2020-02-19 16:24:59 +0000";
layers = (
{
layerId = "AD226DB4-BE97-401A-8A1F-FC26A063DFB1";
paths = (
{
closed = 1;
nodes = (
"851 -131 LINE",
"260 1429 LINE",
"199 1429 LINE",
"787 -131 LINE"
);
}
);
width = 700;
},
{
layerId = "2146CDF3-509B-498B-BCC4-8BA41979C9D7";
paths = (
{
closed = 1;
nodes = (
"1084 -177 LINE",
"447 1528 LINE",
"142 1528 LINE",
"777 -177 LINE"
);
}
);
width = 936;
},
{
layerId = "3D647E92-BB94-42FD-9C12-A678B6C1687F";
paths = (
{
closed = 1;
nodes = (
"928 -146 LINE",
"322 1462 LINE",
"180 1462 LINE",
"784 -146 LINE"
);
}
);
width = 777.98261;
}
);
unicode = 005C;
},
{
glyphname = bar;
lastChange = "2020-02-19 16:24:59 +0000";
layers = (
{
layerId = "AD226DB4-BE97-401A-8A1F-FC26A063DFB1";
paths = (
{
closed = 1;
nodes = (
"239 -244 LINE",
"397 1454 LINE",
"331 1454 LINE",
"173 -244 LINE"
);
}
);
width = 456;
},
{
layerId = "2146CDF3-509B-498B-BCC4-8BA41979C9D7";
paths = (
{
closed = 1;
nodes = (
"423 -244 LINE",
"600 1593 LINE",
"304 1593 LINE",
"127 -244 LINE"
);
}
);
width = 601;
},
{
layerId = "3D647E92-BB94-42FD-9C12-A678B6C1687F";
paths = (
{
closed = 1;
nodes = (
"300 -244 LINE",
"464 1500 LINE",
"322 1500 LINE",
"158 -244 LINE"
);
}
);
width = 503.91304;
}
);
unicode = 007C;
},
{
glyphname = bracketleft;
lastChange = "2020-02-19 16:24:59 +0000";
layers = (
{
layerId = "AD226DB4-BE97-401A-8A1F-FC26A063DFB1";
paths = (
{
closed = 1;
nodes = (
"396 -119 LINE",
"400 -60 LINE",
"205 -60 LINE",
"333 1272 LINE",
"527 1272 LINE",
"528 1334 LINE",
"270 1334 LINE",
"136 -119 LINE"
);
}
);
width = 501;
},
{
layerId = "2146CDF3-509B-498B-BCC4-8BA41979C9D7";
paths = (
{
closed = 1;
nodes = (
"678 -376 LINE",
"707 -73 LINE",
"454 -73 LINE",
"594 1423 LINE",
"848 1423 LINE",
"882 1722 LINE",
"328 1722 LINE",
"128 -376 LINE"
);
}
);
width = 711;
},
{
layerId = "3D647E92-BB94-42FD-9C12-A678B6C1687F";
paths = (
{
closed = 1;
nodes = (
"489 -204 LINE",
"501 -64 LINE",
"287 -64 LINE",
"419 1322 LINE",
"633 1322 LINE",
"645 1462 LINE",
"289 1462 LINE",
"133 -204 LINE"
);
}
);
width = 570.3913;
}
);
unicode = 005B;
},
{
glyphname = bracketright;
lastChange = "2020-02-19 16:24:59 +0000";
layers = (
{
layerId = "AD226DB4-BE97-401A-8A1F-FC26A063DFB1";
paths = (
{
closed = 1;
nodes = (
"228 -119 LINE",
"382 1334 LINE",
"120 1334 LINE",
"115 1272 LINE",
"309 1272 LINE",
"167 -60 LINE",
"-27 -60 LINE",
"-32 -119 LINE"
);
}
);
width = 412;
},
{
layerId = "2146CDF3-509B-498B-BCC4-8BA41979C9D7";
paths = (
{
closed = 1;
nodes = (
"571 -376 LINE",
"791 1722 LINE",
"239 1722 LINE",
"207 1423 LINE",
"461 1423 LINE",
"306 -73 LINE",
"53 -73 LINE",
"21 -376 LINE"
);
}
);
width = 714;
},
{
layerId = "3D647E92-BB94-42FD-9C12-A678B6C1687F";
paths = (
{
closed = 1;
nodes = (
"341 -204 LINE",
"517 1462 LINE",
"159 1462 LINE",
"145 1322 LINE",
"359 1322 LINE",
"213 -64 LINE",
"-1 -64 LINE",
"-14 -204 LINE"
);
}
);
width = 511.7913;
}
);
unicode = 005D;
},
{
glyphname = asciicircum;
lastChange = "2020-02-19 16:24:59 +0000";
layers = (
{
layerId = "AD226DB4-BE97-401A-8A1F-FC26A063DFB1";
paths = (
{
closed = 1;
nodes = (
"168 549 LINE",
"431 1047 LINE",
"605 549 LINE",
"681 549 LINE",
"461 1135 LINE",
"418 1135 LINE",
"89 549 LINE"
);
}
);
width = 652;
},
{
layerId = "2146CDF3-509B-498B-BCC4-8BA41979C9D7";
paths = (
{
closed = 1;
nodes = (
"392 371 LINE",
"641 856 LINE",
"796 371 LINE",
"1121 371 LINE",
"803 1247 LINE",
"557 1247 LINE",
"69 371 LINE"
);
}
);
width = 1118;
},
{
layerId = "3D647E92-BB94-42FD-9C12-A678B6C1687F";
paths = (
{
closed = 1;
nodes = (
"242 490 LINE",
"500 984 LINE",
"668 490 LINE",
"826 490 LINE",
"574.009 1172.009 LINE",
"464 1172 LINE",
"82 490 LINE"
);
}
);
width = 805.98261;
}
);
unicode = 005E;
},
{
glyphname = underscore;
lastChange = "2020-02-19 16:24:59 +0000";
layers = (
{
layerId = "AD226DB4-BE97-401A-8A1F-FC26A063DFB1";
paths = (
{
closed = 1;
nodes = (
"1106 -1 LINE",
"1109 59 LINE",
"86 59 LINE",
"83 -1 LINE"
);
}
);
width = 1223;
},
{
layerId = "2146CDF3-509B-498B-BCC4-8BA41979C9D7";
paths = (
{
closed = 1;
nodes = (
"1340 0 LINE",
"1370 290 LINE",
"90 290 LINE",
"61 0 LINE"
);
}
);
width = 1473;
},
{
layerId = "3D647E92-BB94-42FD-9C12-A678B6C1687F";
paths = (
{
closed = 1;
nodes = (
"1183 -1 LINE",
"1195 135 LINE",
"87 135 LINE",
"76 -1 LINE"
);
}
);
width = 1305.6087;
}
);
unicode = 005F;
},
{
glyphname = braceleft;
lastChange = "2020-10-22 18:07:07 +0000";
layers = (
{
layerId = "AD226DB4-BE97-401A-8A1F-FC26A063DFB1";
paths = (
{
closed = 1;
nodes = (
"507 -181 LINE",
"326 -181 OFFCURVE",
"290 -42 OFFCURVE",
"310 194 CURVE SMOOTH",
"324 373 LINE",
"338 493 OFFCURVE",
"319 554 OFFCURVE",
"276 576 CURVE",
"280 581 LINE",
"323 607 OFFCURVE",
"355 664 OFFCURVE",
"367 784 CURVE SMOOTH",
"381 959 LINE SMOOTH",
"405 1196 OFFCURVE",
"475 1338 OFFCURVE",
"651 1338 CURVE",
"654 1394 LINE",
"426 1394 OFFCURVE",
"341 1207 OFFCURVE",
"317 959 CURVE SMOOTH",
"303 779 LINE",
"289 659 OFFCURVE",
"261 608 OFFCURVE",
"217 608 CURVE SMOOTH",
"202 608 LINE",
"197 549 LINE",
"209 549 LINE SMOOTH",
"251 549 OFFCURVE",
"274 497 OFFCURVE",
"262 378 CURVE SMOOTH",
"246 192 LINE SMOOTH",
"222 -56 OFFCURVE",
"271 -237 OFFCURVE",
"499 -237 CURVE"
);
}
);
width = 545;
},
{
layerId = "2146CDF3-509B-498B-BCC4-8BA41979C9D7";
paths = (
{
closed = 1;
nodes = (
"789 -50 LINE",
"616 -50 OFFCURVE",
"526 18 OFFCURVE",
"546 194 CURVE SMOOTH",
"567 393 LINE SMOOTH",
"581 526 OFFCURVE",
"522 620 OFFCURVE",
"446 667 CURVE",
"444 680 LINE",
"533 725 OFFCURVE",
"605 822 OFFCURVE",
"617 954 CURVE SMOOTH",
"638 1156 LINE SMOOTH",
"655 1335 OFFCURVE",
"751 1398 OFFCURVE",
"927 1398 CURVE",
"956 1703 LINE",
"571 1703 OFFCURVE",
"374 1483 OFFCURVE",
"344 1162 CURVE SMOOTH",
"323 976 LINE",
"316 869 OFFCURVE",
"307 844 OFFCURVE",
"256 844 CURVE SMOOTH",
"196 844 LINE",
"164 503 LINE",
"229 503 LINE SMOOTH",
"278 503 OFFCURVE",
"280 477 OFFCURVE",
"268 372 CURVE SMOOTH",
"252 192 LINE SMOOTH",
"222 -128 OFFCURVE",
"376 -355 OFFCURVE",
"762 -355 CURVE"
);
}
);
width = 795;
},
{
layerId = "3D647E92-BB94-42FD-9C12-A678B6C1687F";
paths = (
{
closed = 1;
nodes = (
"600 -138 LINE",
"422 -138 OFFCURVE",
"368 -22 OFFCURVE",
"388 194 CURVE SMOOTH",
"404 380 LINE SMOOTH",
"418 504 OFFCURVE",
"386 576 OFFCURVE",
"332 606 CURVE",
"334 614 LINE",
"392 646 OFFCURVE",
"438 716 OFFCURVE",
"450 840 CURVE SMOOTH",
"466 1024 LINE SMOOTH",
"488 1242 OFFCURVE",
"566 1358 OFFCURVE",
"742 1358 CURVE",
"754 1496 LINE",
"474 1496 OFFCURVE",
"352 1298 OFFCURVE",
"326 1026 CURVE SMOOTH",
"310 844 LINE SMOOTH",
"298 728 OFFCURVE",
"276 686 OFFCURVE",
"230 686 CURVE SMOOTH",
"200 686 LINE",
"186 534 LINE",
"216 534 LINE SMOOTH",
"260 534 OFFCURVE",
"276 490 OFFCURVE",
"264 376 CURVE SMOOTH",
"248 192 LINE SMOOTH",
"222 -80 OFFCURVE",
"306 -276 OFFCURVE",
"586 -276 CURVE"
);
}
);
width = 627.6087;
}
);
unicode = 007B;
},
